SplineFontDB: 3.0
FontName: Contrail
FullName: Contrail
FamilyName: Contrail
Weight: Book
Copyright: Copyright (c) 2011, Sorkin Type Co (www.sorkintype.com)\nwith Reserved Font Name "Contrail".\n\nThis Font Software is licensed under the SIL Open Font License,\nVersion 1.1. This license is available with a FAQ at:\nhttp://scripts.sil.org/OFL
Version: 1.002
ItalicAngle: 0
UnderlinePosition: 108
UnderlineWidth: 275
Ascent: 1638
Descent: 410
LayerCount: 2
Layer: 0 1 "Back"  1
Layer: 1 1 "Fore"  0
XUID: [1021 631 1661839179 16097918]
FSType: 0
OS2Version: 3
OS2_WeightWidthSlopeOnly: 0
OS2_UseTypoMetrics: 1
CreationTime: 1314997320
ModificationTime: 1314984976
PfmFamily: 17
TTFWeight: 400
TTFWidth: 5
LineGap: 0
VLineGap: 0
Panose: 2 0 0 0 0 0 0 0 0 0
OS2TypoAscent: 282
OS2TypoAOffset: 1
OS2TypoDescent: -215
OS2TypoDOffset: 1
OS2TypoLinegap: 0
OS2WinAscent: 0
OS2WinAOffset: 1
OS2WinDescent: 0
OS2WinDOffset: 1
HheadAscent: 0
HheadAOffset: 1
HheadDescent: 0
HheadDOffset: 1
OS2SubXSize: 1434
OS2SubYSize: 1331
OS2SubXOff: 0
OS2SubYOff: 287
OS2SupXSize: 1434
OS2SupYSize: 1331
OS2SupXOff: 0
OS2SupYOff: 977
OS2StrikeYSize: 267
OS2StrikeYPos: 787
OS2Vendor: 'STC '
OS2CodePages: 20000111.40000000
OS2UnicodeRanges: 800000af.00000002.00000000.00000000
DEI: 91125
TtTable: prep
PUSHW_1
 511
SCANCTRL
PUSHB_1
 4
SCANTYPE
EndTTInstrs
ShortTable: maxp 16
  1
  0
  239
  132
  5
  0
  0
  1
  0
  0
  0
  0
  0
  0
  0
  0
EndShort

StartChar: a
Encoding: 97 97 4
Width: 1054
Flags: W
LayerCount: 2
Fore
SplineSet
403 -11 m 0,0,1
 350 -11 350 -11 309 5.5 c 128,-1,2
 268 22 268 22 238 50.5 c 128,-1,3
 208 79 208 79 187.5 118 c 128,-1,4
 167 157 167 157 154.5 202.5 c 128,-1,5
 142 248 142 248 136.5 297.5 c 128,-1,6
 131 347 131 347 131 398 c 0,7,8
 131 471 131 471 136 558.5 c 128,-1,9
 141 646 141 646 161 752 c 0,10,11
 177 837 177 837 202.5 920.5 c 128,-1,12
 228 1004 228 1004 268 1070 c 128,-1,13
 308 1136 308 1136 367 1177 c 128,-1,14
 426 1218 426 1218 510 1218 c 0,15,16
 560 1218 560 1218 596 1205 c 128,-1,17
 632 1192 632 1192 657.5 1168.5 c 128,-1,18
 683 1145 683 1145 701 1113 c 128,-1,19
 719 1081 719 1081 734 1042 c 1,20,-1
 746 1178 l 2,21,22
 747 1189 747 1189 751.5 1195 c 128,-1,23
 756 1201 756 1201 771 1202 c 2,24,-1
 967 1209 l 1,25,26
 993 1207 993 1207 993 1183 c 1,27,-1
 863 30 l 2,28,29
 861 17 861 17 856 10.5 c 128,-1,30
 851 4 851 4 837 3 c 2,31,-1
 635 -4 l 1,32,33
 614 -2 614 -2 614 15 c 1,34,-1
 633 151 l 1,35,36
 612 115 612 115 588.5 85.5 c 128,-1,37
 565 56 565 56 537 34.5 c 128,-1,38
 509 13 509 13 476 1 c 128,-1,39
 443 -11 443 -11 403 -11 c 0,0,1
511 219 m 0,40,41
 538 219 538 219 560 230 c 128,-1,42
 582 241 582 241 600 268 c 128,-1,43
 618 295 618 295 633 341 c 128,-1,44
 648 387 648 387 660 458 c 0,45,46
 671 528 671 528 679.5 599.5 c 128,-1,47
 688 671 688 671 688 745 c 0,48,49
 688 777 688 777 686 818 c 128,-1,50
 684 859 684 859 672 896 c 128,-1,51
 660 933 660 933 635.5 958 c 128,-1,52
 611 983 611 983 566 983 c 0,53,54
 538 983 538 983 516 971.5 c 128,-1,55
 494 960 494 960 476 932.5 c 128,-1,56
 458 905 458 905 442.5 859 c 128,-1,57
 427 813 427 813 412 744 c 0,58,59
 409 730 409 730 404 696 c 128,-1,60
 399 662 399 662 394.5 620 c 128,-1,61
 390 578 390 578 386.5 534.5 c 128,-1,62
 383 491 383 491 383 458 c 0,63,64
 383 427 383 427 386 386 c 128,-1,65
 389 345 389 345 402 308 c 128,-1,66
 415 271 415 271 440.5 245 c 128,-1,67
 466 219 466 219 511 219 c 0,40,41
EndSplineSet
EndChar

StartChar: b
Encoding: 98 98 5
Width: 1060
Flags: W
LayerCount: 2
Fore
SplineSet
292 1658 m 2,0,1
 294 1672 294 1672 298.5 1678 c 128,-1,2
 303 1684 303 1684 317 1685 c 2,3,-1
 513 1692 l 1,4,5
 539 1689 539 1689 539 1665 c 1,6,-1
 455 1026 l 1,7,8
 477 1067 477 1067 502 1102.5 c 128,-1,9
 527 1138 527 1138 556.5 1163.5 c 128,-1,10
 586 1189 586 1189 622 1203.5 c 128,-1,11
 658 1218 658 1218 702 1218 c 0,12,13
 781 1218 781 1218 833.5 1182.5 c 128,-1,14
 886 1147 886 1147 917.5 1089 c 128,-1,15
 949 1031 949 1031 961.5 958 c 128,-1,16
 974 885 974 885 974 809 c 0,17,18
 974 736 974 736 969 648.5 c 128,-1,19
 964 561 964 561 944 455 c 0,20,21
 927 370 927 370 902 286.5 c 128,-1,22
 877 203 877 203 837 137 c 128,-1,23
 797 71 797 71 738 30 c 128,-1,24
 679 -11 679 -11 595 -11 c 0,25,26
 543 -11 543 -11 506.5 3 c 128,-1,27
 470 17 470 17 444 41.5 c 128,-1,28
 418 66 418 66 399.5 100.5 c 128,-1,29
 381 135 381 135 366 176 c 1,30,-1
 355 30 l 2,31,32
 354 17 354 17 349 10.5 c 128,-1,33
 344 4 344 4 330 3 c 2,34,-1
 128 -4 l 1,35,36
 106 -2 106 -2 106 15 c 1,37,-1
 292 1658 l 2,0,1
539 224 m 0,38,39
 567 224 567 224 589 235.5 c 128,-1,40
 611 247 611 247 629 274.5 c 128,-1,41
 647 302 647 302 662.5 348 c 128,-1,42
 678 394 678 394 693 463 c 0,43,44
 696 477 696 477 701 511 c 128,-1,45
 706 545 706 545 710.5 587 c 128,-1,46
 715 629 715 629 718.5 672.5 c 128,-1,47
 722 716 722 716 722 749 c 0,48,49
 722 780 722 780 719 821 c 128,-1,50
 716 862 716 862 703 899 c 128,-1,51
 690 936 690 936 664.5 962 c 128,-1,52
 639 988 639 988 594 988 c 0,53,54
 567 988 567 988 545 977 c 128,-1,55
 523 966 523 966 505 939 c 128,-1,56
 487 912 487 912 472 866 c 128,-1,57
 457 820 457 820 445 749 c 0,58,59
 434 679 434 679 425.5 607.5 c 128,-1,60
 417 536 417 536 417 462 c 0,61,62
 417 430 417 430 419 389 c 128,-1,63
 421 348 421 348 433 311 c 128,-1,64
 445 274 445 274 469.5 249 c 128,-1,65
 494 224 494 224 539 224 c 0,38,39
EndSplineSet
EndChar

StartChar: c
Encoding: 99 99 6
Width: 886
Flags: W
LayerCount: 2
Fore
SplineSet
131 429 m 0,0,1
 131 491 131 491 135.5 566.5 c 128,-1,2
 140 642 140 642 154 726 c 0,3,4
 172 831 172 831 203.5 921 c 128,-1,5
 235 1011 235 1011 287.5 1077 c 128,-1,6
 340 1143 340 1143 418.5 1180.5 c 128,-1,7
 497 1218 497 1218 611 1218 c 0,8,9
 671 1218 671 1218 726 1209.5 c 128,-1,10
 781 1201 781 1201 823 1187 c 0,11,12
 833 1183 833 1183 839 1174.5 c 128,-1,13
 845 1166 845 1166 845 1149 c 1,14,-1
 822 968 l 2,15,16
 820 955 820 955 811.5 951.5 c 128,-1,17
 803 948 803 948 792 948 c 0,18,19
 769 948 769 948 746 958 c 0,20,21
 732 964 732 964 713 971.5 c 128,-1,22
 694 979 694 979 673 985.5 c 128,-1,23
 652 992 652 992 630.5 996.5 c 128,-1,24
 609 1001 609 1001 590 1001 c 0,25,26
 555 1001 555 1001 529.5 989 c 128,-1,27
 504 977 504 977 483 948.5 c 128,-1,28
 462 920 462 920 445 871 c 128,-1,29
 428 822 428 822 411 749 c 0,30,31
 405 725 405 725 399.5 689 c 128,-1,32
 394 653 394 653 389.5 612.5 c 128,-1,33
 385 572 385 572 382 531.5 c 128,-1,34
 379 491 379 491 379 458 c 0,35,36
 379 402 379 402 385.5 356.5 c 128,-1,37
 392 311 392 311 407 279 c 128,-1,38
 422 247 422 247 446 229.5 c 128,-1,39
 470 212 470 212 506 212 c 0,40,41
 525 212 525 212 547.5 214 c 128,-1,42
 570 216 570 216 591.5 220 c 128,-1,43
 613 224 613 224 632 229 c 128,-1,44
 651 234 651 234 664 239 c 0,45,46
 682 247 682 247 699.5 253 c 128,-1,47
 717 259 717 259 731 259 c 256,48,49
 745 259 745 259 754.5 251 c 128,-1,50
 764 243 764 243 764 229 c 1,51,-1
 743 53 l 2,52,53
 741 37 741 37 736.5 33 c 128,-1,54
 732 29 732 29 721 24 c 1,55,56
 676 11 676 11 612 0 c 128,-1,57
 548 -11 548 -11 467 -11 c 0,58,59
 397 -11 397 -11 345 7.5 c 128,-1,60
 293 26 293 26 256 58.5 c 128,-1,61
 219 91 219 91 194.5 134 c 128,-1,62
 170 177 170 177 156 225.5 c 128,-1,63
 142 274 142 274 136.5 326.5 c 128,-1,64
 131 379 131 379 131 429 c 0,0,1
EndSplineSet
EndChar

StartChar: d
Encoding: 100 100 7
Width: 1045
Flags: W
LayerCount: 2
Fore
SplineSet
403 -11 m 0,0,1
 350 -11 350 -11 309 5.5 c 128,-1,2
 268 22 268 22 238 50.5 c 128,-1,3
 208 79 208 79 187.5 118 c 128,-1,4
 167 157 167 157 154.5 202.5 c 128,-1,5
 142 248 142 248 136.5 297.5 c 128,-1,6
 131 347 131 347 131 398 c 0,7,8
 131 471 131 471 136 558.5 c 128,-1,9
 141 646 141 646 161 752 c 0,10,11
 177 837 177 837 202.5 920.5 c 128,-1,12
 228 1004 228 1004 268 1070 c 128,-1,13
 308 1136 308 1136 367 1177 c 128,-1,14
 426 1218 426 1218 510 1218 c 0,15,16
 560 1218 560 1218 595.5 1205 c 128,-1,17
 631 1192 631 1192 657 1168.5 c 128,-1,18
 683 1145 683 1145 701 1113 c 128,-1,19
 719 1081 719 1081 734 1043 c 1,20,-1
 791 1658 l 2,21,22
 793 1672 793 1672 798.5 1678 c 128,-1,23
 804 1684 804 1684 818 1685 c 2,24,-1
 1014 1692 l 1,25,26
 1039 1689 1039 1689 1039 1665 c 1,27,-1
 854 30 l 2,28,29
 852 17 852 17 847 10.5 c 128,-1,30
 842 4 842 4 828 3 c 2,31,-1
 627 -4 l 1,32,33
 606 -2 606 -2 606 15 c 1,34,-1
 623 136 l 1,35,36
 603 103 603 103 580 76 c 128,-1,37
 557 49 557 49 530.5 29.5 c 128,-1,38
 504 10 504 10 472.5 -0.5 c 128,-1,39
 441 -11 441 -11 403 -11 c 0,0,1
511 219 m 0,40,41
 538 219 538 219 560 230 c 128,-1,42
 582 241 582 241 600 268 c 128,-1,43
 618 295 618 295 633 341 c 128,-1,44
 648 387 648 387 660 458 c 0,45,46
 671 528 671 528 679.5 599.5 c 128,-1,47
 688 671 688 671 688 745 c 0,48,49
 688 777 688 777 686 818 c 128,-1,50
 684 859 684 859 672 896 c 128,-1,51
 660 933 660 933 635.5 958 c 128,-1,52
 611 983 611 983 566 983 c 0,53,54
 538 983 538 983 516 971.5 c 128,-1,55
 494 960 494 960 476 932.5 c 128,-1,56
 458 905 458 905 442.5 859 c 128,-1,57
 427 813 427 813 412 744 c 0,58,59
 409 730 409 730 404 696 c 128,-1,60
 399 662 399 662 394.5 620 c 128,-1,61
 390 578 390 578 386.5 534.5 c 128,-1,62
 383 491 383 491 383 458 c 0,63,64
 383 427 383 427 386 386 c 128,-1,65
 389 345 389 345 402 308 c 128,-1,66
 415 271 415 271 440.5 245 c 128,-1,67
 466 219 466 219 511 219 c 0,40,41
EndSplineSet
EndChar

StartChar: e
Encoding: 101 101 8
Width: 996
Flags: W
LayerCount: 2
Fore
SplineSet
131 429 m 0,0,1
 131 490 131 490 135 558 c 128,-1,2
 139 626 139 626 153 718 c 0,3,4
 167 813 167 813 196.5 903 c 128,-1,5
 226 993 226 993 279 1063 c 128,-1,6
 332 1133 332 1133 412 1175.5 c 128,-1,7
 492 1218 492 1218 607 1218 c 0,8,9
 683 1218 683 1218 739.5 1190.5 c 128,-1,10
 796 1163 796 1163 834 1114 c 128,-1,11
 872 1065 872 1065 891 997 c 128,-1,12
 910 929 910 929 910 847 c 0,13,14
 910 815 910 815 908.5 776.5 c 128,-1,15
 907 738 907 738 904.5 697 c 128,-1,16
 902 656 902 656 898 616 c 128,-1,17
 894 576 894 576 890 542 c 0,18,19
 888 530 888 530 881 522.5 c 128,-1,20
 874 515 874 515 859 514 c 2,21,-1
 365 497 l 1,22,23
 364 486 364 486 364 476 c 128,-1,24
 364 466 364 466 364 457 c 0,25,26
 364 401 364 401 374 356 c 128,-1,27
 384 311 384 311 403 279 c 128,-1,28
 422 247 422 247 449.5 229.5 c 128,-1,29
 477 212 477 212 513 212 c 0,30,31
 532 212 532 212 555 214 c 128,-1,32
 578 216 578 216 600.5 220 c 128,-1,33
 623 224 623 224 644 228.5 c 128,-1,34
 665 233 665 233 682 239 c 0,35,36
 704 247 704 247 723.5 253 c 128,-1,37
 743 259 743 259 750 259 c 0,38,39
 764 259 764 259 773 251 c 128,-1,40
 782 243 782 243 782 229 c 1,41,-1
 762 53 l 2,42,43
 760 37 760 37 755 33 c 128,-1,44
 750 29 750 29 739 24 c 1,45,46
 694 11 694 11 624 0 c 128,-1,47
 554 -11 554 -11 474 -11 c 0,48,49
 404 -11 404 -11 351.5 7.5 c 128,-1,50
 299 26 299 26 261 58.5 c 128,-1,51
 223 91 223 91 198 134 c 128,-1,52
 173 177 173 177 158 225.5 c 128,-1,53
 143 274 143 274 137 326.5 c 128,-1,54
 131 379 131 379 131 429 c 0,0,1
641 697 m 2,55,56
 659 698 659 698 663.5 704 c 128,-1,57
 668 710 668 710 670 724 c 0,58,59
 673 745 673 745 675.5 775 c 128,-1,60
 678 805 678 805 678 824 c 0,61,62
 678 849 678 849 674 879.5 c 128,-1,63
 670 910 670 910 658.5 937 c 128,-1,64
 647 964 647 964 626.5 982.5 c 128,-1,65
 606 1001 606 1001 573 1001 c 0,66,67
 539 1001 539 1001 511 990.5 c 128,-1,68
 483 980 483 980 460 952 c 128,-1,69
 437 924 437 924 419.5 875 c 128,-1,70
 402 826 402 826 389 748 c 1,71,-1
 380 684 l 1,72,-1
 641 697 l 2,55,56
EndSplineSet
EndChar

StartChar: f
Encoding: 102 102 9
Width: 693
Flags: W
LayerCount: 2
Fore
SplineSet
228 997 m 1,0,-1
 137 992 l 1,1,2
 123 993 123 993 117.5 998.5 c 128,-1,3
 112 1004 112 1004 112 1017 c 1,4,-1
 139 1178 l 2,5,6
 140 1189 140 1189 144 1195 c 128,-1,7
 148 1201 148 1201 165 1202 c 2,8,-1
 251 1205 l 1,9,-1
 265 1327 l 2,10,11
 274 1408 274 1408 295 1478 c 128,-1,12
 316 1548 316 1548 359.5 1600 c 128,-1,13
 403 1652 403 1652 473.5 1682 c 128,-1,14
 544 1712 544 1712 652 1712 c 0,15,16
 700 1712 700 1712 745.5 1707 c 128,-1,17
 791 1702 791 1702 839 1688 c 0,18,19
 855 1683 855 1683 862 1676.5 c 128,-1,20
 869 1670 869 1670 869 1657 c 1,21,-1
 843 1482 l 2,22,23
 841 1472 841 1472 838 1465 c 128,-1,24
 835 1458 835 1458 824 1458 c 0,25,26
 815 1458 815 1458 791 1466 c 1,27,28
 746 1479 746 1479 714.5 1483 c 128,-1,29
 683 1487 683 1487 648 1487 c 0,30,31
 610 1487 610 1487 583 1472 c 128,-1,32
 556 1457 556 1457 538 1426.5 c 128,-1,33
 520 1396 520 1396 509 1349 c 128,-1,34
 498 1302 498 1302 491 1239 c 2,35,-1
 488 1209 l 1,36,-1
 710 1217 l 1,37,38
 734 1216 734 1216 734 1191 c 1,39,-1
 706 1032 l 2,40,41
 704 1020 704 1020 699 1014 c 128,-1,42
 694 1008 694 1008 681 1007 c 2,43,-1
 467 999 l 1,44,-1
 369 30 l 2,45,46
 367 17 367 17 362.5 10.5 c 128,-1,47
 358 4 358 4 343 3 c 2,48,-1
 141 -4 l 1,49,50
 119 -2 119 -2 119 15 c 1,51,-1
 228 997 l 1,0,-1
EndSplineSet
EndChar

StartChar: g
Encoding: 103 103 10
Width: 1048
Flags: W
LayerCount: 2
Fore
SplineSet
173 -235 m 256,0,1
 181 -235 181 -235 197.5 -239.5 c 128,-1,2
 214 -244 214 -244 228 -249 c 0,3,4
 253 -257 253 -257 272.5 -262 c 128,-1,5
 292 -267 292 -267 310.5 -270 c 128,-1,6
 329 -273 329 -273 348.5 -274 c 128,-1,7
 368 -275 368 -275 392 -275 c 0,8,9
 455 -275 455 -275 496 -260.5 c 128,-1,10
 537 -246 537 -246 562.5 -217 c 128,-1,11
 588 -188 588 -188 601 -143 c 128,-1,12
 614 -98 614 -98 622 -36 c 2,13,-1
 648 179 l 1,14,15
 626 138 626 138 601.5 103.5 c 128,-1,16
 577 69 577 69 547.5 43.5 c 128,-1,17
 518 18 518 18 482.5 3.5 c 128,-1,18
 447 -11 447 -11 403 -11 c 0,19,20
 350 -11 350 -11 309 5.5 c 128,-1,21
 268 22 268 22 238 50.5 c 128,-1,22
 208 79 208 79 187.5 118 c 128,-1,23
 167 157 167 157 154.5 202.5 c 128,-1,24
 142 248 142 248 136.5 297.5 c 128,-1,25
 131 347 131 347 131 398 c 0,26,27
 131 471 131 471 136 558.5 c 128,-1,28
 141 646 141 646 161 752 c 0,29,30
 177 837 177 837 202.5 920.5 c 128,-1,31
 228 1004 228 1004 268 1070 c 128,-1,32
 308 1136 308 1136 367 1177 c 128,-1,33
 426 1218 426 1218 510 1218 c 0,34,35
 560 1218 560 1218 595.5 1205 c 128,-1,36
 631 1192 631 1192 657 1168.5 c 128,-1,37
 683 1145 683 1145 701 1113 c 128,-1,38
 719 1081 719 1081 734 1043 c 1,39,-1
 744 1177 l 2,40,41
 745 1188 745 1188 750.5 1194.5 c 128,-1,42
 756 1201 756 1201 770 1202 c 2,43,-1
 972 1209 l 1,44,45
 993 1206 993 1206 993 1188 c 1,46,-1
 857 -25 l 2,47,48
 846 -124 846 -124 818 -210 c 128,-1,49
 790 -296 790 -296 737 -360.5 c 128,-1,50
 684 -425 684 -425 601 -462 c 128,-1,51
 518 -499 518 -499 397 -499 c 0,52,53
 368 -499 368 -499 334.5 -496.5 c 128,-1,54
 301 -494 301 -494 268 -490 c 128,-1,55
 235 -486 235 -486 206.5 -481 c 128,-1,56
 178 -476 178 -476 160 -472 c 0,57,58
 145 -469 145 -469 138 -464.5 c 128,-1,59
 131 -460 131 -460 131 -443 c 1,60,-1
 151 -262 l 2,61,62
 153 -247 153 -247 159 -241 c 128,-1,63
 165 -235 165 -235 173 -235 c 256,0,1
511 219 m 0,64,65
 538 219 538 219 560 230 c 128,-1,66
 582 241 582 241 600 268 c 128,-1,67
 618 295 618 295 633 341 c 128,-1,68
 648 387 648 387 660 458 c 0,69,70
 671 528 671 528 679.5 599.5 c 128,-1,71
 688 671 688 671 688 745 c 0,72,73
 688 777 688 777 686 818 c 128,-1,74
 684 859 684 859 672 896 c 128,-1,75
 660 933 660 933 635.5 958 c 128,-1,76
 611 983 611 983 566 983 c 0,77,78
 538 983 538 983 516 971.5 c 128,-1,79
 494 960 494 960 476 932.5 c 128,-1,80
 458 905 458 905 442.5 859 c 128,-1,81
 427 813 427 813 412 744 c 0,82,83
 409 730 409 730 404 696 c 128,-1,84
 399 662 399 662 394.5 620 c 128,-1,85
 390 578 390 578 386.5 534.5 c 128,-1,86
 383 491 383 491 383 458 c 0,87,88
 383 427 383 427 386 386 c 128,-1,89
 389 345 389 345 402 308 c 128,-1,90
 415 271 415 271 440.5 245 c 128,-1,91
 466 219 466 219 511 219 c 0,64,65
EndSplineSet
EndChar

StartChar: h
Encoding: 104 104 11
Width: 1067
Flags: W
LayerCount: 2
Fore
SplineSet
292 1658 m 2,0,1
 294 1672 294 1672 298.5 1678 c 128,-1,2
 303 1684 303 1684 317 1685 c 2,3,-1
 513 1692 l 1,4,5
 539 1689 539 1689 539 1665 c 1,6,-1
 476 1104 l 1,7,8
 535 1154 535 1154 603.5 1186 c 128,-1,9
 672 1218 672 1218 751 1218 c 0,10,11
 813 1218 813 1218 856 1193.5 c 128,-1,12
 899 1169 899 1169 925.5 1128 c 128,-1,13
 952 1087 952 1087 963.5 1034 c 128,-1,14
 975 981 975 981 975 924 c 0,15,16
 975 895 975 895 972 868 c 2,17,-1
 876 30 l 2,18,19
 874 17 874 17 869.5 10.5 c 128,-1,20
 865 4 865 4 851 3 c 2,21,-1
 649 -4 l 1,22,23
 627 -2 627 -2 627 15 c 1,24,-1
 718 807 l 2,25,26
 721 832 721 832 721 854 c 0,27,28
 721 899 721 899 709 927 c 128,-1,29
 697 955 697 955 677 970 c 128,-1,30
 657 985 657 985 632 990 c 128,-1,31
 607 995 607 995 580 995 c 0,32,33
 525 995 525 995 461 970 c 1,34,-1
 355 30 l 2,35,36
 353 17 353 17 348.5 10.5 c 128,-1,37
 344 4 344 4 330 3 c 2,38,-1
 128 -4 l 1,39,40
 106 -2 106 -2 106 15 c 1,41,-1
 292 1658 l 2,0,1
EndSplineSet
EndChar

StartChar: i
Encoding: 105 105 12
Width: 546
Flags: W
LayerCount: 2
Fore
SplineSet
369 1318 m 0,0,1
 340 1318 340 1318 316 1328.5 c 128,-1,2
 292 1339 292 1339 275 1357 c 128,-1,3
 258 1375 258 1375 248 1399.5 c 128,-1,4
 238 1424 238 1424 238 1453 c 0,5,6
 238 1486 238 1486 251.5 1516 c 128,-1,7
 265 1546 265 1546 287.5 1568 c 128,-1,8
 310 1590 310 1590 340.5 1603 c 128,-1,9
 371 1616 371 1616 404 1616 c 0,10,11
 432 1616 432 1616 456.5 1605.5 c 128,-1,12
 481 1595 481 1595 499 1577 c 128,-1,13
 517 1559 517 1559 527.5 1534.5 c 128,-1,14
 538 1510 538 1510 538 1482 c 0,15,16
 538 1448 538 1448 524 1418.5 c 128,-1,17
 510 1389 510 1389 487 1366.5 c 128,-1,18
 464 1344 464 1344 433 1331 c 128,-1,19
 402 1318 402 1318 369 1318 c 0,0,1
238 1178 m 2,20,21
 240 1189 240 1189 244.5 1195 c 128,-1,22
 249 1201 249 1201 263 1202 c 2,23,-1
 458 1209 l 1,24,25
 485 1207 485 1207 485 1183 c 1,26,-1
 355 30 l 2,27,28
 353 17 353 17 348.5 11 c 128,-1,29
 344 5 344 5 329 3 c 1,30,-1
 128 -4 l 1,31,32
 106 -2 106 -2 106 15 c 1,33,-1
 238 1178 l 2,20,21
EndSplineSet
EndChar

StartChar: j
Encoding: 106 106 13
Width: 544
Flags: W
LayerCount: 2
Fore
SplineSet
367 1318 m 0,0,1
 338 1318 338 1318 314 1328.5 c 128,-1,2
 290 1339 290 1339 273 1357 c 128,-1,3
 256 1375 256 1375 246 1399.5 c 128,-1,4
 236 1424 236 1424 236 1453 c 0,5,6
 236 1486 236 1486 249.5 1516 c 128,-1,7
 263 1546 263 1546 285.5 1568 c 128,-1,8
 308 1590 308 1590 338.5 1603 c 128,-1,9
 369 1616 369 1616 402 1616 c 0,10,11
 430 1616 430 1616 454.5 1605.5 c 128,-1,12
 479 1595 479 1595 497 1577 c 128,-1,13
 515 1559 515 1559 525.5 1534.5 c 128,-1,14
 536 1510 536 1510 536 1482 c 0,15,16
 536 1448 536 1448 522 1418.5 c 128,-1,17
 508 1389 508 1389 485 1366.5 c 128,-1,18
 462 1344 462 1344 431 1331 c 128,-1,19
 400 1318 400 1318 367 1318 c 0,0,1
236 1178 m 2,20,21
 238 1189 238 1189 242.5 1195 c 128,-1,22
 247 1201 247 1201 261 1202 c 2,23,-1
 456 1209 l 1,24,25
 483 1207 483 1207 483 1183 c 1,26,-1
 345 -39 l 2,27,28
 331 -157 331 -157 297.5 -243.5 c 128,-1,29
 264 -330 264 -330 207.5 -387 c 128,-1,30
 151 -444 151 -444 69.5 -471.5 c 128,-1,31
 -12 -499 -12 -499 -121 -499 c 0,32,33
 -145 -499 -145 -499 -145 -475 c 1,34,-1
 -122 -280 l 2,35,36
 -121 -270 -121 -270 -116.5 -263 c 128,-1,37
 -112 -256 -112 -256 -102 -256 c 0,38,39
 -9 -256 -9 -256 38.5 -216 c 128,-1,40
 86 -176 86 -176 97 -91 c 1,41,-1
 236 1178 l 2,20,21
EndSplineSet
EndChar

StartChar: k
Encoding: 107 107 14
Width: 981
Flags: W
LayerCount: 2
Fore
SplineSet
292 1658 m 2,0,1
 294 1672 294 1672 298.5 1678 c 128,-1,2
 303 1684 303 1684 318 1685 c 2,3,-1
 514 1692 l 1,4,5
 540 1689 540 1689 540 1665 c 1,6,-1
 426 653 l 1,7,-1
 692 1177 l 2,8,9
 697 1186 697 1186 704 1193.5 c 128,-1,10
 711 1201 711 1201 725 1202 c 2,11,-1
 932 1209 l 1,12,13
 942 1208 942 1208 949.5 1201.5 c 128,-1,14
 957 1195 957 1195 957 1186 c 0,15,16
 957 1175 957 1175 953 1166 c 1,17,-1
 654 647 l 1,18,-1
 882 33 l 2,19,20
 885 25 885 25 885 21 c 0,21,22
 885 13 885 13 876.5 8 c 128,-1,23
 868 3 868 3 858 3 c 2,24,-1
 645 -4 l 1,25,26
 634 -3 634 -3 630 2 c 128,-1,27
 626 7 626 7 623 15 c 2,28,-1
 419 590 l 1,29,-1
 356 30 l 2,30,31
 354 17 354 17 349.5 10.5 c 128,-1,32
 345 4 345 4 330 3 c 2,33,-1
 129 -4 l 1,34,35
 107 -2 107 -2 107 15 c 1,36,-1
 292 1658 l 2,0,1
EndSplineSet
EndChar

StartChar: l
Encoding: 108 108 15
Width: 545
Flags: W
LayerCount: 2
Fore
SplineSet
291 1658 m 2,0,1
 293 1672 293 1672 297.5 1678 c 128,-1,2
 302 1684 302 1684 317 1685 c 2,3,-1
 513 1692 l 1,4,5
 539 1689 539 1689 539 1665 c 1,6,-1
 355 31 l 2,7,8
 353 18 353 18 348.5 11.5 c 128,-1,9
 344 5 344 5 329 4 c 2,10,-1
 128 -4 l 1,11,12
 106 -2 106 -2 106 15 c 1,13,-1
 291 1658 l 2,0,1
EndSplineSet
EndChar

StartChar: m
Encoding: 109 109 16
Width: 1567
Flags: W
LayerCount: 2
Fore
SplineSet
238 1178 m 2,0,1
 240 1189 240 1189 244.5 1195 c 128,-1,2
 249 1201 249 1201 263 1202 c 2,3,-1
 458 1209 l 1,4,5
 485 1207 485 1207 485 1183 c 1,6,-1
 474 1090 l 1,7,8
 504 1116 504 1116 536 1139 c 128,-1,9
 568 1162 568 1162 602.5 1179.5 c 128,-1,10
 637 1197 637 1197 674 1207.5 c 128,-1,11
 711 1218 711 1218 751 1218 c 0,12,13
 828 1218 828 1218 875 1181.5 c 128,-1,14
 922 1145 922 1145 946 1087 c 1,15,16
 976 1113 976 1113 1009.5 1136.5 c 128,-1,17
 1043 1160 1043 1160 1079.5 1178 c 128,-1,18
 1116 1196 1116 1196 1155.5 1207 c 128,-1,19
 1195 1218 1195 1218 1237 1218 c 0,20,21
 1300 1218 1300 1218 1345.5 1193.5 c 128,-1,22
 1391 1169 1391 1169 1419.5 1128 c 128,-1,23
 1448 1087 1448 1087 1461.5 1034 c 128,-1,24
 1475 981 1475 981 1475 924 c 0,25,26
 1475 895 1475 895 1472 868 c 2,27,-1
 1376 30 l 2,28,29
 1374 17 1374 17 1369.5 10.5 c 128,-1,30
 1365 4 1365 4 1351 3 c 2,31,-1
 1149 -4 l 1,32,33
 1127 -2 1127 -2 1127 15 c 1,34,-1
 1218 807 l 2,35,36
 1220 820 1220 820 1221 831.5 c 128,-1,37
 1222 843 1222 843 1222 854 c 0,38,39
 1222 899 1222 899 1210 927 c 128,-1,40
 1198 955 1198 955 1177.5 970 c 128,-1,41
 1157 985 1157 985 1131.5 990 c 128,-1,42
 1106 995 1106 995 1079 995 c 0,43,44
 1029 995 1029 995 972 974 c 1,45,46
 975 950 975 950 975 924 c 0,47,48
 975 895 975 895 972 868 c 2,49,-1
 876 30 l 2,50,51
 874 17 874 17 869.5 10.5 c 128,-1,52
 865 4 865 4 851 3 c 2,53,-1
 649 -4 l 1,54,55
 627 -2 627 -2 627 15 c 1,56,-1
 718 807 l 2,57,58
 721 832 721 832 721 854 c 0,59,60
 721 899 721 899 709 927 c 128,-1,61
 697 955 697 955 677 970 c 128,-1,62
 657 985 657 985 632 990 c 128,-1,63
 607 995 607 995 580 995 c 0,64,65
 525 995 525 995 461 970 c 1,66,-1
 355 31 l 2,67,68
 353 18 353 18 348.5 11.5 c 128,-1,69
 344 5 344 5 330 4 c 2,70,-1
 128 -4 l 1,71,72
 106 -2 106 -2 106 15 c 1,73,-1
 238 1178 l 2,0,1
EndSplineSet
EndChar

StartChar: n
Encoding: 110 110 17
Width: 1067
Flags: W
LayerCount: 2
Fore
SplineSet
238 1178 m 2,0,1
 240 1189 240 1189 244.5 1195 c 128,-1,2
 249 1201 249 1201 263 1202 c 2,3,-1
 459 1209 l 1,4,5
 486 1207 486 1207 486 1183 c 1,6,-1
 475 1091 l 1,7,8
 504 1117 504 1117 536 1140 c 128,-1,9
 568 1163 568 1163 602.5 1180.5 c 128,-1,10
 637 1198 637 1198 674.5 1208 c 128,-1,11
 712 1218 712 1218 751 1218 c 0,12,13
 813 1218 813 1218 856 1193.5 c 128,-1,14
 899 1169 899 1169 925.5 1128 c 128,-1,15
 952 1087 952 1087 963.5 1034 c 128,-1,16
 975 981 975 981 975 924 c 0,17,18
 975 895 975 895 972 868 c 2,19,-1
 876 30 l 2,20,21
 874 17 874 17 869.5 10.5 c 128,-1,22
 865 4 865 4 851 3 c 2,23,-1
 649 -4 l 1,24,25
 627 -2 627 -2 627 15 c 1,26,-1
 718 807 l 2,27,28
 721 832 721 832 721 854 c 0,29,30
 721 899 721 899 709 927 c 128,-1,31
 697 955 697 955 677 970 c 128,-1,32
 657 985 657 985 632 990 c 128,-1,33
 607 995 607 995 580 995 c 0,34,35
 526 995 526 995 462 970 c 1,36,-1
 355 30 l 2,37,38
 353 17 353 17 348.5 10.5 c 128,-1,39
 344 4 344 4 330 3 c 2,40,-1
 128 -4 l 1,41,42
 106 -2 106 -2 106 15 c 1,43,-1
 238 1178 l 2,0,1
EndSplineSet
EndChar

StartChar: o
Encoding: 111 111 18
Width: 1023
Flags: W
LayerCount: 2
Fore
SplineSet
131 406 m 0,0,1
 131 469 131 469 139 544.5 c 128,-1,2
 147 620 147 620 161 718 c 0,3,4
 175 821 175 821 202 912.5 c 128,-1,5
 229 1004 229 1004 277.5 1071.5 c 128,-1,6
 326 1139 326 1139 401.5 1178.5 c 128,-1,7
 477 1218 477 1218 588 1218 c 256,8,9
 699 1218 699 1218 767 1184 c 128,-1,10
 835 1150 835 1150 873 1092.5 c 128,-1,11
 911 1035 911 1035 924 958 c 128,-1,12
 937 881 937 881 937 795 c 0,13,14
 937 735 937 735 930 657 c 128,-1,15
 923 579 923 579 909 483 c 0,16,17
 894 381 894 381 867.5 291 c 128,-1,18
 841 201 841 201 792.5 134 c 128,-1,19
 744 67 744 67 668.5 28 c 128,-1,20
 593 -11 593 -11 480 -11 c 0,21,22
 385 -11 385 -11 318.5 17.5 c 128,-1,23
 252 46 252 46 210.5 99.5 c 128,-1,24
 169 153 169 153 150 230.5 c 128,-1,25
 131 308 131 308 131 406 c 0,0,1
371 359 m 0,26,27
 371 330 371 330 375.5 299.5 c 128,-1,28
 380 269 380 269 393.5 244.5 c 128,-1,29
 407 220 407 220 430.5 204.5 c 128,-1,30
 454 189 454 189 493 189 c 0,31,32
 521 189 521 189 544.5 201.5 c 128,-1,33
 568 214 568 214 588 242 c 128,-1,34
 608 270 608 270 623.5 315.5 c 128,-1,35
 639 361 639 361 650 427 c 0,36,37
 653 440 653 440 657.5 469 c 128,-1,38
 662 498 662 498 667 535 c 128,-1,39
 672 572 672 572 677 615 c 128,-1,40
 682 658 682 658 686.5 699.5 c 128,-1,41
 691 741 691 741 693.5 778 c 128,-1,42
 696 815 696 815 696 841 c 0,43,44
 696 871 696 871 691.5 901 c 128,-1,45
 687 931 687 931 673.5 955.5 c 128,-1,46
 660 980 660 980 636 995.5 c 128,-1,47
 612 1011 612 1011 573 1011 c 0,48,49
 545 1011 545 1011 521.5 998.5 c 128,-1,50
 498 986 498 986 478.5 958 c 128,-1,51
 459 930 459 930 444 884.5 c 128,-1,52
 429 839 429 839 417 773 c 0,53,54
 409 731 409 731 401 681 c 128,-1,55
 393 631 393 631 386.5 577.5 c 128,-1,56
 380 524 380 524 375.5 468.5 c 128,-1,57
 371 413 371 413 371 359 c 0,26,27
EndSplineSet
EndChar

StartChar: p
Encoding: 112 112 19
Width: 1055
Flags: W
LayerCount: 2
Fore
SplineSet
301 -455 m 2,0,1
 300 -467 300 -467 295 -473 c 128,-1,2
 290 -479 290 -479 275 -480 c 2,3,-1
 79 -487 l 1,4,5
 52 -486 52 -486 52 -462 c 1,6,-1
 238 1177 l 2,7,8
 240 1188 240 1188 244.5 1194.5 c 128,-1,9
 249 1201 249 1201 263 1202 c 2,10,-1
 464 1209 l 1,11,12
 486 1207 486 1207 486 1188 c 1,13,-1
 466 1055 l 1,14,15
 487 1091 487 1091 510.5 1120.5 c 128,-1,16
 534 1150 534 1150 562 1172 c 128,-1,17
 590 1194 590 1194 623 1206 c 128,-1,18
 656 1218 656 1218 697 1218 c 0,19,20
 776 1218 776 1218 828.5 1182.5 c 128,-1,21
 881 1147 881 1147 912.5 1089 c 128,-1,22
 944 1031 944 1031 956.5 958 c 128,-1,23
 969 885 969 885 969 809 c 0,24,25
 969 736 969 736 964 648.5 c 128,-1,26
 959 561 959 561 939 455 c 0,27,28
 922 370 922 370 897 286.5 c 128,-1,29
 872 203 872 203 832 137 c 128,-1,30
 792 71 792 71 733 30 c 128,-1,31
 674 -11 674 -11 590 -11 c 0,32,33
 537 -11 537 -11 500.5 3 c 128,-1,34
 464 17 464 17 438 42 c 128,-1,35
 412 67 412 67 393.5 102 c 128,-1,36
 375 137 375 137 360 178 c 1,37,-1
 301 -455 l 2,0,1
535 224 m 0,38,39
 562 224 562 224 583.5 235.5 c 128,-1,40
 605 247 605 247 623 274.5 c 128,-1,41
 641 302 641 302 657 348 c 128,-1,42
 673 394 673 394 688 463 c 0,43,44
 691 477 691 477 696 511 c 128,-1,45
 701 545 701 545 706 587 c 128,-1,46
 711 629 711 629 714.5 672.5 c 128,-1,47
 718 716 718 716 718 749 c 0,48,49
 718 779 718 779 714.5 820 c 128,-1,50
 711 861 711 861 698.5 898 c 128,-1,51
 686 935 686 935 660.5 961 c 128,-1,52
 635 987 635 987 590 987 c 0,53,54
 563 987 563 987 540.5 976.5 c 128,-1,55
 518 966 518 966 500 939 c 128,-1,56
 482 912 482 912 467.5 866 c 128,-1,57
 453 820 453 820 441 749 c 0,58,59
 430 679 430 679 421 607.5 c 128,-1,60
 412 536 412 536 412 462 c 0,61,62
 412 430 412 430 414 388.5 c 128,-1,63
 416 347 416 347 427.5 310.5 c 128,-1,64
 439 274 439 274 464 249 c 128,-1,65
 489 224 489 224 535 224 c 0,38,39
EndSplineSet
EndChar

StartChar: q
Encoding: 113 113 20
Width: 1053
Flags: W
LayerCount: 2
Fore
SplineSet
403 -11 m 0,0,1
 350 -11 350 -11 309 5.5 c 128,-1,2
 268 22 268 22 238 50.5 c 128,-1,3
 208 79 208 79 187.5 118 c 128,-1,4
 167 157 167 157 154.5 202.5 c 128,-1,5
 142 248 142 248 136.5 297.5 c 128,-1,6
 131 347 131 347 131 398 c 0,7,8
 131 471 131 471 136 558.5 c 128,-1,9
 141 646 141 646 161 752 c 0,10,11
 177 837 177 837 202.5 920.5 c 128,-1,12
 228 1004 228 1004 268 1070 c 128,-1,13
 308 1136 308 1136 367 1177 c 128,-1,14
 426 1218 426 1218 510 1218 c 0,15,16
 560 1218 560 1218 595.5 1205 c 128,-1,17
 631 1192 631 1192 657 1168.5 c 128,-1,18
 683 1145 683 1145 701 1113 c 128,-1,19
 719 1081 719 1081 734 1043 c 1,20,-1
 744 1176 l 2,21,22
 745 1187 745 1187 750.5 1193.5 c 128,-1,23
 756 1200 756 1200 770 1201 c 2,24,-1
 971 1208 l 1,25,26
 992 1205 992 1205 992 1187 c 1,27,-1
 809 -455 l 2,28,29
 807 -467 807 -467 802 -473 c 128,-1,30
 797 -479 797 -479 782 -480 c 2,31,-1
 586 -487 l 1,32,33
 560 -485 560 -485 560 -462 c 1,34,-1
 642 168 l 1,35,36
 621 129 621 129 596.5 96 c 128,-1,37
 572 63 572 63 543.5 39.5 c 128,-1,38
 515 16 515 16 480 2.5 c 128,-1,39
 445 -11 445 -11 403 -11 c 0,0,1
511 219 m 0,40,41
 538 219 538 219 560 230 c 128,-1,42
 582 241 582 241 600 268 c 128,-1,43
 618 295 618 295 633 341 c 128,-1,44
 648 387 648 387 660 458 c 0,45,46
 671 528 671 528 679.5 599.5 c 128,-1,47
 688 671 688 671 688 745 c 0,48,49
 688 777 688 777 686 818 c 128,-1,50
 684 859 684 859 672 896 c 128,-1,51
 660 933 660 933 635.5 958 c 128,-1,52
 611 983 611 983 566 983 c 0,53,54
 538 983 538 983 516 971.5 c 128,-1,55
 494 960 494 960 476 932.5 c 128,-1,56
 458 905 458 905 442.5 859 c 128,-1,57
 427 813 427 813 412 744 c 0,58,59
 409 730 409 730 404 696 c 128,-1,60
 399 662 399 662 394.5 620 c 128,-1,61
 390 578 390 578 386.5 534.5 c 128,-1,62
 383 491 383 491 383 458 c 0,63,64
 383 427 383 427 386 386 c 128,-1,65
 389 345 389 345 402 308 c 128,-1,66
 415 271 415 271 440.5 245 c 128,-1,67
 466 219 466 219 511 219 c 0,40,41
EndSplineSet
EndChar

StartChar: r
Encoding: 114 114 21
Width: 794
Flags: W
LayerCount: 2
Fore
SplineSet
238 1178 m 2,0,1
 240 1189 240 1189 244.5 1195 c 128,-1,2
 249 1201 249 1201 263 1202 c 2,3,-1
 458 1209 l 1,4,5
 485 1207 485 1207 485 1183 c 1,6,-1
 473 1080 l 1,7,8
 498 1106 498 1106 526 1130.5 c 128,-1,9
 554 1155 554 1155 586 1174.5 c 128,-1,10
 618 1194 618 1194 655 1206 c 128,-1,11
 692 1218 692 1218 735 1218 c 0,12,13
 758 1218 758 1218 777 1216.5 c 128,-1,14
 796 1215 796 1215 810 1213 c 0,15,16
 823 1211 823 1211 827 1204 c 128,-1,17
 831 1197 831 1197 831 1185 c 0,18,19
 831 1169 831 1169 829 1144.5 c 128,-1,20
 827 1120 827 1120 823.5 1091.5 c 128,-1,21
 820 1063 820 1063 816 1033.5 c 128,-1,22
 812 1004 812 1004 808 980 c 0,23,24
 803 954 803 954 779 954 c 0,25,26
 761 954 761 954 733 959 c 0,27,28
 719 961 719 961 704 963 c 128,-1,29
 689 965 689 965 672 965 c 0,30,31
 609 965 609 965 556.5 953.5 c 128,-1,32
 504 942 504 942 454 913 c 1,33,-1
 355 31 l 2,34,35
 353 18 353 18 348.5 11.5 c 128,-1,36
 344 5 344 5 330 4 c 2,37,-1
 128 -4 l 1,38,39
 106 -2 106 -2 106 15 c 1,40,-1
 238 1178 l 2,0,1
EndSplineSet
EndChar

StartChar: s
Encoding: 115 115 22
Width: 747
Flags: W
LayerCount: 2
Fore
SplineSet
111 216 m 2,0,1
 112 225 112 225 116 233 c 128,-1,2
 120 241 120 241 129 241 c 0,3,4
 139 241 139 241 151.5 238.5 c 128,-1,5
 164 236 164 236 178 232 c 0,6,7
 197 227 197 227 219 223 c 128,-1,8
 241 219 241 219 265 219 c 0,9,10
 300 219 300 219 323.5 226 c 128,-1,11
 347 233 347 233 361 246 c 128,-1,12
 375 259 375 259 381 277 c 128,-1,13
 387 295 387 295 387 316 c 0,14,15
 387 376 387 376 360 436.5 c 128,-1,16
 333 497 333 497 298 561 c 0,17,18
 277 600 277 600 256 640.5 c 128,-1,19
 235 681 235 681 218 723.5 c 128,-1,20
 201 766 201 766 190.5 811.5 c 128,-1,21
 180 857 180 857 180 906 c 0,22,23
 180 973 180 973 200 1030 c 128,-1,24
 220 1087 220 1087 260.5 1129 c 128,-1,25
 301 1171 301 1171 362.5 1194.5 c 128,-1,26
 424 1218 424 1218 507 1218 c 0,27,28
 532 1218 532 1218 557 1217 c 128,-1,29
 582 1216 582 1216 603.5 1214.5 c 128,-1,30
 625 1213 625 1213 642 1211 c 128,-1,31
 659 1209 659 1209 668 1208 c 0,32,33
 693 1204 693 1204 693 1182 c 1,34,-1
 671 1004 l 1,35,36
 671 993 671 993 666 984.5 c 128,-1,37
 661 976 661 976 653 976 c 0,38,39
 639 976 639 976 626 976.5 c 128,-1,40
 613 977 613 977 588 979 c 0,41,42
 576 980 576 980 563.5 980.5 c 128,-1,43
 551 981 551 981 540 981 c 0,44,45
 492 981 492 981 464.5 959.5 c 128,-1,46
 437 938 437 938 437 897 c 0,47,48
 437 862 437 862 445 828.5 c 128,-1,49
 453 795 453 795 466 762 c 128,-1,50
 479 729 479 729 496.5 695.5 c 128,-1,51
 514 662 514 662 532 629 c 0,52,53
 553 590 553 590 574 551 c 128,-1,54
 595 512 595 512 611.5 471.5 c 128,-1,55
 628 431 628 431 638 389 c 128,-1,56
 648 347 648 347 648 303 c 0,57,58
 648 155 648 155 561.5 72 c 128,-1,59
 475 -11 475 -11 291 -11 c 0,60,61
 247 -11 247 -11 198 -6.5 c 128,-1,62
 149 -2 149 -2 110 5 c 0,63,64
 97 8 97 8 91 13 c 128,-1,65
 85 18 85 18 85 31 c 1,66,-1
 111 216 l 2,0,1
EndSplineSet
EndChar

StartChar: t
Encoding: 116 116 23
Width: 745
Flags: W
LayerCount: 2
Fore
SplineSet
160 279 m 0,0,1
 160 307 160 307 163 355.5 c 128,-1,2
 166 404 166 404 175 486.5 c 128,-1,3
 184 569 184 569 199.5 693 c 128,-1,4
 215 817 215 817 239 996 c 1,5,-1
 141 992 l 1,6,7
 127 993 127 993 121.5 998.5 c 128,-1,8
 116 1004 116 1004 116 1017 c 1,9,-1
 143 1178 l 2,10,11
 146 1201 146 1201 169 1202 c 2,12,-1
 264 1205 l 1,13,14
 269 1254 269 1254 275 1306.5 c 128,-1,15
 281 1359 281 1359 289 1416 c 0,16,17
 291 1429 291 1429 296 1434.5 c 128,-1,18
 301 1440 301 1440 315 1441 c 2,19,-1
 506 1448 l 1,20,21
 533 1446 533 1446 533 1423 c 1,22,23
 522 1363 522 1363 514.5 1311 c 128,-1,24
 507 1259 507 1259 501 1210 c 1,25,-1
 734 1218 l 1,26,27
 758 1217 758 1217 758 1192 c 1,28,-1
 730 1033 l 2,29,30
 728 1021 728 1021 723 1015 c 128,-1,31
 718 1009 718 1009 705 1008 c 2,32,-1
 476 999 l 1,33,34
 461 866 461 866 450.5 768 c 128,-1,35
 440 670 440 670 432.5 599 c 128,-1,36
 425 528 425 528 420 481 c 128,-1,37
 415 434 415 434 412.5 403 c 128,-1,38
 410 372 410 372 409 353 c 128,-1,39
 408 334 408 334 408 321 c 0,40,41
 408 289 408 289 416 267.5 c 128,-1,42
 424 246 424 246 437.5 232.5 c 128,-1,43
 451 219 451 219 469.5 213 c 128,-1,44
 488 207 488 207 508 207 c 0,45,46
 537 207 537 207 562 211.5 c 128,-1,47
 587 216 587 216 607 223 c 256,48,49
 627 230 627 230 642.5 234.5 c 128,-1,50
 658 239 658 239 667 239 c 0,51,52
 680 239 680 239 684 231 c 128,-1,53
 688 223 688 223 688 213 c 1,54,-1
 667 38 l 2,55,56
 665 24 665 24 660 17 c 128,-1,57
 655 10 655 10 635 5 c 0,58,59
 606 -2 606 -2 559.5 -6.5 c 128,-1,60
 513 -11 513 -11 462 -11 c 0,61,62
 307 -11 307 -11 233.5 60.5 c 128,-1,63
 160 132 160 132 160 279 c 0,0,1
EndSplineSet
EndChar

StartChar: u
Encoding: 117 117 24
Width: 1067
Flags: W
LayerCount: 2
Fore
SplineSet
139 283 m 0,0,1
 139 297 139 297 140 311.5 c 128,-1,2
 141 326 141 326 143 340 c 2,3,-1
 238 1177 l 2,4,5
 240 1188 240 1188 244.5 1194.5 c 128,-1,6
 249 1201 249 1201 263 1202 c 2,7,-1
 465 1210 l 1,8,9
 486 1208 486 1208 486 1189 c 1,10,-1
 396 400 l 2,11,12
 393 374 393 374 393 352 c 0,13,14
 393 307 393 307 402 279.5 c 128,-1,15
 411 252 411 252 428.5 237 c 128,-1,16
 446 222 446 222 472.5 217 c 128,-1,17
 499 212 499 212 534 212 c 0,18,19
 589 212 589 212 653 237 c 1,20,-1
 759 1177 l 2,21,22
 761 1188 761 1188 765.5 1194.5 c 128,-1,23
 770 1201 770 1201 784 1202 c 2,24,-1
 986 1209 l 1,25,26
 1007 1207 1007 1207 1007 1188 c 1,27,-1
 877 31 l 2,28,29
 875 18 875 18 870 12.5 c 128,-1,30
 865 7 865 7 850 5 c 1,31,-1
 655 -4 l 1,32,33
 629 -3 629 -3 629 21 c 1,34,-1
 637 98 l 1,35,36
 578 45 578 45 510 17 c 128,-1,37
 442 -11 442 -11 363 -11 c 0,38,39
 301 -11 301 -11 258.5 13.5 c 128,-1,40
 216 38 216 38 189.5 79 c 128,-1,41
 163 120 163 120 151 173 c 128,-1,42
 139 226 139 226 139 283 c 0,0,1
EndSplineSet
EndChar

StartChar: v
Encoding: 118 118 25
Width: 927
Flags: W
LayerCount: 2
Fore
SplineSet
141 1178 m 1,0,1
 143 1189 143 1189 147.5 1195 c 128,-1,2
 152 1201 152 1201 166 1202 c 2,3,-1
 363 1209 l 1,4,5
 386 1208 386 1208 388 1183 c 2,6,-1
 466 327 l 1,7,-1
 695 1178 l 2,8,9
 698 1189 698 1189 704 1195 c 128,-1,10
 710 1201 710 1201 722 1202 c 2,11,-1
 932 1209 l 1,12,13
 957 1207 957 1207 957 1183 c 1,14,-1
 550 30 l 2,15,16
 545 18 545 18 540.5 11 c 128,-1,17
 536 4 536 4 524 3 c 2,18,-1
 319 -4 l 1,19,20
 300 -3 300 -3 297 15 c 2,21,-1
 141 1178 l 1,0,1
EndSplineSet
EndChar

StartChar: w
Encoding: 119 119 26
Width: 1304
Flags: W
LayerCount: 2
Fore
SplineSet
151 1178 m 1,0,1
 153 1189 153 1189 157.5 1195 c 128,-1,2
 162 1201 162 1201 176 1202 c 2,3,-1
 362 1209 l 1,4,5
 385 1208 385 1208 387 1183 c 1,6,-1
 420 314 l 1,7,-1
 623 1178 l 2,8,9
 627 1199 627 1199 650 1202 c 1,10,-1
 814 1208 l 1,11,12
 839 1207 839 1207 841 1182 c 2,13,-1
 891 307 l 1,14,-1
 1098 1178 l 2,15,16
 1104 1201 1104 1201 1124 1202 c 2,17,-1
 1308 1209 l 1,18,19
 1334 1207 1334 1207 1334 1183 c 1,20,-1
 975 30 l 2,21,22
 971 18 971 18 966.5 11 c 128,-1,23
 962 4 962 4 949 3 c 2,24,-1
 748 -4 l 1,25,26
 737 -3 737 -3 732.5 2 c 128,-1,27
 728 7 728 7 726 15 c 1,28,-1
 686 709 l 1,29,-1
 501 30 l 2,30,31
 498 18 498 18 493 11 c 128,-1,32
 488 4 488 4 476 3 c 2,33,-1
 275 -4 l 1,34,35
 258 -3 258 -3 253 15 c 1,36,-1
 151 1178 l 1,0,1
EndSplineSet
EndChar

StartChar: x
Encoding: 120 120 27
Width: 945
Flags: W
LayerCount: 2
Fore
SplineSet
356 660 m 1,0,-1
 178 1178 l 1,1,2
 178 1189 178 1189 183.5 1195 c 128,-1,3
 189 1201 189 1201 204 1202 c 2,4,-1
 401 1209 l 1,5,6
 414 1208 414 1208 418.5 1201 c 128,-1,7
 423 1194 423 1194 427 1183 c 2,8,-1
 534 835 l 1,9,-1
 687 1178 l 2,10,11
 692 1189 692 1189 697 1195 c 128,-1,12
 702 1201 702 1201 714 1202 c 2,13,-1
 908 1209 l 1,14,15
 934 1207 934 1207 934 1183 c 1,16,-1
 639 596 l 1,17,-1
 826 29 l 1,18,19
 824 16 824 16 819.5 10 c 128,-1,20
 815 4 815 4 801 3 c 2,21,-1
 604 -4 l 1,22,23
 591 -3 591 -3 586.5 3 c 128,-1,24
 582 9 582 9 578 21 c 2,25,-1
 456 422 l 1,26,-1
 270 29 l 2,27,28
 265 17 265 17 259.5 10 c 128,-1,29
 254 3 254 3 244 3 c 2,30,-1
 48 -4 l 1,31,32
 23 -2 23 -2 23 21 c 1,33,-1
 356 660 l 1,0,-1
EndSplineSet
EndChar

StartChar: y
Encoding: 121 121 28
Width: 940
Flags: W
LayerCount: 2
Fore
SplineSet
157 1178 m 1,0,1
 157 1201 157 1201 182 1202 c 2,2,-1
 379 1209 l 1,3,4
 402 1208 402 1208 404 1183 c 2,5,-1
 480 342 l 1,6,-1
 723 1178 l 2,7,8
 729 1201 729 1201 749 1202 c 2,9,-1
 945 1209 l 1,10,11
 970 1207 970 1207 970 1183 c 1,12,-1
 393 -454 l 2,13,14
 389 -465 389 -465 383.5 -472 c 128,-1,15
 378 -479 378 -479 364 -480 c 2,16,-1
 163 -487 l 1,17,18
 141 -486 141 -486 141 -467 c 1,19,-1
 313 18 l 1,20,-1
 157 1178 l 1,0,1
EndSplineSet
EndChar

StartChar: z
Encoding: 122 122 29
Width: 863
Flags: W
LayerCount: 2
Fore
SplineSet
37 18 m 0,0,1
 37 21 37 21 37.5 23 c 128,-1,2
 38 25 38 25 39 27 c 2,3,-1
 507 976 l 1,4,-1
 194 964 l 1,5,6
 180 965 180 965 174.5 971 c 128,-1,7
 169 977 169 977 169 988 c 1,8,-1
 190 1178 l 2,9,10
 192 1189 192 1189 197.5 1195 c 128,-1,11
 203 1201 203 1201 217 1202 c 2,12,-1
 829 1222 l 1,13,14
 856 1221 856 1221 856 1195 c 1,15,-1
 404 246 l 1,16,-1
 727 262 l 1,17,18
 752 261 752 261 752 236 c 1,19,-1
 729 46 l 2,20,21
 727 32 727 32 722 26.5 c 128,-1,22
 717 21 717 21 703 19 c 1,23,-1
 59 -4 l 1,24,25
 48 -3 48 -3 42.5 3.5 c 128,-1,26
 37 10 37 10 37 18 c 0,0,1
EndSplineSet
EndChar

StartChar: A
Encoding: 65 65 30
Width: 964
Flags: W
LayerCount: 2
Fore
SplineSet
468 1528 m 2,0,1
 475 1550 475 1550 495 1551 c 2,2,-1
 715 1559 l 1,3,4
 727 1558 727 1558 732 1551 c 128,-1,5
 737 1544 737 1544 738 1535 c 2,6,-1
 855 29 l 1,7,8
 855 15 855 15 849 10 c 128,-1,9
 843 5 843 5 829 4 c 2,10,-1
 620 -4 l 2,11,12
 599 -4 599 -4 599 15 c 2,13,-1
 584 345 l 1,14,-1
 357 336 l 1,15,-1
 282 28 l 2,16,17
 279 15 279 15 274.5 9.5 c 128,-1,18
 270 4 270 4 256 3 c 2,19,-1
 49 -4 l 2,20,21
 29 -4 29 -4 29 15 c 1,22,-1
 468 1528 l 2,0,1
575 555 m 1,23,-1
 549 1123 l 1,24,-1
 409 549 l 1,25,-1
 575 555 l 1,23,-1
EndSplineSet
EndChar

StartChar: B
Encoding: 66 66 31
Width: 1011
Flags: W
LayerCount: 2
Fore
SplineSet
282 1520 m 2,0,1
 284 1537 284 1537 291 1543.5 c 128,-1,2
 298 1550 298 1550 318 1552 c 0,3,4
 348 1554 348 1554 388 1557 c 128,-1,5
 428 1560 428 1560 471.5 1562.5 c 128,-1,6
 515 1565 515 1565 558.5 1566.5 c 128,-1,7
 602 1568 602 1568 641 1568 c 0,8,9
 735 1568 735 1568 801 1544 c 128,-1,10
 867 1520 867 1520 907.5 1477 c 128,-1,11
 948 1434 948 1434 966.5 1374.5 c 128,-1,12
 985 1315 985 1315 985 1244 c 0,13,14
 985 1179 985 1179 973 1118.5 c 128,-1,15
 961 1058 961 1058 933.5 1005 c 128,-1,16
 906 952 906 952 862 908 c 128,-1,17
 818 864 818 864 755 833 c 1,18,19
 830 801 830 801 875.5 734 c 128,-1,20
 921 667 921 667 921 563 c 0,21,22
 921 453 921 453 890 353.5 c 128,-1,23
 859 254 859 254 790.5 178 c 128,-1,24
 722 102 722 102 613 55 c 128,-1,25
 504 8 504 8 347 3 c 2,26,-1
 132 -4 l 1,27,28
 110 -2 110 -2 110 15 c 1,29,-1
 282 1520 l 2,0,1
461 892 m 1,30,31
 607 894 607 894 677.5 972 c 128,-1,32
 748 1050 748 1050 748 1196 c 0,33,34
 748 1271 748 1271 710 1313 c 128,-1,35
 672 1355 672 1355 584 1355 c 0,36,37
 579 1355 579 1355 569.5 1355 c 128,-1,38
 560 1355 560 1355 549.5 1354.5 c 128,-1,39
 539 1354 539 1354 528.5 1353.5 c 128,-1,40
 518 1353 518 1353 512 1352 c 1,41,-1
 461 892 l 1,30,31
390 246 m 1,42,43
 465 246 465 246 519.5 271.5 c 128,-1,44
 574 297 574 297 609.5 341 c 128,-1,45
 645 385 645 385 662.5 445.5 c 128,-1,46
 680 506 680 506 680 576 c 0,47,48
 680 610 680 610 668 639 c 128,-1,49
 656 668 656 668 633 689 c 128,-1,50
 610 710 610 710 576 722 c 128,-1,51
 542 734 542 734 498 734 c 0,52,53
 486 734 486 734 470 734 c 128,-1,54
 454 734 454 734 444 733 c 1,55,-1
 390 246 l 1,42,43
EndSplineSet
EndChar

StartChar: C
Encoding: 67 67 32
Width: 874
Flags: W
LayerCount: 2
Fore
SplineSet
138 365 m 0,0,1
 138 472 138 472 152 651 c 128,-1,2
 166 830 166 830 212 1083 c 0,3,4
 224 1153 224 1153 239.5 1216 c 128,-1,5
 255 1279 255 1279 278.5 1333 c 128,-1,6
 302 1387 302 1387 336.5 1430.5 c 128,-1,7
 371 1474 371 1474 421.5 1504.5 c 128,-1,8
 472 1535 472 1535 541.5 1551.5 c 128,-1,9
 611 1568 611 1568 705 1568 c 0,10,11
 716 1568 716 1568 738 1567 c 128,-1,12
 760 1566 760 1566 784.5 1564.5 c 128,-1,13
 809 1563 809 1563 831.5 1561 c 128,-1,14
 854 1559 854 1559 866 1557 c 0,15,16
 880 1555 880 1555 887.5 1550.5 c 128,-1,17
 895 1546 895 1546 895 1529 c 1,18,-1
 872 1343 l 2,19,20
 870 1332 870 1332 866 1324.5 c 128,-1,21
 862 1317 862 1317 851 1317 c 0,22,23
 844 1317 844 1317 826 1319 c 128,-1,24
 808 1321 808 1321 783 1325 c 0,25,26
 757 1329 757 1329 730 1331.5 c 128,-1,27
 703 1334 703 1334 684 1334 c 0,28,29
 639 1334 639 1334 604 1324.5 c 128,-1,30
 569 1315 569 1315 542 1289 c 128,-1,31
 515 1263 515 1263 495.5 1217 c 128,-1,32
 476 1171 476 1171 463 1097 c 0,33,34
 455 1053 455 1053 446.5 994 c 128,-1,35
 438 935 438 935 430.5 869 c 128,-1,36
 423 803 423 803 416 733 c 128,-1,37
 409 663 409 663 404 598 c 128,-1,38
 399 533 399 533 396 475.5 c 128,-1,39
 393 418 393 418 393 376 c 0,40,41
 393 332 393 332 403.5 304 c 128,-1,42
 414 276 414 276 432 260 c 128,-1,43
 450 244 450 244 473 237.5 c 128,-1,44
 496 231 496 231 521 231 c 0,45,46
 532 231 532 231 548 232 c 128,-1,47
 564 233 564 233 582.5 235 c 128,-1,48
 601 237 601 237 621 239.5 c 128,-1,49
 641 242 641 242 660 245 c 0,50,51
 694 250 694 250 720.5 253 c 128,-1,52
 747 256 747 256 755 256 c 0,53,54
 767 256 767 256 771.5 248 c 128,-1,55
 776 240 776 240 776 231 c 1,56,-1
 753 45 l 2,57,58
 751 34 751 34 746 28.5 c 128,-1,59
 741 23 741 23 727 20 c 0,60,61
 700 15 700 15 666.5 9.5 c 128,-1,62
 633 4 633 4 597.5 -0.5 c 128,-1,63
 562 -5 562 -5 526.5 -8 c 128,-1,64
 491 -11 491 -11 460 -11 c 0,65,66
 380 -11 380 -11 320 16 c 128,-1,67
 260 43 260 43 219.5 92 c 128,-1,68
 179 141 179 141 158.5 210.5 c 128,-1,69
 138 280 138 280 138 365 c 0,0,1
EndSplineSet
EndChar

StartChar: D
Encoding: 68 68 33
Width: 1058
Flags: W
LayerCount: 2
Fore
SplineSet
283 1528 m 2,0,1
 285 1539 285 1539 289.5 1544 c 128,-1,2
 294 1549 294 1549 309 1551 c 0,3,4
 388 1559 388 1559 478.5 1563.5 c 128,-1,5
 569 1568 569 1568 656 1568 c 0,6,7
 740 1568 740 1568 804.5 1542.5 c 128,-1,8
 869 1517 869 1517 913 1470 c 128,-1,9
 957 1423 957 1423 979.5 1356.5 c 128,-1,10
 1002 1290 1002 1290 1002 1207 c 0,11,12
 1002 1128 1002 1128 996.5 1036 c 128,-1,13
 991 944 991 944 981 848 c 128,-1,14
 971 752 971 752 958.5 657 c 128,-1,15
 946 562 946 562 931 477 c 0,16,17
 907 335 907 335 866 245 c 128,-1,18
 825 155 825 155 759.5 103.5 c 128,-1,19
 694 52 694 52 601.5 30.5 c 128,-1,20
 509 9 509 9 381 5 c 2,21,-1
 132 -4 l 1,22,23
 110 -3 110 -3 110 15 c 1,24,-1
 283 1528 l 2,0,1
390 246 m 1,25,26
 465 253 465 253 515 266.5 c 128,-1,27
 565 280 565 280 597 305 c 128,-1,28
 629 330 629 330 646.5 369 c 128,-1,29
 664 408 664 408 675 465 c 0,30,31
 683 508 683 508 691.5 563.5 c 128,-1,32
 700 619 700 619 707.5 682 c 128,-1,33
 715 745 715 745 722 812 c 128,-1,34
 729 879 729 879 734 943.5 c 128,-1,35
 739 1008 739 1008 742 1067.5 c 128,-1,36
 745 1127 745 1127 745 1176 c 0,37,38
 745 1257 745 1257 706 1297.5 c 128,-1,39
 667 1338 667 1338 576 1338 c 0,40,41
 565 1338 565 1338 544.5 1337.5 c 128,-1,42
 524 1337 524 1337 512 1335 c 1,43,-1
 390 246 l 1,25,26
EndSplineSet
EndChar

StartChar: E
Encoding: 69 69 34
Width: 905
Flags: W
LayerCount: 2
Fore
SplineSet
283 1528 m 2,0,1
 285 1539 285 1539 289.5 1544 c 128,-1,2
 294 1549 294 1549 309 1551 c 1,3,-1
 857 1570 l 1,4,5
 882 1567 882 1567 882 1543 c 1,6,-1
 857 1336 l 2,7,8
 855 1324 855 1324 850.5 1317.5 c 128,-1,9
 846 1311 846 1311 831 1309 c 1,10,-1
 509 1300 l 1,11,-1
 466 928 l 1,12,-1
 774 939 l 1,13,14
 800 938 800 938 800 913 c 1,15,-1
 774 709 l 2,16,17
 772 696 772 696 767 691 c 128,-1,18
 762 686 762 686 748 684 c 1,19,-1
 437 672 l 1,20,-1
 390 262 l 1,21,-1
 773 275 l 1,22,23
 799 274 799 274 799 249 c 1,24,-1
 773 42 l 2,25,26
 771 29 771 29 766 24 c 128,-1,27
 761 19 761 19 747 16 c 1,28,-1
 132 -4 l 2,29,30
 110 -4 110 -4 110 15 c 1,31,-1
 283 1528 l 2,0,1
EndSplineSet
EndChar

StartChar: F
Encoding: 70 70 35
Width: 890
Flags: W
LayerCount: 2
Fore
SplineSet
283 1528 m 2,0,1
 285 1539 285 1539 289.5 1544 c 128,-1,2
 294 1549 294 1549 309 1551 c 1,3,-1
 857 1570 l 1,4,5
 882 1567 882 1567 882 1543 c 1,6,-1
 857 1336 l 2,7,8
 855 1324 855 1324 850.5 1317.5 c 128,-1,9
 846 1311 846 1311 831 1309 c 1,10,-1
 509 1300 l 1,11,-1
 466 928 l 1,12,-1
 774 939 l 1,13,14
 800 938 800 938 800 913 c 1,15,-1
 774 709 l 2,16,17
 772 696 772 696 767 691 c 128,-1,18
 762 686 762 686 748 684 c 1,19,-1
 437 672 l 1,20,-1
 364 32 l 2,21,22
 362 20 362 20 357 14 c 128,-1,23
 352 8 352 8 338 7 c 2,24,-1
 132 -4 l 1,25,26
 110 -4 110 -4 110 15 c 1,27,-1
 283 1528 l 2,0,1
EndSplineSet
EndChar

StartChar: G
Encoding: 71 71 36
Width: 959
Flags: W
LayerCount: 2
Fore
SplineSet
138 341 m 0,0,1
 138 360 138 360 140 425.5 c 128,-1,2
 142 491 142 491 149.5 590 c 128,-1,3
 157 689 157 689 171.5 815.5 c 128,-1,4
 186 942 186 942 212 1083 c 0,5,6
 225 1153 225 1153 240 1216 c 128,-1,7
 255 1279 255 1279 278.5 1333 c 128,-1,8
 302 1387 302 1387 336 1430.5 c 128,-1,9
 370 1474 370 1474 420.5 1504.5 c 128,-1,10
 471 1535 471 1535 541 1551.5 c 128,-1,11
 611 1568 611 1568 705 1568 c 0,12,13
 725 1568 725 1568 748 1567 c 128,-1,14
 771 1566 771 1566 793 1564.5 c 128,-1,15
 815 1563 815 1563 834 1561 c 128,-1,16
 853 1559 853 1559 865 1557 c 0,17,18
 880 1555 880 1555 887 1550.5 c 128,-1,19
 894 1546 894 1546 894 1529 c 1,20,-1
 872 1343 l 2,21,22
 870 1332 870 1332 865.5 1324.5 c 128,-1,23
 861 1317 861 1317 851 1317 c 0,24,25
 843 1317 843 1317 823 1319 c 128,-1,26
 803 1321 803 1321 778 1325 c 0,27,28
 752 1329 752 1329 727 1331.5 c 128,-1,29
 702 1334 702 1334 683 1334 c 0,30,31
 639 1334 639 1334 604 1324.5 c 128,-1,32
 569 1315 569 1315 542 1289 c 128,-1,33
 515 1263 515 1263 495.5 1217 c 128,-1,34
 476 1171 476 1171 463 1097 c 0,35,36
 455 1053 455 1053 446.5 994 c 128,-1,37
 438 935 438 935 430.5 869 c 128,-1,38
 423 803 423 803 416 733 c 128,-1,39
 409 663 409 663 404 598 c 128,-1,40
 399 533 399 533 396 475.5 c 128,-1,41
 393 418 393 418 393 376 c 0,42,43
 393 332 393 332 402.5 300.5 c 128,-1,44
 412 269 412 269 427.5 249 c 128,-1,45
 443 229 443 229 464 219 c 128,-1,46
 485 209 485 209 508 209 c 0,47,48
 520 209 520 209 538.5 209 c 128,-1,49
 557 209 557 209 578 210 c 1,50,-1
 644 777 l 2,51,52
 646 788 646 788 650.5 794 c 128,-1,53
 655 800 655 800 670 801 c 2,54,-1
 858 808 l 1,55,56
 885 807 885 807 885 784 c 1,57,-1
 801 34 l 2,58,59
 799 23 799 23 794 17 c 128,-1,60
 789 11 789 11 774 9 c 0,61,62
 747 5 747 5 709 1.5 c 128,-1,63
 671 -2 671 -2 628 -5 c 128,-1,64
 585 -8 585 -8 539 -9.5 c 128,-1,65
 493 -11 493 -11 450 -11 c 0,66,67
 366 -11 366 -11 306.5 19 c 128,-1,68
 247 49 247 49 209.5 98 c 128,-1,69
 172 147 172 147 155 210.5 c 128,-1,70
 138 274 138 274 138 341 c 0,0,1
EndSplineSet
EndChar

StartChar: H
Encoding: 72 72 37
Width: 1062
Flags: W
LayerCount: 2
Fore
SplineSet
282 1528 m 2,0,1
 284 1539 284 1539 288.5 1544.5 c 128,-1,2
 293 1550 293 1550 308 1551 c 2,3,-1
 509 1559 l 1,4,5
 535 1558 535 1558 535 1535 c 1,6,-1
 462 898 l 1,7,-1
 717 907 l 1,8,-1
 787 1528 l 2,9,10
 789 1539 789 1539 794.5 1544.5 c 128,-1,11
 800 1550 800 1550 814 1551 c 2,12,-1
 1014 1559 l 1,13,14
 1040 1558 1040 1558 1040 1535 c 1,15,-1
 869 28 l 2,16,17
 867 16 867 16 862.5 10 c 128,-1,18
 858 4 858 4 844 3 c 2,19,-1
 638 -4 l 2,20,21
 616 -4 616 -4 616 15 c 1,22,-1
 690 672 l 1,23,-1
 436 663 l 1,24,-1
 364 28 l 2,25,26
 362 16 362 16 357 10 c 128,-1,27
 352 4 352 4 338 3 c 2,28,-1
 132 -4 l 2,29,30
 110 -4 110 -4 110 15 c 1,31,-1
 282 1528 l 2,0,1
EndSplineSet
EndChar

StartChar: I
Encoding: 73 73 38
Width: 557
Flags: W
LayerCount: 2
Fore
SplineSet
283 1528 m 2,0,1
 285 1539 285 1539 289.5 1544.5 c 128,-1,2
 294 1550 294 1550 309 1551 c 2,3,-1
 509 1558 l 1,4,5
 535 1557 535 1557 535 1534 c 1,6,-1
 364 28 l 2,7,8
 362 16 362 16 357 10 c 128,-1,9
 352 4 352 4 338 3 c 2,10,-1
 132 -4 l 2,11,12
 110 -4 110 -4 110 15 c 1,13,-1
 283 1528 l 2,0,1
EndSplineSet
EndChar

StartChar: J
Encoding: 74 74 39
Width: 701
Flags: W
LayerCount: 2
Fore
SplineSet
24 208 m 2,0,1
 26 219 26 219 31 225.5 c 128,-1,2
 36 232 36 232 49 232 c 0,3,4
 123 232 123 232 171 244 c 128,-1,5
 219 256 219 256 248.5 279.5 c 128,-1,6
 278 303 278 303 291.5 337.5 c 128,-1,7
 305 372 305 372 310 416 c 2,8,-1
 436 1528 l 2,9,10
 438 1539 438 1539 442.5 1544.5 c 128,-1,11
 447 1550 447 1550 461 1551 c 2,12,-1
 662 1558 l 1,13,14
 688 1556 688 1556 688 1534 c 1,15,-1
 565 438 l 2,16,17
 550 307 550 307 507.5 220.5 c 128,-1,18
 465 134 465 134 396.5 82.5 c 128,-1,19
 328 31 328 31 234.5 10 c 128,-1,20
 141 -11 141 -11 25 -11 c 0,21,22
 11 -11 11 -11 5.5 -4.5 c 128,-1,23
 0 2 0 2 0 13 c 1,24,-1
 24 208 l 2,0,1
EndSplineSet
EndChar

StartChar: K
Encoding: 75 75 40
Width: 978
Flags: W
LayerCount: 2
Fore
SplineSet
281 1528 m 2,0,1
 283 1539 283 1539 287.5 1544.5 c 128,-1,2
 292 1550 292 1550 306 1551 c 2,3,-1
 507 1558 l 1,4,5
 533 1557 533 1557 533 1534 c 1,6,-1
 457 861 l 1,7,-1
 746 1527 l 2,8,9
 751 1539 751 1539 757.5 1544.5 c 128,-1,10
 764 1550 764 1550 778 1551 c 2,11,-1
 987 1558 l 1,12,13
 1013 1556 1013 1556 1013 1537 c 0,14,15
 1013 1532 1013 1532 1012 1526 c 128,-1,16
 1011 1520 1011 1520 1006 1511 c 2,17,-1
 683 832 l 1,18,-1
 924 32 l 2,19,20
 925 29 925 29 925 21 c 256,21,22
 925 13 925 13 916.5 8.5 c 128,-1,23
 908 4 908 4 899 4 c 2,24,-1
 684 -4 l 1,25,26
 673 -3 673 -3 668.5 2 c 128,-1,27
 664 7 664 7 662 15 c 2,28,-1
 447 764 l 1,29,-1
 364 28 l 2,30,31
 362 16 362 16 356.5 10 c 128,-1,32
 351 4 351 4 337 3 c 2,33,-1
 131 -4 l 2,34,35
 110 -4 110 -4 110 15 c 1,36,-1
 281 1528 l 2,0,1
EndSplineSet
EndChar

StartChar: L
Encoding: 76 76 41
Width: 885
Flags: W
LayerCount: 2
Fore
SplineSet
281 1528 m 2,0,1
 283 1539 283 1539 287.5 1544.5 c 128,-1,2
 292 1550 292 1550 306 1551 c 2,3,-1
 507 1558 l 1,4,5
 533 1557 533 1557 533 1534 c 1,6,-1
 390 263 l 1,7,-1
 773 278 l 1,8,9
 799 277 799 277 799 252 c 1,10,-1
 773 45 l 2,11,12
 771 32 771 32 766 25.5 c 128,-1,13
 761 19 761 19 747 18 c 2,14,-1
 131 -4 l 2,15,16
 110 -4 110 -4 110 15 c 1,17,-1
 281 1528 l 2,0,1
EndSplineSet
EndChar

StartChar: M
Encoding: 77 77 42
Width: 1363
Flags: W
LayerCount: 2
Fore
SplineSet
282 1528 m 2,0,1
 284 1539 284 1539 288 1544.5 c 128,-1,2
 292 1550 292 1550 308 1551 c 2,3,-1
 560 1560 l 1,4,5
 574 1559 574 1559 579.5 1553 c 128,-1,6
 585 1547 585 1547 586 1536 c 2,7,-1
 677 332 l 1,8,-1
 1024 1528 l 2,9,10
 1026 1538 1026 1538 1032 1544 c 128,-1,11
 1038 1550 1038 1550 1052 1551 c 2,12,-1
 1315 1560 l 1,13,14
 1340 1559 1340 1559 1340 1536 c 1,15,-1
 1170 28 l 2,16,17
 1168 16 1168 16 1162.5 10 c 128,-1,18
 1157 4 1157 4 1143 3 c 2,19,-1
 937 -4 l 2,20,21
 916 -4 916 -4 916 15 c 1,22,-1
 1111 1234 l 1,23,-1
 753 27 l 2,24,25
 749 16 749 16 742.5 10 c 128,-1,26
 736 4 736 4 724 3 c 2,27,-1
 530 -4 l 1,28,29
 510 -2 510 -2 508 15 c 2,30,-1
 424 1212 l 1,31,-1
 349 29 l 2,32,33
 348 17 348 17 343 10.5 c 128,-1,34
 338 4 338 4 323 3 c 2,35,-1
 132 -4 l 1,36,37
 110 -2 110 -2 110 15 c 1,38,-1
 282 1528 l 2,0,1
EndSplineSet
EndChar

StartChar: N
Encoding: 78 78 43
Width: 1085
Flags: W
LayerCount: 2
Fore
SplineSet
283 1528 m 2,0,1
 285 1539 285 1539 289.5 1544.5 c 128,-1,2
 294 1550 294 1550 309 1551 c 2,3,-1
 512 1562 l 2,4,5
 527 1562 527 1562 531.5 1555.5 c 128,-1,6
 536 1549 536 1549 538 1538 c 2,7,-1
 741 529 l 1,8,-1
 811 1528 l 2,9,10
 812 1539 812 1539 817.5 1544.5 c 128,-1,11
 823 1550 823 1550 838 1551 c 2,12,-1
 1037 1562 l 2,13,14
 1051 1562 1051 1562 1057.5 1555.5 c 128,-1,15
 1064 1549 1064 1549 1064 1538 c 1,16,-1
 892 32 l 2,17,18
 890 20 890 20 885 14 c 128,-1,19
 880 8 880 8 866 7 c 2,20,-1
 668 -4 l 2,21,22
 651 -4 651 -4 648 15 c 2,23,-1
 438 1083 l 1,24,-1
 364 28 l 2,25,26
 363 16 363 16 357.5 10 c 128,-1,27
 352 4 352 4 338 3 c 2,28,-1
 132 -4 l 2,29,30
 110 -4 110 -4 110 15 c 1,31,-1
 283 1528 l 2,0,1
EndSplineSet
EndChar

StartChar: O
Encoding: 79 79 44
Width: 1047
Flags: W
LayerCount: 2
Fore
SplineSet
138 348 m 0,0,1
 138 403 138 403 142 486.5 c 128,-1,2
 146 570 146 570 155 669.5 c 128,-1,3
 164 769 164 769 178.5 877 c 128,-1,4
 193 985 193 985 215 1090 c 0,5,6
 229 1156 229 1156 245.5 1218 c 128,-1,7
 262 1280 262 1280 285.5 1333.5 c 128,-1,8
 309 1387 309 1387 341 1431.5 c 128,-1,9
 373 1476 373 1476 417.5 1507.5 c 128,-1,10
 462 1539 462 1539 521 1556.5 c 128,-1,11
 580 1574 580 1574 658 1574 c 0,12,13
 743 1574 743 1574 806 1546 c 128,-1,14
 869 1518 869 1518 911 1469.5 c 128,-1,15
 953 1421 953 1421 973.5 1354 c 128,-1,16
 994 1287 994 1287 994 1209 c 0,17,18
 994 1154 994 1154 990 1070.5 c 128,-1,19
 986 987 986 987 977 888 c 128,-1,20
 968 789 968 789 953.5 681 c 128,-1,21
 939 573 939 573 918 468 c 0,22,23
 898 366 898 366 869.5 278 c 128,-1,24
 841 190 841 190 792 125 c 128,-1,25
 743 60 743 60 667 22.5 c 128,-1,26
 591 -15 591 -15 477 -15 c 0,27,28
 390 -15 390 -15 326.5 12.5 c 128,-1,29
 263 40 263 40 221 88.5 c 128,-1,30
 179 137 179 137 158.5 203.5 c 128,-1,31
 138 270 138 270 138 348 c 0,0,1
393 371 m 0,32,33
 393 294 393 294 425.5 257.5 c 128,-1,34
 458 221 458 221 504 221 c 0,35,36
 564 221 564 221 605.5 274.5 c 128,-1,37
 647 328 647 328 667 455 c 0,38,39
 674 499 674 499 682 558.5 c 128,-1,40
 690 618 690 618 698 685.5 c 128,-1,41
 706 753 706 753 713.5 824 c 128,-1,42
 721 895 721 895 726.5 961.5 c 128,-1,43
 732 1028 732 1028 735.5 1086.5 c 128,-1,44
 739 1145 739 1145 739 1187 c 0,45,46
 739 1263 739 1263 707 1300.5 c 128,-1,47
 675 1338 675 1338 633 1338 c 0,48,49
 568 1338 568 1338 527.5 1284 c 128,-1,50
 487 1230 487 1230 465 1103 c 0,51,52
 457 1059 457 1059 449 999.5 c 128,-1,53
 441 940 441 940 433 872.5 c 128,-1,54
 425 805 425 805 417.5 734 c 128,-1,55
 410 663 410 663 404.5 596 c 128,-1,56
 399 529 399 529 396 471 c 128,-1,57
 393 413 393 413 393 371 c 0,32,33
EndSplineSet
EndChar

StartChar: P
Encoding: 80 80 45
Width: 1023
Flags: W
LayerCount: 2
Fore
SplineSet
283 1528 m 2,0,1
 285 1539 285 1539 289.5 1544 c 128,-1,2
 294 1549 294 1549 309 1551 c 0,3,4
 342 1554 342 1554 383 1557 c 128,-1,5
 424 1560 424 1560 470.5 1562.5 c 128,-1,6
 517 1565 517 1565 568 1566.5 c 128,-1,7
 619 1568 619 1568 671 1568 c 0,8,9
 840 1568 840 1568 922 1484.5 c 128,-1,10
 1004 1401 1004 1401 1004 1244 c 0,11,12
 1004 1206 1004 1206 1001.5 1165.5 c 128,-1,13
 999 1125 999 1125 994.5 1084.5 c 128,-1,14
 990 1044 990 1044 983.5 1005 c 128,-1,15
 977 966 977 966 968 933 c 0,16,17
 950 862 950 862 911 801 c 128,-1,18
 872 740 872 740 807.5 695.5 c 128,-1,19
 743 651 743 651 650 625 c 128,-1,20
 557 599 557 599 430 599 c 1,21,-1
 367 32 l 2,22,23
 365 20 365 20 360.5 14 c 128,-1,24
 356 8 356 8 342 7 c 2,25,-1
 132 -4 l 1,26,27
 110 -2 110 -2 110 15 c 1,28,-1
 283 1528 l 2,0,1
455 830 m 1,29,30
 543 830 543 830 602 850 c 128,-1,31
 661 870 661 870 692 907 c 0,32,33
 710 928 710 928 721 960 c 128,-1,34
 732 992 732 992 738 1029 c 128,-1,35
 744 1066 744 1066 746 1106 c 128,-1,36
 748 1146 748 1146 748 1182 c 0,37,38
 748 1263 748 1263 705 1300.5 c 128,-1,39
 662 1338 662 1338 571 1338 c 0,40,41
 561 1338 561 1338 542.5 1337.5 c 128,-1,42
 524 1337 524 1337 512 1335 c 1,43,-1
 455 830 l 1,29,30
EndSplineSet
EndChar

StartChar: Q
Encoding: 81 81 46
Width: 1047
Flags: W
LayerCount: 2
Fore
SplineSet
138 348 m 0,0,1
 138 403 138 403 142 486.5 c 128,-1,2
 146 570 146 570 155 669.5 c 128,-1,3
 164 769 164 769 178.5 877 c 128,-1,4
 193 985 193 985 215 1090 c 0,5,6
 229 1156 229 1156 245.5 1218 c 128,-1,7
 262 1280 262 1280 285.5 1333.5 c 128,-1,8
 309 1387 309 1387 341 1431.5 c 128,-1,9
 373 1476 373 1476 417.5 1507.5 c 128,-1,10
 462 1539 462 1539 521 1556.5 c 128,-1,11
 580 1574 580 1574 658 1574 c 0,12,13
 743 1574 743 1574 806 1546 c 128,-1,14
 869 1518 869 1518 911 1469.5 c 128,-1,15
 953 1421 953 1421 973.5 1354 c 128,-1,16
 994 1287 994 1287 994 1209 c 0,17,18
 994 1154 994 1154 990 1070.5 c 128,-1,19
 986 987 986 987 977 888 c 128,-1,20
 968 789 968 789 953.5 681 c 128,-1,21
 939 573 939 573 918 468 c 0,22,23
 899 374 899 374 873.5 291 c 128,-1,24
 848 208 848 208 805.5 144.5 c 128,-1,25
 763 81 763 81 699.5 40 c 128,-1,26
 636 -1 636 -1 541 -11 c 1,27,28
 541 -44 541 -44 551.5 -64 c 128,-1,29
 562 -84 562 -84 578.5 -95 c 128,-1,30
 595 -106 595 -106 616 -110 c 128,-1,31
 637 -114 637 -114 658 -114 c 0,32,33
 682 -114 682 -114 712.5 -111.5 c 128,-1,34
 743 -109 743 -109 772 -104 c 256,35,36
 801 -99 801 -99 820.5 -97 c 128,-1,37
 840 -95 840 -95 848 -95 c 0,38,39
 861 -95 861 -95 866 -103 c 128,-1,40
 871 -111 871 -111 871 -119 c 2,41,-1
 854 -268 l 2,42,43
 853 -275 853 -275 849 -282.5 c 128,-1,44
 845 -290 845 -290 832 -294 c 1,45,46
 814 -298 814 -298 782.5 -303 c 128,-1,47
 751 -308 751 -308 715 -312 c 128,-1,48
 679 -316 679 -316 642.5 -318.5 c 128,-1,49
 606 -321 606 -321 577 -321 c 0,50,51
 515 -321 515 -321 472.5 -307.5 c 128,-1,52
 430 -294 430 -294 404 -270 c 128,-1,53
 378 -246 378 -246 366.5 -213.5 c 128,-1,54
 355 -181 355 -181 355 -143 c 0,55,56
 355 -111 355 -111 361.5 -76 c 128,-1,57
 368 -41 368 -41 380 -4 c 1,58,59
 318 10 318 10 272.5 42 c 128,-1,60
 227 74 227 74 197 119.5 c 128,-1,61
 167 165 167 165 152.5 223.5 c 128,-1,62
 138 282 138 282 138 348 c 0,0,1
393 371 m 0,63,64
 393 294 393 294 425.5 257.5 c 128,-1,65
 458 221 458 221 504 221 c 0,66,67
 564 221 564 221 605.5 274.5 c 128,-1,68
 647 328 647 328 667 455 c 0,69,70
 674 499 674 499 682 558.5 c 128,-1,71
 690 618 690 618 698 685.5 c 128,-1,72
 706 753 706 753 713.5 824 c 128,-1,73
 721 895 721 895 726.5 961.5 c 128,-1,74
 732 1028 732 1028 735.5 1086.5 c 128,-1,75
 739 1145 739 1145 739 1187 c 0,76,77
 739 1263 739 1263 707 1300.5 c 128,-1,78
 675 1338 675 1338 633 1338 c 0,79,80
 568 1338 568 1338 527.5 1284 c 128,-1,81
 487 1230 487 1230 465 1103 c 0,82,83
 457 1059 457 1059 449 999.5 c 128,-1,84
 441 940 441 940 433 872.5 c 128,-1,85
 425 805 425 805 417.5 734 c 128,-1,86
 410 663 410 663 404.5 596 c 128,-1,87
 399 529 399 529 396 471 c 128,-1,88
 393 413 393 413 393 371 c 0,63,64
EndSplineSet
EndChar

StartChar: R
Encoding: 82 82 47
Width: 1032
Flags: W
LayerCount: 2
Fore
SplineSet
283 1520 m 2,0,1
 285 1537 285 1537 292 1543.5 c 128,-1,2
 299 1550 299 1550 319 1552 c 0,3,4
 348 1555 348 1555 389.5 1557.5 c 128,-1,5
 431 1560 431 1560 476 1562.5 c 128,-1,6
 521 1565 521 1565 565 1566.5 c 128,-1,7
 609 1568 609 1568 645 1568 c 0,8,9
 739 1568 739 1568 807.5 1544 c 128,-1,10
 876 1520 876 1520 920 1477 c 128,-1,11
 964 1434 964 1434 985 1374.5 c 128,-1,12
 1006 1315 1006 1315 1006 1244 c 0,13,14
 1006 1152 1006 1152 987 1067 c 128,-1,15
 968 982 968 982 928 910.5 c 128,-1,16
 888 839 888 839 825 784 c 128,-1,17
 762 729 762 729 674 697 c 1,18,-1
 958 36 l 2,19,20
 961 30 961 30 961 24 c 0,21,22
 961 14 961 14 952.5 9 c 128,-1,23
 944 4 944 4 934 4 c 2,24,-1
 709 -4 l 1,25,26
 698 -3 698 -3 694 2 c 128,-1,27
 690 7 690 7 687 15 c 2,28,-1
 436 651 l 1,29,-1
 366 28 l 2,30,31
 364 16 364 16 359.5 10 c 128,-1,32
 355 4 355 4 341 3 c 2,33,-1
 132 -4 l 1,34,35
 110 -2 110 -2 110 15 c 1,36,-1
 283 1520 l 2,0,1
457 838 m 1,37,38
 542 844 542 844 598.5 878 c 128,-1,39
 655 912 655 912 689 963 c 128,-1,40
 723 1014 723 1014 736.5 1077 c 128,-1,41
 750 1140 750 1140 750 1203 c 0,42,43
 750 1269 750 1269 714 1304.5 c 128,-1,44
 678 1340 678 1340 608 1340 c 0,45,46
 600 1340 600 1340 588 1340 c 128,-1,47
 576 1340 576 1340 562.5 1339.5 c 128,-1,48
 549 1339 549 1339 536 1338 c 128,-1,49
 523 1337 523 1337 513 1335 c 1,50,-1
 457 838 l 1,37,38
EndSplineSet
EndChar

StartChar: S
Encoding: 83 83 48
Width: 714
Flags: W
LayerCount: 2
Fore
SplineSet
88 218 m 2,0,1
 90 229 90 229 95 234.5 c 128,-1,2
 100 240 100 240 114 242 c 0,3,4
 192 250 192 250 241.5 261 c 128,-1,5
 291 272 291 272 319.5 291.5 c 128,-1,6
 348 311 348 311 359 340.5 c 128,-1,7
 370 370 370 370 370 415 c 0,8,9
 370 487 370 487 349.5 571 c 128,-1,10
 329 655 329 655 300 746 c 0,11,12
 283 801 283 801 266 856.5 c 128,-1,13
 249 912 249 912 235.5 967.5 c 128,-1,14
 222 1023 222 1023 213.5 1076.5 c 128,-1,15
 205 1130 205 1130 205 1180 c 0,16,17
 205 1288 205 1288 240.5 1363.5 c 128,-1,18
 276 1439 276 1439 339 1485.5 c 128,-1,19
 402 1532 402 1532 489 1553 c 128,-1,20
 576 1574 576 1574 679 1574 c 0,21,22
 694 1574 694 1574 700 1567.5 c 128,-1,23
 706 1561 706 1561 706 1549 c 1,24,-1
 679 1342 l 2,25,26
 677 1328 677 1328 672.5 1322 c 128,-1,27
 668 1316 668 1316 654 1315 c 0,28,29
 550 1308 550 1308 505 1280 c 128,-1,30
 460 1252 460 1252 460 1200 c 0,31,32
 460 1166 460 1166 467 1123.5 c 128,-1,33
 474 1081 474 1081 486 1032.5 c 128,-1,34
 498 984 498 984 513 931.5 c 128,-1,35
 528 879 528 879 544 825 c 0,36,37
 560 772 560 772 574.5 720 c 128,-1,38
 589 668 589 668 600 618 c 128,-1,39
 611 568 611 568 618 522 c 128,-1,40
 625 476 625 476 625 436 c 0,41,42
 625 343 625 343 603.5 273.5 c 128,-1,43
 582 204 582 204 544.5 154 c 128,-1,44
 507 104 507 104 455.5 71 c 128,-1,45
 404 38 404 38 344.5 19 c 128,-1,46
 285 0 285 0 219.5 -7.5 c 128,-1,47
 154 -15 154 -15 88 -15 c 0,48,49
 74 -15 74 -15 68.5 -9 c 128,-1,50
 63 -3 63 -3 63 9 c 1,51,-1
 88 218 l 2,0,1
EndSplineSet
EndChar

StartChar: T
Encoding: 84 84 49
Width: 792
Flags: W
LayerCount: 2
Fore
SplineSet
377 1297 m 1,0,-1
 178 1291 l 1,1,2
 153 1292 153 1292 153 1314 c 1,3,-1
 178 1522 l 2,4,5
 179 1534 179 1534 184 1540 c 128,-1,6
 189 1546 189 1546 204 1547 c 2,7,-1
 852 1570 l 1,8,9
 875 1569 875 1569 875 1545 c 1,10,-1
 849 1340 l 2,11,12
 847 1326 847 1326 842.5 1319.5 c 128,-1,13
 838 1313 838 1313 824 1312 c 2,14,-1
 630 1305 l 1,15,-1
 484 28 l 2,16,17
 482 16 482 16 477 10 c 128,-1,18
 472 4 472 4 458 3 c 2,19,-1
 250 -4 l 2,20,21
 230 -4 230 -4 230 15 c 1,22,-1
 377 1297 l 1,0,-1
EndSplineSet
EndChar

StartChar: U
Encoding: 85 85 50
Width: 1063
Flags: W
LayerCount: 2
Fore
SplineSet
155 327 m 0,0,1
 155 350 155 350 156.5 393 c 128,-1,2
 158 436 158 436 165 496 c 2,3,-1
 283 1528 l 2,4,5
 285 1541 285 1541 289.5 1545.5 c 128,-1,6
 294 1550 294 1550 308 1551 c 2,7,-1
 510 1558 l 1,8,9
 535 1557 535 1557 535 1534 c 1,10,-1
 420 509 l 2,11,12
 417 487 417 487 414.5 462.5 c 128,-1,13
 412 438 412 438 410 416 c 128,-1,14
 408 394 408 394 407 376.5 c 128,-1,15
 406 359 406 359 406 351 c 0,16,17
 406 292 406 292 433.5 256.5 c 128,-1,18
 461 221 461 221 516 221 c 0,19,20
 553 221 553 221 579 238 c 128,-1,21
 605 255 605 255 623 288 c 128,-1,22
 641 321 641 321 651.5 370.5 c 128,-1,23
 662 420 662 420 670 486 c 2,24,-1
 787 1528 l 2,25,26
 789 1539 789 1539 794 1544.5 c 128,-1,27
 799 1550 799 1550 814 1551 c 2,28,-1
 1016 1559 l 1,29,30
 1041 1558 1041 1558 1041 1535 c 1,31,-1
 926 509 l 2,32,33
 912 391 912 391 885.5 294.5 c 128,-1,34
 859 198 859 198 808.5 129 c 128,-1,35
 758 60 758 60 679 22.5 c 128,-1,36
 600 -15 600 -15 482 -15 c 0,37,38
 408 -15 408 -15 348 6 c 128,-1,39
 288 27 288 27 245 69.5 c 128,-1,40
 202 112 202 112 178.5 176 c 128,-1,41
 155 240 155 240 155 327 c 0,0,1
EndSplineSet
EndChar

StartChar: V
Encoding: 86 86 51
Width: 918
Flags: W
LayerCount: 2
Fore
SplineSet
167 1527 m 2,0,1
 167 1539 167 1539 173 1544.5 c 128,-1,2
 179 1550 179 1550 194 1551 c 2,3,-1
 402 1558 l 2,4,5
 413 1558 413 1558 418.5 1552.5 c 128,-1,6
 424 1547 424 1547 424 1539 c 2,7,-1
 471 411 l 1,8,-1
 736 1527 l 2,9,10
 739 1539 739 1539 743 1544.5 c 128,-1,11
 747 1550 747 1550 760 1551 c 2,12,-1
 967 1559 l 2,13,14
 978 1559 978 1559 983.5 1553.5 c 128,-1,15
 989 1548 989 1548 989 1540 c 1,16,-1
 550 28 l 2,17,18
 543 4 543 4 526 4 c 2,19,-1
 305 -4 l 1,20,21
 294 -3 294 -3 289 4 c 128,-1,22
 284 11 284 11 283 21 c 2,23,-1
 167 1527 l 2,0,1
EndSplineSet
EndChar

StartChar: W
Encoding: 87 87 52
Width: 1376
Flags: W
LayerCount: 2
Fore
SplineSet
187 1527 m 2,0,1
 187 1539 187 1539 193 1544.5 c 128,-1,2
 199 1550 199 1550 214 1551 c 2,3,-1
 422 1558 l 2,4,5
 433 1558 433 1558 438.5 1552.5 c 128,-1,6
 444 1547 444 1547 444 1539 c 2,7,-1
 458 364 l 1,8,-1
 712 1527 l 2,9,10
 714 1539 714 1539 721 1544 c 128,-1,11
 728 1549 728 1549 743 1551 c 1,12,-1
 922 1558 l 2,13,14
 932 1558 932 1558 938 1552.5 c 128,-1,15
 944 1547 944 1547 944 1539 c 2,16,-1
 956 383 l 1,17,-1
 1204 1527 l 1,18,19
 1208 1539 1208 1539 1212 1544.5 c 128,-1,20
 1216 1550 1216 1550 1228 1551 c 2,21,-1
 1417 1558 l 1,22,23
 1437 1556 1437 1556 1437 1539 c 1,24,-1
 1035 29 l 2,25,26
 1031 16 1031 16 1027 11 c 128,-1,27
 1023 6 1023 6 1013 5 c 2,28,-1
 782 -4 l 1,29,30
 770 -3 770 -3 765 4 c 128,-1,31
 760 11 760 11 760 21 c 2,32,-1
 751 958 l 1,33,-1
 558 28 l 2,34,35
 552 4 552 4 534 4 c 2,36,-1
 294 -4 l 1,37,38
 282 -3 282 -3 277 4 c 128,-1,39
 272 11 272 11 271 21 c 2,40,-1
 187 1527 l 2,0,1
EndSplineSet
EndChar

StartChar: X
Encoding: 88 88 53
Width: 943
Flags: W
LayerCount: 2
Fore
SplineSet
378 846 m 1,0,-1
 174 1528 l 1,1,2
 174 1539 174 1539 179.5 1544.5 c 128,-1,3
 185 1550 185 1550 199 1551 c 2,4,-1
 406 1558 l 1,5,6
 420 1557 420 1557 424.5 1550.5 c 128,-1,7
 429 1544 429 1544 432 1534 c 2,8,-1
 565 1047 l 1,9,-1
 762 1528 l 2,10,11
 767 1539 767 1539 772 1544.5 c 128,-1,12
 777 1550 777 1550 789 1551 c 2,13,-1
 989 1559 l 1,14,15
 1014 1558 1014 1558 1014 1535 c 1,16,-1
 665 766 l 1,17,-1
 881 32 l 2,18,19
 882 29 882 29 882 23 c 0,20,21
 882 6 882 6 857 4 c 1,22,-1
 644 -4 l 1,23,24
 633 -3 633 -3 629 2 c 128,-1,25
 625 7 625 7 622 15 c 2,26,-1
 480 555 l 1,27,-1
 270 32 l 2,28,29
 265 21 265 21 259.5 12.5 c 128,-1,30
 254 4 254 4 242 3 c 2,31,-1
 36 -4 l 2,32,33
 15 -4 15 -4 15 15 c 1,34,-1
 378 846 l 1,0,-1
EndSplineSet
EndChar

StartChar: Y
Encoding: 89 89 54
Width: 897
Flags: W
LayerCount: 2
Fore
SplineSet
356 679 m 1,0,-1
 152 1535 l 1,1,2
 152 1549 152 1549 179 1551 c 2,3,-1
 382 1559 l 1,4,5
 404 1558 404 1558 408 1539 c 2,6,-1
 522 968 l 1,7,-1
 727 1528 l 2,8,9
 731 1539 731 1539 736 1544.5 c 128,-1,10
 741 1550 741 1550 752 1551 c 2,11,-1
 958 1558 l 1,12,13
 971 1557 971 1557 978 1550 c 128,-1,14
 985 1543 985 1543 985 1535 c 1,15,-1
 612 701 l 1,16,-1
 535 28 l 2,17,18
 533 16 533 16 528 10 c 128,-1,19
 523 4 523 4 509 3 c 2,20,-1
 303 -4 l 2,21,22
 281 -4 281 -4 281 15 c 1,23,-1
 356 679 l 1,0,-1
EndSplineSet
EndChar

StartChar: Z
Encoding: 90 90 55
Width: 869
Flags: W
LayerCount: 2
Fore
SplineSet
541 1305 m 1,0,-1
 241 1295 l 1,1,2
 216 1296 216 1296 216 1317 c 1,3,-1
 241 1528 l 2,4,5
 243 1539 243 1539 248 1544 c 128,-1,6
 253 1549 253 1549 267 1551 c 1,7,-1
 875 1574 l 1,8,9
 899 1572 899 1572 899 1547 c 1,10,-1
 402 265 l 1,11,-1
 727 276 l 1,12,13
 751 274 751 274 751 251 c 1,14,-1
 727 43 l 2,15,16
 725 30 725 30 720 25 c 128,-1,17
 715 20 715 20 701 18 c 1,18,-1
 62 -4 l 2,19,20
 40 -4 40 -4 40 15 c 1,21,-1
 541 1305 l 1,0,-1
EndSplineSet
EndChar

StartChar: ampersand
Encoding: 38 38 56
Width: 1055
Flags: W
LayerCount: 2
Fore
SplineSet
73 318 m 0,0,1
 73 401 73 401 98.5 472 c 128,-1,2
 124 543 124 543 167 604.5 c 128,-1,3
 210 666 210 666 265.5 720 c 128,-1,4
 321 774 321 774 381 822 c 1,5,6
 339 930 339 930 313 1028.5 c 128,-1,7
 287 1127 287 1127 287 1212 c 0,8,9
 287 1296 287 1296 310 1368.5 c 128,-1,10
 333 1441 333 1441 379 1493.5 c 128,-1,11
 425 1546 425 1546 493.5 1576 c 128,-1,12
 562 1606 562 1606 654 1606 c 0,13,14
 723 1606 723 1606 780.5 1582 c 128,-1,15
 838 1558 838 1558 879.5 1516 c 128,-1,16
 921 1474 921 1474 944 1415.5 c 128,-1,17
 967 1357 967 1357 967 1288 c 0,18,19
 967 1212 967 1212 942 1146 c 128,-1,20
 917 1080 917 1080 875 1022 c 128,-1,21
 833 964 833 964 778 912 c 128,-1,22
 723 860 723 860 663 812 c 1,23,24
 692 747 692 747 727 676 c 128,-1,25
 762 605 762 605 799 533.5 c 128,-1,26
 836 462 836 462 873.5 392.5 c 128,-1,27
 911 323 911 323 945 261 c 128,-1,28
 979 199 979 199 1008.5 147.5 c 128,-1,29
 1038 96 1038 96 1060 60 c 0,30,31
 1069 45 1069 45 1069 31 c 0,32,33
 1069 6 1069 6 1043 5 c 2,34,-1
 811 -4 l 1,35,36
 800 -3 800 -3 794 2 c 128,-1,37
 788 7 788 7 784 15 c 0,38,39
 748 81 748 81 707.5 155.5 c 128,-1,40
 667 230 667 230 626 308.5 c 128,-1,41
 585 387 585 387 543.5 469.5 c 128,-1,42
 502 552 502 552 463 635 c 1,43,44
 404 571 404 571 366 502.5 c 128,-1,45
 328 434 328 434 328 357 c 0,46,47
 328 321 328 321 338 298 c 128,-1,48
 348 275 348 275 364.5 262 c 128,-1,49
 381 249 381 249 402.5 244 c 128,-1,50
 424 239 424 239 447 239 c 0,51,52
 468 239 468 239 493 240 c 128,-1,53
 518 241 518 241 540.5 241.5 c 128,-1,54
 563 242 563 242 581 243 c 128,-1,55
 599 244 599 244 607 244 c 0,56,57
 619 244 619 244 623 236 c 128,-1,58
 627 228 627 228 627 217 c 1,59,-1
 604 25 l 2,60,61
 602 13 602 13 597.5 7 c 128,-1,62
 593 1 593 1 579 -1 c 0,63,64
 526 -6 526 -6 480 -8.5 c 128,-1,65
 434 -11 434 -11 384 -11 c 0,66,67
 302 -11 302 -11 243.5 16 c 128,-1,68
 185 43 185 43 147 89 c 128,-1,69
 109 135 109 135 91 194 c 128,-1,70
 73 253 73 253 73 318 c 0,0,1
586 1000 m 1,71,72
 648 1069 648 1069 685 1138 c 128,-1,73
 722 1207 722 1207 722 1270 c 0,74,75
 722 1316 722 1316 700 1347 c 128,-1,76
 678 1378 678 1378 633 1378 c 0,77,78
 604 1378 604 1378 585 1366.5 c 128,-1,79
 566 1355 566 1355 554.5 1335.5 c 128,-1,80
 543 1316 543 1316 538 1290 c 128,-1,81
 533 1264 533 1264 533 1236 c 0,82,83
 533 1189 533 1189 547 1129 c 128,-1,84
 561 1069 561 1069 586 1000 c 1,71,72
EndSplineSet
EndChar

StartChar: zero
Encoding: 48 48 57
Width: 964
Flags: W
LayerCount: 2
Fore
SplineSet
117 369 m 0,0,1
 117 399 117 399 120 468.5 c 128,-1,2
 123 538 123 538 132 636.5 c 128,-1,3
 141 735 141 735 156 856.5 c 128,-1,4
 171 978 171 978 195 1112 c 0,5,6
 207 1181 207 1181 221.5 1245 c 128,-1,7
 236 1309 236 1309 255.5 1364 c 128,-1,8
 275 1419 275 1419 303.5 1463.5 c 128,-1,9
 332 1508 332 1508 372.5 1539.5 c 128,-1,10
 413 1571 413 1571 468.5 1588.5 c 128,-1,11
 524 1606 524 1606 599 1606 c 0,12,13
 685 1606 685 1606 742 1576 c 128,-1,14
 799 1546 799 1546 833.5 1493.5 c 128,-1,15
 868 1441 868 1441 882 1369 c 128,-1,16
 896 1297 896 1297 896 1214 c 0,17,18
 896 1181 896 1181 892.5 1111 c 128,-1,19
 889 1041 889 1041 880.5 944 c 128,-1,20
 872 847 872 847 857.5 728 c 128,-1,21
 843 609 843 609 820 478 c 0,22,23
 802 374 802 374 778.5 284 c 128,-1,24
 755 194 755 194 712 127.5 c 128,-1,25
 669 61 669 61 598.5 23 c 128,-1,26
 528 -15 528 -15 416 -15 c 0,27,28
 332 -15 332 -15 274.5 14.5 c 128,-1,29
 217 44 217 44 182 96 c 128,-1,30
 147 148 147 148 132 218 c 128,-1,31
 117 288 117 288 117 369 c 0,0,1
446 226 m 0,32,33
 488 226 488 226 517.5 280.5 c 128,-1,34
 547 335 547 335 570 464 c 0,35,36
 578 509 578 509 586.5 569.5 c 128,-1,37
 595 630 595 630 603 699 c 128,-1,38
 611 768 611 768 617.5 840.5 c 128,-1,39
 624 913 624 913 629.5 981 c 128,-1,40
 635 1049 635 1049 638 1108.5 c 128,-1,41
 641 1168 641 1168 641 1211 c 0,42,43
 641 1238 641 1238 637.5 1265.5 c 128,-1,44
 634 1293 634 1293 626 1315 c 128,-1,45
 618 1337 618 1337 603.5 1351 c 128,-1,46
 589 1365 589 1365 568 1365 c 0,47,48
 526 1365 526 1365 496.5 1310 c 128,-1,49
 467 1255 467 1255 445 1126 c 0,50,51
 437 1081 437 1081 428.5 1020 c 128,-1,52
 420 959 420 959 412 890 c 128,-1,53
 404 821 404 821 397 748.5 c 128,-1,54
 390 676 390 676 384.5 608 c 128,-1,55
 379 540 379 540 376 480.5 c 128,-1,56
 373 421 373 421 373 379 c 0,57,58
 373 351 373 351 376.5 323.5 c 128,-1,59
 380 296 380 296 388 274.5 c 128,-1,60
 396 253 396 253 410.5 239.5 c 128,-1,61
 425 226 425 226 446 226 c 0,32,33
EndSplineSet
EndChar

StartChar: one
Encoding: 49 49 58
Width: 964
Flags: W
LayerCount: 2
Fore
SplineSet
147 213 m 2,0,1
 149 224 149 224 152.5 230.5 c 128,-1,2
 156 237 156 237 173 238 c 2,3,-1
 330 244 l 1,4,-1
 452 1321 l 1,5,-1
 297 1316 l 1,6,7
 272 1317 272 1317 272 1339 c 0,8,9
 272 1344 272 1344 278 1360.5 c 128,-1,10
 284 1377 284 1377 293 1399.5 c 128,-1,11
 302 1422 302 1422 313 1447.5 c 128,-1,12
 324 1473 324 1473 334 1496 c 128,-1,13
 344 1519 344 1519 352 1536 c 128,-1,14
 360 1553 360 1553 363 1559 c 0,15,16
 368 1568 368 1568 375 1574.5 c 128,-1,17
 382 1581 382 1581 399 1583 c 1,18,-1
 713 1594 l 2,19,20
 732 1594 732 1594 732 1568 c 1,21,-1
 583 253 l 1,22,-1
 750 260 l 1,23,24
 764 259 764 259 769 252.5 c 128,-1,25
 774 246 774 246 774 235 c 1,26,-1
 750 43 l 2,27,28
 748 30 748 30 743.5 23.5 c 128,-1,29
 739 17 739 17 725 16 c 2,30,-1
 149 -4 l 1,31,32
 124 -3 124 -3 124 20 c 1,33,-1
 147 213 l 2,0,1
EndSplineSet
EndChar

StartChar: two
Encoding: 50 50 59
Width: 964
Flags: W
LayerCount: 2
Fore
SplineSet
127 75 m 2,0,1
 127 188 127 188 157 294.5 c 128,-1,2
 187 401 187 401 234 500.5 c 128,-1,3
 281 600 281 600 338 691 c 128,-1,4
 395 782 395 782 449 865 c 0,5,6
 481 914 481 914 508.5 960.5 c 128,-1,7
 536 1007 536 1007 556.5 1050 c 128,-1,8
 577 1093 577 1093 588.5 1131.5 c 128,-1,9
 600 1170 600 1170 600 1205 c 0,10,11
 600 1250 600 1250 590.5 1278.5 c 128,-1,12
 581 1307 581 1307 565 1324 c 128,-1,13
 549 1341 549 1341 527.5 1347.5 c 128,-1,14
 506 1354 506 1354 481 1354 c 0,15,16
 459 1354 459 1354 423.5 1349.5 c 128,-1,17
 388 1345 388 1345 353 1340 c 0,18,19
 321 1335 321 1335 295 1331 c 128,-1,20
 269 1327 269 1327 261 1327 c 0,21,22
 248 1327 248 1327 243.5 1334.5 c 128,-1,23
 239 1342 239 1342 239 1354 c 1,24,-1
 263 1542 l 2,25,26
 265 1555 265 1555 269.5 1560 c 128,-1,27
 274 1565 274 1565 288 1569 c 0,28,29
 315 1576 315 1576 349 1581.5 c 128,-1,30
 383 1587 383 1587 418 1591 c 128,-1,31
 453 1595 453 1595 486 1597.5 c 128,-1,32
 519 1600 519 1600 544 1600 c 0,33,34
 616 1600 616 1600 673.5 1575 c 128,-1,35
 731 1550 731 1550 771.5 1505 c 128,-1,36
 812 1460 812 1460 834 1398 c 128,-1,37
 856 1336 856 1336 856 1262 c 0,38,39
 856 1185 856 1185 837.5 1112 c 128,-1,40
 819 1039 819 1039 787.5 969 c 128,-1,41
 756 899 756 899 715 831.5 c 128,-1,42
 674 764 674 764 629 700 c 0,43,44
 591 645 591 645 555.5 591 c 128,-1,45
 520 537 520 537 490 483.5 c 128,-1,46
 460 430 460 430 437 376 c 128,-1,47
 414 322 414 322 401 268 c 1,48,-1
 760 283 l 1,49,50
 774 282 774 282 779 275 c 128,-1,51
 784 268 784 268 784 256 c 1,52,-1
 760 45 l 2,53,54
 758 30 758 30 751 25 c 128,-1,55
 744 20 744 20 733 18 c 1,56,-1
 152 -4 l 1,57,58
 136 -3 136 -3 131.5 3 c 128,-1,59
 127 9 127 9 127 23 c 2,60,-1
 127 75 l 2,0,1
EndSplineSet
EndChar

StartChar: three
Encoding: 51 51 60
Width: 964
Flags: W
LayerCount: 2
Fore
SplineSet
149 219 m 2,0,1
 151 230 151 230 154 237 c 128,-1,2
 157 244 157 244 171 244 c 0,3,4
 178 244 178 244 198.5 242 c 128,-1,5
 219 240 219 240 246 237 c 0,6,7
 279 233 279 233 314.5 230 c 128,-1,8
 350 227 350 227 370 227 c 0,9,10
 412 227 412 227 452 242 c 128,-1,11
 492 257 492 257 523.5 290 c 128,-1,12
 555 323 555 323 574.5 376.5 c 128,-1,13
 594 430 594 430 594 507 c 0,14,15
 594 565 594 565 584 601.5 c 128,-1,16
 574 638 574 638 556 658.5 c 128,-1,17
 538 679 538 679 514 686.5 c 128,-1,18
 490 694 490 694 463 694 c 0,19,20
 440 694 440 694 413 692.5 c 128,-1,21
 386 691 386 691 360 689 c 0,22,23
 337 687 337 687 320 685.5 c 128,-1,24
 303 684 303 684 296 684 c 0,25,26
 283 684 283 684 278.5 692 c 128,-1,27
 274 700 274 700 274 710 c 1,28,-1
 294 872 l 2,29,30
 296 883 296 883 300 889.5 c 128,-1,31
 304 896 304 896 318 898 c 0,32,33
 355 904 355 904 392 911 c 128,-1,34
 429 918 429 918 462 930.5 c 128,-1,35
 495 943 495 943 523 963 c 128,-1,36
 551 983 551 983 571.5 1015 c 128,-1,37
 592 1047 592 1047 603.5 1093.5 c 128,-1,38
 615 1140 615 1140 615 1205 c 0,39,40
 615 1250 615 1250 605.5 1278.5 c 128,-1,41
 596 1307 596 1307 580 1324 c 128,-1,42
 564 1341 564 1341 542 1347.5 c 128,-1,43
 520 1354 520 1354 496 1354 c 0,44,45
 474 1354 474 1354 438.5 1349.5 c 128,-1,46
 403 1345 403 1345 368 1340 c 0,47,48
 335 1335 335 1335 309 1331 c 128,-1,49
 283 1327 283 1327 275 1327 c 0,50,51
 263 1327 263 1327 258.5 1334.5 c 128,-1,52
 254 1342 254 1342 254 1354 c 1,53,-1
 277 1542 l 2,54,55
 279 1555 279 1555 284 1560.5 c 128,-1,56
 289 1566 289 1566 303 1569 c 0,57,58
 330 1575 330 1575 364 1581 c 128,-1,59
 398 1587 398 1587 433 1591 c 128,-1,60
 468 1595 468 1595 501.5 1597.5 c 128,-1,61
 535 1600 535 1600 559 1600 c 0,62,63
 640 1600 640 1600 698.5 1573 c 128,-1,64
 757 1546 757 1546 795.5 1501 c 128,-1,65
 834 1456 834 1456 852.5 1397 c 128,-1,66
 871 1338 871 1338 871 1275 c 0,67,68
 871 1238 871 1238 867.5 1194.5 c 128,-1,69
 864 1151 864 1151 852.5 1105.5 c 128,-1,70
 841 1060 841 1060 818 1016 c 128,-1,71
 795 972 795 972 755.5 935 c 128,-1,72
 716 898 716 898 658.5 871 c 128,-1,73
 601 844 601 844 519 832 c 1,74,75
 537 834 537 834 556 835.5 c 128,-1,76
 575 837 575 837 606 837 c 0,77,78
 675 837 675 837 721 817.5 c 128,-1,79
 767 798 767 798 795.5 761.5 c 128,-1,80
 824 725 824 725 836 673.5 c 128,-1,81
 848 622 848 622 848 558 c 256,82,83
 848 494 848 494 837 427 c 128,-1,84
 826 360 826 360 801.5 296.5 c 128,-1,85
 777 233 777 233 738.5 177.5 c 128,-1,86
 700 122 700 122 645 80 c 128,-1,87
 590 38 590 38 517 13.5 c 128,-1,88
 444 -11 444 -11 351 -11 c 0,89,90
 284 -11 284 -11 232.5 -7 c 128,-1,91
 181 -3 181 -3 157 0 c 0,92,93
 141 2 141 2 133.5 6 c 128,-1,94
 126 10 126 10 126 30 c 1,95,-1
 149 219 l 2,0,1
EndSplineSet
EndChar

StartChar: four
Encoding: 52 52 61
Width: 964
Flags: W
LayerCount: 2
Fore
SplineSet
66 397 m 2,0,1
 58 397 58 397 48 400.5 c 128,-1,2
 38 404 38 404 38 415 c 0,3,4
 38 423 38 423 42.5 433 c 128,-1,5
 47 443 47 443 51 453 c 2,6,-1
 522 1558 l 2,7,8
 528 1573 528 1573 538.5 1577.5 c 128,-1,9
 549 1582 549 1582 569 1583 c 2,10,-1
 818 1596 l 1,11,12
 844 1595 844 1595 844 1571 c 1,13,-1
 739 649 l 1,14,-1
 895 653 l 1,15,16
 909 652 909 652 914 645.5 c 128,-1,17
 919 639 919 639 919 626 c 1,18,-1
 899 450 l 2,19,20
 897 437 897 437 892.5 431.5 c 128,-1,21
 888 426 888 426 874 425 c 2,22,-1
 713 419 l 1,23,-1
 670 33 l 2,24,25
 668 20 668 20 663 14 c 128,-1,26
 658 8 658 8 643 7 c 2,27,-1
 437 -4 l 1,28,29
 416 -4 416 -4 416 15 c 1,30,-1
 476 411 l 1,31,-1
 66 397 l 2,0,1
508 642 m 1,32,-1
 585 1248 l 1,33,-1
 351 638 l 1,34,-1
 508 642 l 1,32,-1
EndSplineSet
EndChar

StartChar: five
Encoding: 53 53 62
Width: 964
Flags: W
LayerCount: 2
Fore
SplineSet
165 219 m 2,0,1
 167 230 167 230 172 237 c 128,-1,2
 177 244 177 244 191 244 c 0,3,4
 198 244 198 244 220 242 c 128,-1,5
 242 240 242 240 272 236 c 0,6,7
 305 231 305 231 338.5 229 c 128,-1,8
 372 227 372 227 392 227 c 0,9,10
 456 227 456 227 498.5 247 c 128,-1,11
 541 267 541 267 566 307 c 128,-1,12
 591 347 591 347 601 405.5 c 128,-1,13
 611 464 611 464 611 541 c 0,14,15
 611 584 611 584 604.5 620.5 c 128,-1,16
 598 657 598 657 580.5 683.5 c 128,-1,17
 563 710 563 710 532 725 c 128,-1,18
 501 740 501 740 452 740 c 0,19,20
 415 740 415 740 379.5 735 c 128,-1,21
 344 730 344 730 313 724 c 0,22,23
 283 718 283 718 260.5 714.5 c 128,-1,24
 238 711 238 711 222 711 c 0,25,26
 211 711 211 711 205.5 718.5 c 128,-1,27
 200 726 200 726 200 738 c 1,28,-1
 293 1559 l 2,29,30
 295 1570 295 1570 300 1576 c 128,-1,31
 305 1582 305 1582 320 1583 c 2,32,-1
 863 1602 l 1,33,34
 889 1601 889 1601 889 1575 c 1,35,-1
 861 1362 l 2,36,37
 859 1347 859 1347 852.5 1342 c 128,-1,38
 846 1337 846 1337 834 1336 c 2,39,-1
 494 1331 l 1,40,-1
 454 952 l 1,41,42
 492 959 492 959 534 965 c 128,-1,43
 576 971 576 971 620 971 c 0,44,45
 692 971 692 971 739 935.5 c 128,-1,46
 786 900 786 900 813.5 843.5 c 128,-1,47
 841 787 841 787 852.5 717 c 128,-1,48
 864 647 864 647 864 577 c 0,49,50
 864 454 864 454 837 346.5 c 128,-1,51
 810 239 810 239 751 159.5 c 128,-1,52
 692 80 692 80 597 34.5 c 128,-1,53
 502 -11 502 -11 367 -11 c 0,54,55
 345 -11 345 -11 319 -10.5 c 128,-1,56
 293 -10 293 -10 266.5 -8.5 c 128,-1,57
 240 -7 240 -7 215.5 -5 c 128,-1,58
 191 -3 191 -3 173 0 c 0,59,60
 157 2 157 2 149.5 6 c 128,-1,61
 142 10 142 10 142 30 c 1,62,-1
 165 219 l 2,0,1
EndSplineSet
EndChar

StartChar: six
Encoding: 54 54 63
Width: 964
Flags: W
LayerCount: 2
Fore
SplineSet
466 -15 m 0,0,1
 372 -15 372 -15 308 16.5 c 128,-1,2
 244 48 244 48 204.5 107.5 c 128,-1,3
 165 167 165 167 147.5 253 c 128,-1,4
 130 339 130 339 130 449 c 0,5,6
 130 530 130 530 137 629.5 c 128,-1,7
 144 729 144 729 156 829 c 128,-1,8
 168 929 168 929 183 1020.5 c 128,-1,9
 198 1112 198 1112 213 1178 c 0,10,11
 224 1228 224 1228 239.5 1278.5 c 128,-1,12
 255 1329 255 1329 277.5 1376 c 128,-1,13
 300 1423 300 1423 333 1464 c 128,-1,14
 366 1505 366 1505 412.5 1535 c 128,-1,15
 459 1565 459 1565 522 1582.5 c 128,-1,16
 585 1600 585 1600 669 1600 c 0,17,18
 720 1600 720 1600 760 1596 c 128,-1,19
 800 1592 800 1592 837 1585 c 0,20,21
 852 1583 852 1583 859.5 1578 c 128,-1,22
 867 1573 867 1573 867 1557 c 1,23,-1
 844 1366 l 2,24,25
 841 1344 841 1344 823 1344 c 0,26,27
 815 1344 815 1344 793.5 1346.5 c 128,-1,28
 772 1349 772 1349 749 1352 c 0,29,30
 720 1356 720 1356 690 1359 c 128,-1,31
 660 1362 660 1362 642 1362 c 0,32,33
 600 1362 600 1362 568.5 1353 c 128,-1,34
 537 1344 537 1344 513.5 1320.5 c 128,-1,35
 490 1297 490 1297 473.5 1255.5 c 128,-1,36
 457 1214 457 1214 444 1148 c 0,37,38
 437 1111 437 1111 429.5 1060.5 c 128,-1,39
 422 1010 422 1010 415 950 c 1,40,41
 451 972 451 972 499 990 c 128,-1,42
 547 1008 547 1008 591 1008 c 0,43,44
 675 1008 675 1008 731.5 978 c 128,-1,45
 788 948 788 948 822.5 893 c 128,-1,46
 857 838 857 838 871.5 760.5 c 128,-1,47
 886 683 886 683 886 589 c 0,48,49
 886 514 886 514 879 440.5 c 128,-1,50
 872 367 872 367 854 299.5 c 128,-1,51
 836 232 836 232 805 174.5 c 128,-1,52
 774 117 774 117 727.5 75 c 128,-1,53
 681 33 681 33 616.5 9 c 128,-1,54
 552 -15 552 -15 466 -15 c 0,0,1
507 197 m 0,55,56
 553 197 553 197 581 231.5 c 128,-1,57
 609 266 609 266 624 321.5 c 128,-1,58
 639 377 639 377 644 445.5 c 128,-1,59
 649 514 649 514 649 583 c 0,60,61
 649 631 649 631 641.5 671 c 128,-1,62
 634 711 634 711 616 740 c 128,-1,63
 598 769 598 769 568 785 c 128,-1,64
 538 801 538 801 493 801 c 0,65,66
 465 801 465 801 442.5 796.5 c 128,-1,67
 420 792 420 792 397 784 c 1,68,69
 389 698 389 698 384.5 611 c 128,-1,70
 380 524 380 524 380 446 c 0,71,72
 380 408 380 408 383 364.5 c 128,-1,73
 386 321 386 321 399 283.5 c 128,-1,74
 412 246 412 246 437 221.5 c 128,-1,75
 462 197 462 197 507 197 c 0,55,56
EndSplineSet
EndChar

StartChar: seven
Encoding: 55 55 64
Width: 964
Flags: W
LayerCount: 2
Fore
SplineSet
642 1335 m 1,0,-1
 228 1316 l 1,1,2
 214 1317 214 1317 208.5 1323.5 c 128,-1,3
 203 1330 203 1330 203 1341 c 0,4,5
 203 1345 203 1345 206.5 1361.5 c 128,-1,6
 210 1378 210 1378 215 1400 c 128,-1,7
 220 1422 220 1422 226.5 1447.5 c 128,-1,8
 233 1473 233 1473 238.5 1496 c 128,-1,9
 244 1519 244 1519 248.5 1536 c 128,-1,10
 253 1553 253 1553 255 1559 c 0,11,12
 259 1569 259 1569 267 1575.5 c 128,-1,13
 275 1582 275 1582 291 1583 c 2,14,-1
 911 1605 l 1,15,16
 922 1604 922 1604 927.5 1596.5 c 128,-1,17
 933 1589 933 1589 934 1578 c 1,18,-1
 907 1366 l 1,19,-1
 505 27 l 2,20,21
 502 16 502 16 497 10.5 c 128,-1,22
 492 5 492 5 480 4 c 2,23,-1
 264 -4 l 1,24,25
 242 -2 242 -2 242 15 c 1,26,-1
 642 1335 l 1,0,-1
EndSplineSet
EndChar

StartChar: eight
Encoding: 56 56 65
Width: 964
Flags: W
LayerCount: 2
Fore
SplineSet
97 366 m 0,0,1
 97 527 97 527 162.5 655.5 c 128,-1,2
 228 784 228 784 363 872 c 1,3,4
 330 906 330 906 302.5 942 c 128,-1,5
 275 978 275 978 255.5 1018 c 128,-1,6
 236 1058 236 1058 225.5 1103.5 c 128,-1,7
 215 1149 215 1149 215 1202 c 0,8,9
 215 1308 215 1308 247 1384.5 c 128,-1,10
 279 1461 279 1461 331.5 1510 c 128,-1,11
 384 1559 384 1559 451 1582.5 c 128,-1,12
 518 1606 518 1606 588 1606 c 0,13,14
 676 1606 676 1606 739 1581 c 128,-1,15
 802 1556 802 1556 842.5 1512 c 128,-1,16
 883 1468 883 1468 902 1407.5 c 128,-1,17
 921 1347 921 1347 921 1276 c 0,18,19
 921 1230 921 1230 907 1173 c 128,-1,20
 893 1116 893 1116 865 1056.5 c 128,-1,21
 837 997 837 997 794.5 939.5 c 128,-1,22
 752 882 752 882 694 836 c 1,23,24
 737 799 737 799 772.5 759 c 128,-1,25
 808 719 808 719 833 675 c 128,-1,26
 858 631 858 631 871.5 582.5 c 128,-1,27
 885 534 885 534 885 480 c 0,28,29
 885 369 885 369 860 277.5 c 128,-1,30
 835 186 835 186 781.5 121 c 128,-1,31
 728 56 728 56 644 20.5 c 128,-1,32
 560 -15 560 -15 442 -15 c 0,33,34
 345 -15 345 -15 279 16.5 c 128,-1,35
 213 48 213 48 172.5 101 c 128,-1,36
 132 154 132 154 114.5 223 c 128,-1,37
 97 292 97 292 97 366 c 0,0,1
553 942 m 1,38,39
 578 965 578 965 600.5 996.5 c 128,-1,40
 623 1028 623 1028 640.5 1065.5 c 128,-1,41
 658 1103 658 1103 668 1146 c 128,-1,42
 678 1189 678 1189 678 1236 c 0,43,44
 678 1308 678 1308 649.5 1351 c 128,-1,45
 621 1394 621 1394 575 1394 c 0,46,47
 509 1394 509 1394 478 1334 c 128,-1,48
 447 1274 447 1274 447 1161 c 0,49,50
 447 1087 447 1087 473.5 1036.5 c 128,-1,51
 500 986 500 986 553 942 c 1,38,39
329 402 m 0,52,53
 329 360 329 360 337.5 324.5 c 128,-1,54
 346 289 346 289 364 264 c 128,-1,55
 382 239 382 239 410 225 c 128,-1,56
 438 211 438 211 477 211 c 0,57,58
 559 211 559 211 596.5 274 c 128,-1,59
 634 337 634 337 634 448 c 0,60,61
 634 504 634 504 622 549.5 c 128,-1,62
 610 595 610 595 590 632.5 c 128,-1,63
 570 670 570 670 544 700 c 128,-1,64
 518 730 518 730 491 756 c 1,65,66
 449 723 449 723 418.5 680.5 c 128,-1,67
 388 638 388 638 368 591 c 128,-1,68
 348 544 348 544 338.5 495.5 c 128,-1,69
 329 447 329 447 329 402 c 0,52,53
EndSplineSet
EndChar

StartChar: nine
Encoding: 57 57 66
Width: 964
Flags: W
LayerCount: 2
Fore
SplineSet
212 225 m 2,0,1
 215 247 215 247 233 247 c 0,2,3
 241 247 241 247 262.5 244.5 c 128,-1,4
 284 242 284 242 307 239 c 0,5,6
 336 235 336 235 366 232 c 128,-1,7
 396 229 396 229 414 229 c 0,8,9
 456 229 456 229 487.5 238 c 128,-1,10
 519 247 519 247 542.5 270.5 c 128,-1,11
 566 294 566 294 582.5 335.5 c 128,-1,12
 599 377 599 377 612 443 c 0,13,14
 619 480 619 480 626.5 530.5 c 128,-1,15
 634 581 634 581 641 641 c 1,16,17
 605 619 605 619 557 601 c 128,-1,18
 509 583 509 583 465 583 c 0,19,20
 381 583 381 583 324.5 613 c 128,-1,21
 268 643 268 643 233.5 698 c 128,-1,22
 199 753 199 753 184.5 830.5 c 128,-1,23
 170 908 170 908 170 1002 c 0,24,25
 170 1077 170 1077 177 1150.5 c 128,-1,26
 184 1224 184 1224 202 1291.5 c 128,-1,27
 220 1359 220 1359 251 1416.5 c 128,-1,28
 282 1474 282 1474 328.5 1516 c 128,-1,29
 375 1558 375 1558 439.5 1582 c 128,-1,30
 504 1606 504 1606 590 1606 c 0,31,32
 684 1606 684 1606 748 1574.5 c 128,-1,33
 812 1543 812 1543 851.5 1483.5 c 128,-1,34
 891 1424 891 1424 908.5 1338 c 128,-1,35
 926 1252 926 1252 926 1142 c 0,36,37
 926 1061 926 1061 919 961.5 c 128,-1,38
 912 862 912 862 900 762 c 128,-1,39
 888 662 888 662 873 570.5 c 128,-1,40
 858 479 858 479 843 413 c 0,41,42
 831 363 831 363 816 312.5 c 128,-1,43
 801 262 801 262 778.5 215 c 128,-1,44
 756 168 756 168 723 127 c 128,-1,45
 690 86 690 86 643.5 56 c 128,-1,46
 597 26 597 26 533.5 8.5 c 128,-1,47
 470 -9 470 -9 387 -9 c 0,48,49
 336 -9 336 -9 296 -5 c 128,-1,50
 256 -1 256 -1 219 6 c 0,51,52
 204 8 204 8 196.5 13 c 128,-1,53
 189 18 189 18 189 34 c 1,54,-1
 212 225 l 2,0,1
563 790 m 0,55,56
 591 790 591 790 613.5 794.5 c 128,-1,57
 636 799 636 799 659 807 c 1,58,59
 667 893 667 893 671.5 980 c 128,-1,60
 676 1067 676 1067 676 1145 c 0,61,62
 676 1183 676 1183 673 1226.5 c 128,-1,63
 670 1270 670 1270 657 1307.5 c 128,-1,64
 644 1345 644 1345 619 1369.5 c 128,-1,65
 594 1394 594 1394 549 1394 c 0,66,67
 502 1394 502 1394 474 1359.5 c 128,-1,68
 446 1325 446 1325 431 1269.5 c 128,-1,69
 416 1214 416 1214 411.5 1145.5 c 128,-1,70
 407 1077 407 1077 407 1008 c 0,71,72
 407 960 407 960 414.5 920 c 128,-1,73
 422 880 422 880 440 851 c 128,-1,74
 458 822 458 822 488 806 c 128,-1,75
 518 790 518 790 563 790 c 0,55,56
EndSplineSet
EndChar

StartChar: period
Encoding: 46 46 67
Width: 585
Flags: W
LayerCount: 2
Fore
SplineSet
99 132 m 0,0,1
 99 167 99 167 113.5 198 c 128,-1,2
 128 229 128 229 152 252.5 c 128,-1,3
 176 276 176 276 208 289.5 c 128,-1,4
 240 303 240 303 275 303 c 0,5,6
 305 303 305 303 330.5 292 c 128,-1,7
 356 281 356 281 375 261.5 c 128,-1,8
 394 242 394 242 404.5 216.5 c 128,-1,9
 415 191 415 191 415 161 c 0,10,11
 415 125 415 125 400.5 94 c 128,-1,12
 386 63 386 63 361.5 39.5 c 128,-1,13
 337 16 337 16 305 2.5 c 128,-1,14
 273 -11 273 -11 238 -11 c 0,15,16
 208 -11 208 -11 182.5 0 c 128,-1,17
 157 11 157 11 138.5 30.5 c 128,-1,18
 120 50 120 50 109.5 76 c 128,-1,19
 99 102 99 102 99 132 c 0,0,1
EndSplineSet
EndChar

StartChar: periodcentered
Encoding: 183 183 68
Width: 585
Flags: W
LayerCount: 2
Fore
SplineSet
312 556 m 0,0,1
 282 556 282 556 256.5 567 c 128,-1,2
 231 578 231 578 212.5 597.5 c 128,-1,3
 194 617 194 617 183.5 643 c 128,-1,4
 173 669 173 669 173 699 c 0,5,6
 173 734 173 734 187.5 765 c 128,-1,7
 202 796 202 796 226 819.5 c 128,-1,8
 250 843 250 843 282 856.5 c 128,-1,9
 314 870 314 870 349 870 c 0,10,11
 379 870 379 870 404.5 859 c 128,-1,12
 430 848 430 848 449 828.5 c 128,-1,13
 468 809 468 809 478.5 783.5 c 128,-1,14
 489 758 489 758 489 728 c 0,15,16
 489 692 489 692 474.5 661 c 128,-1,17
 460 630 460 630 435.5 606.5 c 128,-1,18
 411 583 411 583 379 569.5 c 128,-1,19
 347 556 347 556 312 556 c 0,0,1
EndSplineSet
EndChar

StartChar: bullet
Encoding: 8226 8226 69
Width: 585
Flags: W
LayerCount: 2
Fore
SplineSet
313 512 m 0,0,1
 274 512 274 512 241.5 526 c 128,-1,2
 209 540 209 540 185 564.5 c 128,-1,3
 161 589 161 589 147.5 622 c 128,-1,4
 134 655 134 655 134 694 c 0,5,6
 134 739 134 739 152 779 c 128,-1,7
 170 819 170 819 201 849 c 128,-1,8
 232 879 232 879 272.5 896.5 c 128,-1,9
 313 914 313 914 358 914 c 0,10,11
 397 914 397 914 430 900 c 128,-1,12
 463 886 463 886 487 861 c 128,-1,13
 511 836 511 836 525 803 c 128,-1,14
 539 770 539 770 539 732 c 0,15,16
 539 686 539 686 520.5 646 c 128,-1,17
 502 606 502 606 470.5 576 c 128,-1,18
 439 546 439 546 398 529 c 128,-1,19
 357 512 357 512 313 512 c 0,0,1
EndSplineSet
EndChar

StartChar: comma
Encoding: 44 44 70
Width: 585
Flags: W
LayerCount: 2
Fore
SplineSet
99 132 m 0,0,1
 99 167 99 167 113.5 198 c 128,-1,2
 128 229 128 229 152 252.5 c 128,-1,3
 176 276 176 276 208 289.5 c 128,-1,4
 240 303 240 303 275 303 c 0,5,6
 308 303 308 303 334 290 c 128,-1,7
 360 277 360 277 378 255.5 c 128,-1,8
 396 234 396 234 405.5 205 c 128,-1,9
 415 176 415 176 415 144 c 0,10,11
 415 99 415 99 406.5 51 c 128,-1,12
 398 3 398 3 384.5 -44.5 c 128,-1,13
 371 -92 371 -92 354 -137.5 c 128,-1,14
 337 -183 337 -183 319 -221.5 c 128,-1,15
 301 -260 301 -260 284.5 -291 c 128,-1,16
 268 -322 268 -322 256 -341 c 0,17,18
 248 -354 248 -354 240.5 -361.5 c 128,-1,19
 233 -369 233 -369 219 -370 c 0,20,21
 214 -370 214 -370 204 -370.5 c 128,-1,22
 194 -371 194 -371 183.5 -371.5 c 128,-1,23
 173 -372 173 -372 164 -372.5 c 128,-1,24
 155 -373 155 -373 151 -373 c 0,25,26
 142 -373 142 -373 136.5 -367 c 128,-1,27
 131 -361 131 -361 131 -352 c 0,28,29
 131 -339 131 -339 145 -280 c 0,30,31
 151 -253 151 -253 158.5 -220.5 c 128,-1,32
 166 -188 166 -188 172.5 -152 c 128,-1,33
 179 -116 179 -116 184.5 -78 c 128,-1,34
 190 -40 190 -40 193 -4 c 1,35,36
 145 11 145 11 122 50.5 c 128,-1,37
 99 90 99 90 99 132 c 0,0,1
EndSplineSet
EndChar

StartChar: colon
Encoding: 58 58 71
Width: 585
Flags: W
LayerCount: 2
Fore
SplineSet
327 782 m 0,0,1
 297 782 297 782 271.5 793 c 128,-1,2
 246 804 246 804 227.5 823.5 c 128,-1,3
 209 843 209 843 198.5 869 c 128,-1,4
 188 895 188 895 188 925 c 0,5,6
 188 960 188 960 202.5 991 c 128,-1,7
 217 1022 217 1022 241 1045.5 c 128,-1,8
 265 1069 265 1069 297 1082.5 c 128,-1,9
 329 1096 329 1096 364 1096 c 0,10,11
 394 1096 394 1096 419.5 1085 c 128,-1,12
 445 1074 445 1074 464 1054.5 c 128,-1,13
 483 1035 483 1035 493.5 1009.5 c 128,-1,14
 504 984 504 984 504 954 c 0,15,16
 504 918 504 918 489.5 887 c 128,-1,17
 475 856 475 856 450.5 832.5 c 128,-1,18
 426 809 426 809 394 795.5 c 128,-1,19
 362 782 362 782 327 782 c 0,0,1
99 132 m 0,20,21
 99 167 99 167 113.5 198 c 128,-1,22
 128 229 128 229 152 252.5 c 128,-1,23
 176 276 176 276 208 289.5 c 128,-1,24
 240 303 240 303 275 303 c 0,25,26
 305 303 305 303 330.5 292 c 128,-1,27
 356 281 356 281 375 261.5 c 128,-1,28
 394 242 394 242 404.5 216.5 c 128,-1,29
 415 191 415 191 415 161 c 0,30,31
 415 125 415 125 400.5 94 c 128,-1,32
 386 63 386 63 361.5 39.5 c 128,-1,33
 337 16 337 16 305 2.5 c 128,-1,34
 273 -11 273 -11 238 -11 c 0,35,36
 208 -11 208 -11 182.5 0 c 128,-1,37
 157 11 157 11 138.5 30.5 c 128,-1,38
 120 50 120 50 109.5 76 c 128,-1,39
 99 102 99 102 99 132 c 0,20,21
EndSplineSet
EndChar

StartChar: semicolon
Encoding: 59 59 72
Width: 585
Flags: W
LayerCount: 2
Fore
SplineSet
327 782 m 0,0,1
 297 782 297 782 271.5 793 c 128,-1,2
 246 804 246 804 227.5 823.5 c 128,-1,3
 209 843 209 843 198.5 869 c 128,-1,4
 188 895 188 895 188 925 c 0,5,6
 188 960 188 960 202.5 991 c 128,-1,7
 217 1022 217 1022 241 1045.5 c 128,-1,8
 265 1069 265 1069 297 1082.5 c 128,-1,9
 329 1096 329 1096 364 1096 c 0,10,11
 394 1096 394 1096 419.5 1085 c 128,-1,12
 445 1074 445 1074 464 1054.5 c 128,-1,13
 483 1035 483 1035 493.5 1009.5 c 128,-1,14
 504 984 504 984 504 954 c 0,15,16
 504 918 504 918 489.5 887 c 128,-1,17
 475 856 475 856 450.5 832.5 c 128,-1,18
 426 809 426 809 394 795.5 c 128,-1,19
 362 782 362 782 327 782 c 0,0,1
99 132 m 0,20,21
 99 167 99 167 113.5 198 c 128,-1,22
 128 229 128 229 152 252.5 c 128,-1,23
 176 276 176 276 208 289.5 c 128,-1,24
 240 303 240 303 275 303 c 0,25,26
 308 303 308 303 334 290 c 128,-1,27
 360 277 360 277 378 255.5 c 128,-1,28
 396 234 396 234 405.5 205 c 128,-1,29
 415 176 415 176 415 144 c 0,30,31
 415 99 415 99 406.5 51 c 128,-1,32
 398 3 398 3 384.5 -44.5 c 128,-1,33
 371 -92 371 -92 354 -137.5 c 128,-1,34
 337 -183 337 -183 319 -221.5 c 128,-1,35
 301 -260 301 -260 284.5 -291 c 128,-1,36
 268 -322 268 -322 256 -341 c 0,37,38
 248 -354 248 -354 240.5 -361.5 c 128,-1,39
 233 -369 233 -369 219 -370 c 0,40,41
 214 -370 214 -370 204 -370.5 c 128,-1,42
 194 -371 194 -371 183.5 -371.5 c 128,-1,43
 173 -372 173 -372 164 -372.5 c 128,-1,44
 155 -373 155 -373 151 -373 c 0,45,46
 142 -373 142 -373 136.5 -367 c 128,-1,47
 131 -361 131 -361 131 -352 c 0,48,49
 131 -339 131 -339 145 -280 c 0,50,51
 151 -253 151 -253 158.5 -220.5 c 128,-1,52
 166 -188 166 -188 172.5 -152 c 128,-1,53
 179 -116 179 -116 184.5 -78 c 128,-1,54
 190 -40 190 -40 193 -4 c 1,55,56
 145 11 145 11 122 50.5 c 128,-1,57
 99 90 99 90 99 132 c 0,20,21
EndSplineSet
EndChar

StartChar: exclam
Encoding: 33 33 73
Width: 585
Flags: W
LayerCount: 2
Fore
SplineSet
210 429 m 1,0,1
 199 430 199 430 193.5 436 c 128,-1,2
 188 442 188 442 188 450 c 2,3,-1
 295 1575 l 2,4,5
 296 1586 296 1586 301.5 1591.5 c 128,-1,6
 307 1597 307 1597 321 1599 c 1,7,-1
 534 1606 l 1,8,9
 559 1605 559 1605 559 1581 c 1,10,-1
 410 462 l 2,11,12
 408 450 408 450 403.5 443.5 c 128,-1,13
 399 437 399 437 385 436 c 2,14,-1
 210 429 l 1,0,1
105 132 m 0,15,16
 105 167 105 167 119.5 198 c 128,-1,17
 134 229 134 229 158.5 252.5 c 128,-1,18
 183 276 183 276 215 289.5 c 128,-1,19
 247 303 247 303 282 303 c 0,20,21
 312 303 312 303 337.5 292 c 128,-1,22
 363 281 363 281 382 261.5 c 128,-1,23
 401 242 401 242 411.5 216.5 c 128,-1,24
 422 191 422 191 422 161 c 0,25,26
 422 125 422 125 407.5 94 c 128,-1,27
 393 63 393 63 369 39.5 c 128,-1,28
 345 16 345 16 313 2.5 c 128,-1,29
 281 -11 281 -11 246 -11 c 0,30,31
 216 -11 216 -11 190 0 c 128,-1,32
 164 11 164 11 145.5 30.5 c 128,-1,33
 127 50 127 50 116 76 c 128,-1,34
 105 102 105 102 105 132 c 0,15,16
EndSplineSet
EndChar

StartChar: exclamdown
Encoding: 161 161 74
Width: 585
Flags: W
LayerCount: 2
Fore
SplineSet
358 903 m 0,0,1
 328 903 328 903 302.5 914 c 128,-1,2
 277 925 277 925 258 944.5 c 128,-1,3
 239 964 239 964 228.5 989.5 c 128,-1,4
 218 1015 218 1015 218 1045 c 0,5,6
 218 1081 218 1081 232.5 1112 c 128,-1,7
 247 1143 247 1143 271 1166.5 c 128,-1,8
 295 1190 295 1190 327 1203.5 c 128,-1,9
 359 1217 359 1217 394 1217 c 0,10,11
 424 1217 424 1217 450 1206 c 128,-1,12
 476 1195 476 1195 494.5 1175.5 c 128,-1,13
 513 1156 513 1156 524 1130 c 128,-1,14
 535 1104 535 1104 535 1074 c 0,15,16
 535 1039 535 1039 520.5 1008 c 128,-1,17
 506 977 506 977 481.5 953.5 c 128,-1,18
 457 930 457 930 425 916.5 c 128,-1,19
 393 903 393 903 358 903 c 0,0,1
230 744 m 2,20,21
 232 756 232 756 236.5 762.5 c 128,-1,22
 241 769 241 769 255 770 c 2,23,-1
 430 777 l 1,24,25
 441 776 441 776 446.5 770 c 128,-1,26
 452 764 452 764 452 756 c 2,27,-1
 345 -369 l 2,28,29
 344 -380 344 -380 338.5 -385.5 c 128,-1,30
 333 -391 333 -391 319 -393 c 1,31,-1
 106 -400 l 1,32,33
 81 -399 81 -399 81 -375 c 1,34,-1
 230 744 l 2,20,21
EndSplineSet
EndChar

StartChar: question
Encoding: 63 63 75
Width: 819
Flags: W
LayerCount: 2
Fore
SplineSet
261 429 m 2,0,1
 251 429 251 429 245.5 435.5 c 128,-1,2
 240 442 240 442 240 450 c 0,3,4
 240 553 240 553 258.5 631.5 c 128,-1,5
 277 710 277 710 305.5 771 c 128,-1,6
 334 832 334 832 369.5 880 c 128,-1,7
 405 928 405 928 440 972 c 0,8,9
 464 1002 464 1002 484.5 1032 c 128,-1,10
 505 1062 505 1062 520.5 1094 c 128,-1,11
 536 1126 536 1126 545 1161.5 c 128,-1,12
 554 1197 554 1197 554 1239 c 0,13,14
 554 1277 554 1277 544 1302 c 128,-1,15
 534 1327 534 1327 517 1341.5 c 128,-1,16
 500 1356 500 1356 478 1362 c 128,-1,17
 456 1368 456 1368 433 1368 c 0,18,19
 421 1368 421 1368 405 1367 c 128,-1,20
 389 1366 389 1366 370.5 1363.5 c 128,-1,21
 352 1361 352 1361 332 1358 c 128,-1,22
 312 1355 312 1355 294 1352 c 0,23,24
 265 1347 265 1347 243 1343.5 c 128,-1,25
 221 1340 221 1340 214 1340 c 0,26,27
 200 1340 200 1340 196 1348 c 128,-1,28
 192 1356 192 1356 192 1368 c 1,29,-1
 216 1558 l 2,30,31
 218 1571 218 1571 222.5 1575.5 c 128,-1,32
 227 1580 227 1580 241 1585 c 1,33,34
 268 1590 268 1590 302.5 1595.5 c 128,-1,35
 337 1601 337 1601 372 1605.5 c 128,-1,36
 407 1610 407 1610 439.5 1613 c 128,-1,37
 472 1616 472 1616 497 1616 c 0,38,39
 569 1616 569 1616 626.5 1591 c 128,-1,40
 684 1566 684 1566 724.5 1520.5 c 128,-1,41
 765 1475 765 1475 787 1412.5 c 128,-1,42
 809 1350 809 1350 809 1275 c 0,43,44
 809 1208 809 1208 797 1152.5 c 128,-1,45
 785 1097 785 1097 764.5 1050 c 128,-1,46
 744 1003 744 1003 717 962.5 c 128,-1,47
 690 922 690 922 661 884 c 0,48,49
 627 840 627 840 595 796.5 c 128,-1,50
 563 753 563 753 538 703.5 c 128,-1,51
 513 654 513 654 498 595 c 128,-1,52
 483 536 483 536 483 463 c 0,53,54
 483 438 483 438 458 437 c 2,55,-1
 261 429 l 2,0,1
195 132 m 0,56,57
 195 167 195 167 209.5 198 c 128,-1,58
 224 229 224 229 248 252.5 c 128,-1,59
 272 276 272 276 304 289.5 c 128,-1,60
 336 303 336 303 371 303 c 0,61,62
 401 303 401 303 427 292 c 128,-1,63
 453 281 453 281 472 261.5 c 128,-1,64
 491 242 491 242 501.5 216.5 c 128,-1,65
 512 191 512 191 512 161 c 0,66,67
 512 125 512 125 497.5 94 c 128,-1,68
 483 63 483 63 458.5 39.5 c 128,-1,69
 434 16 434 16 402 2.5 c 128,-1,70
 370 -11 370 -11 335 -11 c 0,71,72
 305 -11 305 -11 279.5 0 c 128,-1,73
 254 11 254 11 235 30.5 c 128,-1,74
 216 50 216 50 205.5 76 c 128,-1,75
 195 102 195 102 195 132 c 0,56,57
EndSplineSet
EndChar

StartChar: questiondown
Encoding: 191 191 76
Width: 819
Flags: W
LayerCount: 2
Fore
SplineSet
478 903 m 0,0,1
 448 903 448 903 422 914 c 128,-1,2
 396 925 396 925 377 944.5 c 128,-1,3
 358 964 358 964 347.5 989.5 c 128,-1,4
 337 1015 337 1015 337 1045 c 0,5,6
 337 1081 337 1081 351.5 1112 c 128,-1,7
 366 1143 366 1143 390.5 1166.5 c 128,-1,8
 415 1190 415 1190 447 1203.5 c 128,-1,9
 479 1217 479 1217 514 1217 c 0,10,11
 544 1217 544 1217 569.5 1206 c 128,-1,12
 595 1195 595 1195 614 1175.5 c 128,-1,13
 633 1156 633 1156 643.5 1130 c 128,-1,14
 654 1104 654 1104 654 1074 c 0,15,16
 654 1039 654 1039 639.5 1008 c 128,-1,17
 625 977 625 977 601 953.5 c 128,-1,18
 577 930 577 930 545 916.5 c 128,-1,19
 513 903 513 903 478 903 c 0,0,1
40 -69 m 0,20,21
 40 -2 40 -2 52 53.5 c 128,-1,22
 64 109 64 109 84.5 156 c 128,-1,23
 105 203 105 203 132 243.5 c 128,-1,24
 159 284 159 284 188 322 c 0,25,26
 222 365 222 365 254 409 c 128,-1,27
 286 453 286 453 311 502.5 c 128,-1,28
 336 552 336 552 351 610.5 c 128,-1,29
 366 669 366 669 366 743 c 0,30,31
 366 768 366 768 391 769 c 2,32,-1
 588 777 l 2,33,34
 598 777 598 777 603.5 770.5 c 128,-1,35
 609 764 609 764 609 756 c 0,36,37
 609 652 609 652 590.5 574 c 128,-1,38
 572 496 572 496 543.5 435 c 128,-1,39
 515 374 515 374 479 326 c 128,-1,40
 443 278 443 278 409 234 c 0,41,42
 385 204 385 204 364.5 174 c 128,-1,43
 344 144 344 144 328.5 112 c 128,-1,44
 313 80 313 80 304 44.5 c 128,-1,45
 295 9 295 9 295 -33 c 0,46,47
 295 -71 295 -71 305 -96 c 128,-1,48
 315 -121 315 -121 332 -135.5 c 128,-1,49
 349 -150 349 -150 371 -156 c 128,-1,50
 393 -162 393 -162 416 -162 c 0,51,52
 428 -162 428 -162 444 -161 c 128,-1,53
 460 -160 460 -160 478.5 -157.5 c 128,-1,54
 497 -155 497 -155 517 -152 c 128,-1,55
 537 -149 537 -149 555 -146 c 0,56,57
 584 -141 584 -141 606 -137.5 c 128,-1,58
 628 -134 628 -134 635 -134 c 0,59,60
 649 -134 649 -134 653 -142 c 128,-1,61
 657 -150 657 -150 657 -162 c 1,62,-1
 633 -352 l 2,63,64
 631 -365 631 -365 626.5 -369.5 c 128,-1,65
 622 -374 622 -374 608 -379 c 1,66,67
 581 -384 581 -384 546.5 -389.5 c 128,-1,68
 512 -395 512 -395 477 -399.5 c 128,-1,69
 442 -404 442 -404 409.5 -407 c 128,-1,70
 377 -410 377 -410 352 -410 c 0,71,72
 280 -410 280 -410 222 -385 c 128,-1,73
 164 -360 164 -360 123.5 -314.5 c 128,-1,74
 83 -269 83 -269 61.5 -206.5 c 128,-1,75
 40 -144 40 -144 40 -69 c 0,20,21
EndSplineSet
EndChar

StartChar: quoteleft
Encoding: 8216 8216 77
Width: 585
Flags: W
LayerCount: 2
Fore
SplineSet
388 1067 m 0,0,1
 355 1067 355 1067 329 1079.5 c 128,-1,2
 303 1092 303 1092 285 1114 c 128,-1,3
 267 1136 267 1136 257.5 1165 c 128,-1,4
 248 1194 248 1194 248 1226 c 0,5,6
 248 1271 248 1271 256.5 1319 c 128,-1,7
 265 1367 265 1367 278.5 1414.5 c 128,-1,8
 292 1462 292 1462 309 1507.5 c 128,-1,9
 326 1553 326 1553 344 1591.5 c 128,-1,10
 362 1630 362 1630 378.5 1661 c 128,-1,11
 395 1692 395 1692 407 1711 c 0,12,13
 415 1724 415 1724 422.5 1731.5 c 128,-1,14
 430 1739 430 1739 444 1740 c 0,15,16
 449 1740 449 1740 459 1740.5 c 128,-1,17
 469 1741 469 1741 479.5 1741.5 c 128,-1,18
 490 1742 490 1742 499 1742.5 c 128,-1,19
 508 1743 508 1743 512 1743 c 0,20,21
 521 1743 521 1743 526.5 1737 c 128,-1,22
 532 1731 532 1731 532 1722 c 0,23,24
 532 1709 532 1709 518 1650 c 0,25,26
 512 1623 512 1623 504.5 1590.5 c 128,-1,27
 497 1558 497 1558 490 1522 c 128,-1,28
 483 1486 483 1486 478 1448 c 128,-1,29
 473 1410 473 1410 470 1374 c 1,30,31
 518 1359 518 1359 541 1319.5 c 128,-1,32
 564 1280 564 1280 564 1238 c 0,33,34
 564 1203 564 1203 549.5 1172 c 128,-1,35
 535 1141 535 1141 511 1117.5 c 128,-1,36
 487 1094 487 1094 455 1080.5 c 128,-1,37
 423 1067 423 1067 388 1067 c 0,0,1
EndSplineSet
EndChar

StartChar: quoteright
Encoding: 8217 8217 78
Width: 585
Flags: W
LayerCount: 2
Fore
SplineSet
294 1066 m 0,0,1
 285 1066 285 1066 279.5 1072 c 128,-1,2
 274 1078 274 1078 274 1087 c 0,3,4
 274 1100 274 1100 288 1159 c 0,5,6
 294 1186 294 1186 301.5 1218.5 c 128,-1,7
 309 1251 309 1251 315.5 1287 c 128,-1,8
 322 1323 322 1323 327.5 1361 c 128,-1,9
 333 1399 333 1399 336 1435 c 1,10,11
 288 1450 288 1450 265 1489.5 c 128,-1,12
 242 1529 242 1529 242 1571 c 0,13,14
 242 1606 242 1606 256.5 1637 c 128,-1,15
 271 1668 271 1668 295 1691.5 c 128,-1,16
 319 1715 319 1715 351 1728.5 c 128,-1,17
 383 1742 383 1742 418 1742 c 0,18,19
 451 1742 451 1742 477 1729 c 128,-1,20
 503 1716 503 1716 521 1694.5 c 128,-1,21
 539 1673 539 1673 548.5 1644 c 128,-1,22
 558 1615 558 1615 558 1583 c 0,23,24
 558 1538 558 1538 549.5 1490 c 128,-1,25
 541 1442 541 1442 527.5 1394.5 c 128,-1,26
 514 1347 514 1347 497 1301.5 c 128,-1,27
 480 1256 480 1256 462 1217.5 c 128,-1,28
 444 1179 444 1179 427.5 1148 c 128,-1,29
 411 1117 411 1117 399 1098 c 0,30,31
 391 1085 391 1085 383.5 1077.5 c 128,-1,32
 376 1070 376 1070 362 1069 c 0,33,34
 357 1069 357 1069 347 1068.5 c 128,-1,35
 337 1068 337 1068 326.5 1067.5 c 128,-1,36
 316 1067 316 1067 307 1066.5 c 128,-1,37
 298 1066 298 1066 294 1066 c 0,0,1
EndSplineSet
EndChar

StartChar: quotedblleft
Encoding: 8220 8220 79
Width: 1055
Flags: W
LayerCount: 2
Fore
SplineSet
858 1067 m 0,0,1
 825 1067 825 1067 799 1079.5 c 128,-1,2
 773 1092 773 1092 755 1114 c 128,-1,3
 737 1136 737 1136 727.5 1165 c 128,-1,4
 718 1194 718 1194 718 1226 c 0,5,6
 718 1271 718 1271 726.5 1319 c 128,-1,7
 735 1367 735 1367 748.5 1414.5 c 128,-1,8
 762 1462 762 1462 779 1507.5 c 128,-1,9
 796 1553 796 1553 814 1591.5 c 128,-1,10
 832 1630 832 1630 848.5 1661 c 128,-1,11
 865 1692 865 1692 877 1711 c 0,12,13
 885 1724 885 1724 892.5 1731.5 c 128,-1,14
 900 1739 900 1739 914 1740 c 0,15,16
 919 1740 919 1740 929 1740.5 c 128,-1,17
 939 1741 939 1741 949.5 1741.5 c 128,-1,18
 960 1742 960 1742 969 1742.5 c 128,-1,19
 978 1743 978 1743 982 1743 c 0,20,21
 991 1743 991 1743 996.5 1737 c 128,-1,22
 1002 1731 1002 1731 1002 1722 c 0,23,24
 1002 1709 1002 1709 988 1650 c 0,25,26
 982 1623 982 1623 974.5 1590.5 c 128,-1,27
 967 1558 967 1558 960 1522 c 128,-1,28
 953 1486 953 1486 948 1448 c 128,-1,29
 943 1410 943 1410 940 1374 c 1,30,31
 988 1359 988 1359 1011 1319.5 c 128,-1,32
 1034 1280 1034 1280 1034 1238 c 0,33,34
 1034 1203 1034 1203 1019.5 1172 c 128,-1,35
 1005 1141 1005 1141 981 1117.5 c 128,-1,36
 957 1094 957 1094 925 1080.5 c 128,-1,37
 893 1067 893 1067 858 1067 c 0,0,1
388 1067 m 0,38,39
 355 1067 355 1067 329 1079.5 c 128,-1,40
 303 1092 303 1092 285 1114 c 128,-1,41
 267 1136 267 1136 257.5 1165 c 128,-1,42
 248 1194 248 1194 248 1226 c 0,43,44
 248 1271 248 1271 256.5 1319 c 128,-1,45
 265 1367 265 1367 278.5 1414.5 c 128,-1,46
 292 1462 292 1462 309 1507.5 c 128,-1,47
 326 1553 326 1553 344 1591.5 c 128,-1,48
 362 1630 362 1630 378.5 1661 c 128,-1,49
 395 1692 395 1692 407 1711 c 0,50,51
 415 1724 415 1724 422.5 1731.5 c 128,-1,52
 430 1739 430 1739 444 1740 c 0,53,54
 449 1740 449 1740 459 1740.5 c 128,-1,55
 469 1741 469 1741 479.5 1741.5 c 128,-1,56
 490 1742 490 1742 499 1742.5 c 128,-1,57
 508 1743 508 1743 512 1743 c 0,58,59
 521 1743 521 1743 526.5 1737 c 128,-1,60
 532 1731 532 1731 532 1722 c 0,61,62
 532 1709 532 1709 518 1650 c 0,63,64
 512 1623 512 1623 504.5 1590.5 c 128,-1,65
 497 1558 497 1558 490 1522 c 128,-1,66
 483 1486 483 1486 478 1448 c 128,-1,67
 473 1410 473 1410 470 1374 c 1,68,69
 518 1359 518 1359 541 1319.5 c 128,-1,70
 564 1280 564 1280 564 1238 c 0,71,72
 564 1203 564 1203 549.5 1172 c 128,-1,73
 535 1141 535 1141 511 1117.5 c 128,-1,74
 487 1094 487 1094 455 1080.5 c 128,-1,75
 423 1067 423 1067 388 1067 c 0,38,39
EndSplineSet
EndChar

StartChar: quotedblright
Encoding: 8221 8221 80
Width: 1056
Flags: W
LayerCount: 2
Fore
SplineSet
765 1066 m 0,0,1
 756 1066 756 1066 750.5 1072 c 128,-1,2
 745 1078 745 1078 745 1087 c 0,3,4
 745 1100 745 1100 759 1159 c 0,5,6
 765 1186 765 1186 772.5 1218.5 c 128,-1,7
 780 1251 780 1251 786.5 1287 c 128,-1,8
 793 1323 793 1323 798.5 1361 c 128,-1,9
 804 1399 804 1399 807 1435 c 1,10,11
 759 1450 759 1450 736 1489.5 c 128,-1,12
 713 1529 713 1529 713 1571 c 0,13,14
 713 1606 713 1606 727.5 1637 c 128,-1,15
 742 1668 742 1668 766 1691.5 c 128,-1,16
 790 1715 790 1715 822 1728.5 c 128,-1,17
 854 1742 854 1742 889 1742 c 0,18,19
 922 1742 922 1742 948 1729 c 128,-1,20
 974 1716 974 1716 992 1694.5 c 128,-1,21
 1010 1673 1010 1673 1019.5 1644 c 128,-1,22
 1029 1615 1029 1615 1029 1583 c 0,23,24
 1029 1538 1029 1538 1020.5 1490 c 128,-1,25
 1012 1442 1012 1442 998.5 1394.5 c 128,-1,26
 985 1347 985 1347 968 1301.5 c 128,-1,27
 951 1256 951 1256 933 1217.5 c 128,-1,28
 915 1179 915 1179 898.5 1148 c 128,-1,29
 882 1117 882 1117 870 1098 c 0,30,31
 862 1085 862 1085 854.5 1077.5 c 128,-1,32
 847 1070 847 1070 833 1069 c 0,33,34
 828 1069 828 1069 818 1068.5 c 128,-1,35
 808 1068 808 1068 797.5 1067.5 c 128,-1,36
 787 1067 787 1067 778 1066.5 c 128,-1,37
 769 1066 769 1066 765 1066 c 0,0,1
294 1066 m 0,38,39
 285 1066 285 1066 279.5 1072 c 128,-1,40
 274 1078 274 1078 274 1087 c 0,41,42
 274 1100 274 1100 288 1159 c 0,43,44
 294 1186 294 1186 301.5 1218.5 c 128,-1,45
 309 1251 309 1251 315.5 1287 c 128,-1,46
 322 1323 322 1323 327.5 1361 c 128,-1,47
 333 1399 333 1399 336 1435 c 1,48,49
 288 1450 288 1450 265 1489.5 c 128,-1,50
 242 1529 242 1529 242 1571 c 0,51,52
 242 1606 242 1606 256.5 1637 c 128,-1,53
 271 1668 271 1668 295 1691.5 c 128,-1,54
 319 1715 319 1715 351 1728.5 c 128,-1,55
 383 1742 383 1742 418 1742 c 0,56,57
 451 1742 451 1742 477 1729 c 128,-1,58
 503 1716 503 1716 521 1694.5 c 128,-1,59
 539 1673 539 1673 548.5 1644 c 128,-1,60
 558 1615 558 1615 558 1583 c 0,61,62
 558 1538 558 1538 549.5 1490 c 128,-1,63
 541 1442 541 1442 527.5 1394.5 c 128,-1,64
 514 1347 514 1347 497 1301.5 c 128,-1,65
 480 1256 480 1256 462 1217.5 c 128,-1,66
 444 1179 444 1179 427.5 1148 c 128,-1,67
 411 1117 411 1117 399 1098 c 0,68,69
 391 1085 391 1085 383.5 1077.5 c 128,-1,70
 376 1070 376 1070 362 1069 c 0,71,72
 357 1069 357 1069 347 1068.5 c 128,-1,73
 337 1068 337 1068 326.5 1067.5 c 128,-1,74
 316 1067 316 1067 307 1066.5 c 128,-1,75
 298 1066 298 1066 294 1066 c 0,38,39
EndSplineSet
EndChar

StartChar: quotesingle
Encoding: 39 39 81
Width: 539
Flags: W
LayerCount: 2
Fore
SplineSet
278 1068 m 1,0,1
 266 1069 266 1069 256 1072 c 128,-1,2
 246 1075 246 1075 245 1088 c 1,3,-1
 271 1697 l 2,4,5
 272 1707 272 1707 277.5 1713.5 c 128,-1,6
 283 1720 283 1720 295 1721 c 2,7,-1
 495 1728 l 1,8,9
 509 1727 509 1727 518 1720.5 c 128,-1,10
 527 1714 527 1714 527 1702 c 1,11,-1
 429 1099 l 2,12,13
 427 1087 427 1087 422.5 1080.5 c 128,-1,14
 418 1074 418 1074 404 1073 c 2,15,-1
 278 1068 l 1,16,-1
 278 1068 l 1,0,1
EndSplineSet
EndChar

StartChar: quotesinglbase
Encoding: 8218 8218 82
Width: 585
Flags: W
LayerCount: 2
Fore
SplineSet
99 132 m 0,0,1
 99 167 99 167 113.5 198 c 128,-1,2
 128 229 128 229 152 252.5 c 128,-1,3
 176 276 176 276 208 289.5 c 128,-1,4
 240 303 240 303 275 303 c 0,5,6
 308 303 308 303 334 290 c 128,-1,7
 360 277 360 277 378 255.5 c 128,-1,8
 396 234 396 234 405.5 205 c 128,-1,9
 415 176 415 176 415 144 c 0,10,11
 415 99 415 99 406.5 51 c 128,-1,12
 398 3 398 3 384.5 -44.5 c 128,-1,13
 371 -92 371 -92 354 -137.5 c 128,-1,14
 337 -183 337 -183 319 -221.5 c 128,-1,15
 301 -260 301 -260 284.5 -291 c 128,-1,16
 268 -322 268 -322 256 -341 c 0,17,18
 248 -354 248 -354 240.5 -361.5 c 128,-1,19
 233 -369 233 -369 219 -370 c 0,20,21
 214 -370 214 -370 204 -370.5 c 128,-1,22
 194 -371 194 -371 183.5 -371.5 c 128,-1,23
 173 -372 173 -372 164 -372.5 c 128,-1,24
 155 -373 155 -373 151 -373 c 0,25,26
 142 -373 142 -373 136.5 -367 c 128,-1,27
 131 -361 131 -361 131 -352 c 0,28,29
 131 -339 131 -339 145 -280 c 0,30,31
 151 -253 151 -253 158.5 -220.5 c 128,-1,32
 166 -188 166 -188 172.5 -152 c 128,-1,33
 179 -116 179 -116 184.5 -78 c 128,-1,34
 190 -40 190 -40 193 -4 c 1,35,36
 145 11 145 11 122 50.5 c 128,-1,37
 99 90 99 90 99 132 c 0,0,1
EndSplineSet
EndChar

StartChar: quotedbl
Encoding: 34 34 83
Width: 980
Flags: W
LayerCount: 2
Fore
SplineSet
712 1697 m 2,0,1
 713 1707 713 1707 718.5 1713.5 c 128,-1,2
 724 1720 724 1720 736 1721 c 2,3,-1
 936 1728 l 1,4,5
 950 1727 950 1727 959 1720.5 c 128,-1,6
 968 1714 968 1714 968 1702 c 1,7,-1
 870 1099 l 2,8,9
 868 1087 868 1087 863.5 1080.5 c 128,-1,10
 859 1074 859 1074 845 1073 c 2,11,-1
 719 1068 l 1,12,13
 707 1069 707 1069 697 1072 c 128,-1,14
 687 1075 687 1075 686 1088 c 1,15,-1
 712 1697 l 2,0,1
278 1068 m 1,16,17
 266 1069 266 1069 256 1072 c 128,-1,18
 246 1075 246 1075 245 1088 c 1,19,-1
 271 1697 l 2,20,21
 272 1707 272 1707 277.5 1713.5 c 128,-1,22
 283 1720 283 1720 295 1721 c 2,23,-1
 495 1728 l 1,24,25
 509 1727 509 1727 518 1720.5 c 128,-1,26
 527 1714 527 1714 527 1702 c 1,27,-1
 429 1099 l 2,28,29
 427 1087 427 1087 422.5 1080.5 c 128,-1,30
 418 1074 418 1074 404 1073 c 2,31,-1
 278 1068 l 1,16,17
EndSplineSet
EndChar

StartChar: quotedblbase
Encoding: 8222 8222 84
Width: 1055
Flags: W
LayerCount: 2
Fore
SplineSet
569 132 m 0,0,1
 569 167 569 167 583.5 198 c 128,-1,2
 598 229 598 229 622 252.5 c 128,-1,3
 646 276 646 276 678 289.5 c 128,-1,4
 710 303 710 303 745 303 c 0,5,6
 778 303 778 303 804 290 c 128,-1,7
 830 277 830 277 848 255.5 c 128,-1,8
 866 234 866 234 875.5 205 c 128,-1,9
 885 176 885 176 885 144 c 0,10,11
 885 99 885 99 876.5 51 c 128,-1,12
 868 3 868 3 854.5 -44.5 c 128,-1,13
 841 -92 841 -92 824 -137.5 c 128,-1,14
 807 -183 807 -183 789 -221.5 c 128,-1,15
 771 -260 771 -260 754.5 -291 c 128,-1,16
 738 -322 738 -322 726 -341 c 0,17,18
 718 -354 718 -354 710.5 -361.5 c 128,-1,19
 703 -369 703 -369 689 -370 c 0,20,21
 684 -370 684 -370 674 -370.5 c 128,-1,22
 664 -371 664 -371 653.5 -371.5 c 128,-1,23
 643 -372 643 -372 634 -372.5 c 128,-1,24
 625 -373 625 -373 621 -373 c 0,25,26
 612 -373 612 -373 606.5 -367 c 128,-1,27
 601 -361 601 -361 601 -352 c 0,28,29
 601 -339 601 -339 615 -280 c 0,30,31
 621 -253 621 -253 628.5 -220.5 c 128,-1,32
 636 -188 636 -188 642.5 -152 c 128,-1,33
 649 -116 649 -116 654.5 -78 c 128,-1,34
 660 -40 660 -40 663 -4 c 1,35,36
 615 11 615 11 592 50.5 c 128,-1,37
 569 90 569 90 569 132 c 0,0,1
99 132 m 0,38,39
 99 167 99 167 113.5 198 c 128,-1,40
 128 229 128 229 152 252.5 c 128,-1,41
 176 276 176 276 208 289.5 c 128,-1,42
 240 303 240 303 275 303 c 0,43,44
 308 303 308 303 334 290 c 128,-1,45
 360 277 360 277 378 255.5 c 128,-1,46
 396 234 396 234 405.5 205 c 128,-1,47
 415 176 415 176 415 144 c 0,48,49
 415 99 415 99 406.5 51 c 128,-1,50
 398 3 398 3 384.5 -44.5 c 128,-1,51
 371 -92 371 -92 354 -137.5 c 128,-1,52
 337 -183 337 -183 319 -221.5 c 128,-1,53
 301 -260 301 -260 284.5 -291 c 128,-1,54
 268 -322 268 -322 256 -341 c 0,55,56
 248 -354 248 -354 240.5 -361.5 c 128,-1,57
 233 -369 233 -369 219 -370 c 0,58,59
 214 -370 214 -370 204 -370.5 c 128,-1,60
 194 -371 194 -371 183.5 -371.5 c 128,-1,61
 173 -372 173 -372 164 -372.5 c 128,-1,62
 155 -373 155 -373 151 -373 c 0,63,64
 142 -373 142 -373 136.5 -367 c 128,-1,65
 131 -361 131 -361 131 -352 c 0,66,67
 131 -339 131 -339 145 -280 c 0,68,69
 151 -253 151 -253 158.5 -220.5 c 128,-1,70
 166 -188 166 -188 172.5 -152 c 128,-1,71
 179 -116 179 -116 184.5 -78 c 128,-1,72
 190 -40 190 -40 193 -4 c 1,73,74
 145 11 145 11 122 50.5 c 128,-1,75
 99 90 99 90 99 132 c 0,38,39
EndSplineSet
EndChar

StartChar: guilsinglleft
Encoding: 8249 8249 85
Width: 737
Flags: W
LayerCount: 2
Fore
SplineSet
188 561 m 2,0,1
 185 568 185 568 185 572 c 0,2,3
 185 582 185 582 191 590 c 2,4,-1
 498 983 l 2,5,6
 507 995 507 995 517 1001.5 c 128,-1,7
 527 1008 527 1008 541 1009 c 2,8,-1
 717 1015 l 1,9,10
 742 1014 742 1014 742 989 c 1,11,-1
 456 591 l 1,12,-1
 619 183 l 1,13,14
 619 171 619 171 615 164 c 128,-1,15
 611 157 611 157 594 156 c 2,16,-1
 429 150 l 1,17,18
 407 151 407 151 396 171 c 2,19,-1
 188 561 l 2,0,1
EndSplineSet
EndChar

StartChar: guilsinglright
Encoding: 8250 8250 86
Width: 737
Flags: W
LayerCount: 2
Fore
SplineSet
45 155 m 1,0,1
 20 156 20 156 20 181 c 1,2,-1
 306 579 l 1,3,-1
 143 987 l 1,4,5
 143 999 143 999 147 1006 c 128,-1,6
 151 1013 151 1013 168 1014 c 2,7,-1
 333 1020 l 1,8,9
 355 1019 355 1019 366 999 c 2,10,-1
 574 609 l 1,11,12
 577 601 577 601 577 598 c 0,13,14
 577 587 577 587 571 580 c 2,15,-1
 264 187 l 2,16,17
 255 175 255 175 245 168.5 c 128,-1,18
 235 162 235 162 221 161 c 2,19,-1
 45 155 l 1,20,-1
 45 155 l 1,0,1
EndSplineSet
EndChar

StartChar: guillemotleft
Encoding: 171 171 87
Width: 1210
Flags: W
LayerCount: 2
Fore
SplineSet
661 561 m 2,0,1
 658 568 658 568 658 572 c 0,2,3
 658 582 658 582 664 590 c 2,4,-1
 971 983 l 2,5,6
 980 995 980 995 990 1001.5 c 128,-1,7
 1000 1008 1000 1008 1014 1009 c 2,8,-1
 1190 1015 l 1,9,10
 1215 1014 1215 1014 1215 989 c 1,11,-1
 929 591 l 1,12,-1
 1092 183 l 1,13,14
 1092 171 1092 171 1088 164 c 128,-1,15
 1084 157 1084 157 1067 156 c 2,16,-1
 902 150 l 1,17,18
 880 151 880 151 869 171 c 2,19,-1
 661 561 l 2,0,1
188 561 m 2,20,21
 185 568 185 568 185 572 c 0,22,23
 185 582 185 582 191 590 c 2,24,-1
 498 983 l 2,25,26
 507 995 507 995 517 1001.5 c 128,-1,27
 527 1008 527 1008 541 1009 c 2,28,-1
 717 1015 l 1,29,30
 742 1014 742 1014 742 989 c 1,31,-1
 456 591 l 1,32,-1
 619 183 l 1,33,34
 619 171 619 171 615 164 c 128,-1,35
 611 157 611 157 594 156 c 2,36,-1
 429 150 l 1,37,38
 407 151 407 151 396 171 c 2,39,-1
 188 561 l 2,20,21
EndSplineSet
EndChar

StartChar: guillemotright
Encoding: 187 187 88
Width: 1210
Flags: W
LayerCount: 2
Fore
SplineSet
779 579 m 1,0,-1
 616 987 l 1,1,2
 616 999 616 999 620 1006 c 128,-1,3
 624 1013 624 1013 641 1014 c 2,4,-1
 806 1020 l 1,5,6
 828 1019 828 1019 839 999 c 2,7,-1
 1047 609 l 1,8,9
 1050 601 1050 601 1050 598 c 0,10,11
 1050 587 1050 587 1044 580 c 2,12,-1
 737 187 l 2,13,14
 728 175 728 175 718 168.5 c 128,-1,15
 708 162 708 162 694 161 c 2,16,-1
 518 155 l 1,17,18
 493 156 493 156 493 181 c 1,19,-1
 779 579 l 1,0,-1
45 155 m 1,20,21
 20 156 20 156 20 181 c 1,22,-1
 306 579 l 1,23,-1
 143 987 l 1,24,25
 143 999 143 999 147 1006 c 128,-1,26
 151 1013 151 1013 168 1014 c 2,27,-1
 333 1020 l 1,28,29
 355 1019 355 1019 366 999 c 2,30,-1
 574 609 l 1,31,32
 577 601 577 601 577 598 c 0,33,34
 577 587 577 587 571 580 c 2,35,-1
 264 187 l 2,36,37
 255 175 255 175 245 168.5 c 128,-1,38
 235 162 235 162 221 161 c 2,39,-1
 45 155 l 1,20,21
EndSplineSet
EndChar

StartChar: onesuperior
Encoding: 185 185 89
Width: 690
Flags: W
LayerCount: 2
Fore
SplineSet
182 842 m 1,0,1
 157 845 157 845 157 869 c 1,2,-1
 173 1012 l 2,3,4
 175 1023 175 1023 179 1029 c 128,-1,5
 183 1035 183 1035 199 1037 c 1,6,-1
 305 1041 l 1,7,-1
 350 1448 l 1,8,-1
 225 1442 l 1,9,10
 211 1443 211 1443 205.5 1449 c 128,-1,11
 200 1455 200 1455 200 1468 c 0,12,13
 200 1474 200 1474 211.5 1497.5 c 128,-1,14
 223 1521 223 1521 237.5 1548.5 c 128,-1,15
 252 1576 252 1576 265.5 1600.5 c 128,-1,16
 279 1625 279 1625 283 1633 c 0,17,18
 288 1642 288 1642 295 1649 c 128,-1,19
 302 1656 302 1656 319 1657 c 2,20,-1
 570 1666 l 2,21,22
 581 1666 581 1666 585 1658.5 c 128,-1,23
 589 1651 589 1651 589 1639 c 1,24,-1
 523 1047 l 1,25,-1
 627 1051 l 1,26,27
 641 1050 641 1050 646 1043.5 c 128,-1,28
 651 1037 651 1037 651 1025 c 1,29,-1
 634 883 l 2,30,31
 632 870 632 870 627.5 864 c 128,-1,32
 623 858 623 858 609 857 c 2,33,-1
 182 842 l 1,34,-1
 182 842 l 1,0,1
EndSplineSet
EndChar

StartChar: twosuperior
Encoding: 178 178 90
Width: 690
Flags: W
LayerCount: 2
Fore
SplineSet
157 842 m 1,0,1
 131 843 131 843 131 865 c 0,2,3
 131 871 131 871 133 888 c 128,-1,4
 135 905 135 905 137 924 c 128,-1,5
 139 943 139 943 141.5 960 c 128,-1,6
 144 977 144 977 146 984 c 0,7,8
 151 1013 151 1013 169.5 1044.5 c 128,-1,9
 188 1076 188 1076 214 1108 c 128,-1,10
 240 1140 240 1140 272 1172 c 128,-1,11
 304 1204 304 1204 337 1234 c 0,12,13
 366 1261 366 1261 392 1286 c 128,-1,14
 418 1311 418 1311 438 1333.5 c 128,-1,15
 458 1356 458 1356 470 1375 c 128,-1,16
 482 1394 482 1394 482 1409 c 0,17,18
 482 1441 482 1441 456 1456.5 c 128,-1,19
 430 1472 430 1472 392 1472 c 0,20,21
 369 1472 369 1472 343 1468 c 128,-1,22
 317 1464 317 1464 291 1459 c 0,23,24
 266 1454 266 1454 244.5 1450.5 c 128,-1,25
 223 1447 223 1447 209 1447 c 0,26,27
 196 1447 196 1447 191.5 1455 c 128,-1,28
 187 1463 187 1463 187 1475 c 1,29,-1
 204 1617 l 2,30,31
 206 1630 206 1630 210.5 1635 c 128,-1,32
 215 1640 215 1640 229 1644 c 0,33,34
 249 1649 249 1649 275 1654 c 128,-1,35
 301 1659 301 1659 329.5 1662.5 c 128,-1,36
 358 1666 358 1666 386 1668 c 128,-1,37
 414 1670 414 1670 439 1670 c 0,38,39
 492 1670 492 1670 538.5 1657 c 128,-1,40
 585 1644 585 1644 619.5 1615.5 c 128,-1,41
 654 1587 654 1587 674 1543 c 128,-1,42
 694 1499 694 1499 694 1437 c 0,43,44
 694 1398 694 1398 682 1365 c 128,-1,45
 670 1332 670 1332 649.5 1301 c 128,-1,46
 629 1270 629 1270 601 1240.5 c 128,-1,47
 573 1211 573 1211 541 1180 c 0,48,49
 511 1151 511 1151 479.5 1118 c 128,-1,50
 448 1085 448 1085 416 1046 c 1,51,-1
 636 1054 l 1,52,53
 650 1053 650 1053 655 1045 c 128,-1,54
 660 1037 660 1037 660 1025 c 1,55,-1
 645 883 l 2,56,57
 643 868 643 868 636 863.5 c 128,-1,58
 629 859 629 859 618 858 c 2,59,-1
 157 842 l 1,60,-1
 157 842 l 1,0,1
EndSplineSet
EndChar

StartChar: threesuperior
Encoding: 179 179 91
Width: 690
Flags: W
LayerCount: 2
Fore
SplineSet
169 865 m 1,0,1
 154 870 154 870 146.5 873 c 128,-1,2
 139 876 139 876 139 894 c 1,3,-1
 153 1018 l 2,4,5
 155 1029 155 1029 157 1035.5 c 128,-1,6
 159 1042 159 1042 174 1042 c 0,7,8
 192 1042 192 1042 245 1031 c 0,9,10
 277 1024 277 1024 311.5 1020 c 128,-1,11
 346 1016 346 1016 373 1016 c 0,12,13
 415 1016 415 1016 444 1036.5 c 128,-1,14
 473 1057 473 1057 473 1102 c 0,15,16
 473 1127 473 1127 464.5 1142.5 c 128,-1,17
 456 1158 456 1158 441 1166.5 c 128,-1,18
 426 1175 426 1175 404.5 1178 c 128,-1,19
 383 1181 383 1181 356 1181 c 2,20,-1
 306 1181 l 2,21,22
 292 1181 292 1181 288 1189 c 128,-1,23
 284 1197 284 1197 284 1208 c 1,24,-1
 296 1281 l 2,25,26
 298 1292 298 1292 303 1298 c 128,-1,27
 308 1304 308 1304 321 1306 c 0,28,29
 369 1313 369 1313 400 1322 c 128,-1,30
 431 1331 431 1331 449 1343 c 128,-1,31
 467 1355 467 1355 474.5 1371 c 128,-1,32
 482 1387 482 1387 482 1409 c 0,33,34
 482 1441 482 1441 456 1456.5 c 128,-1,35
 430 1472 430 1472 392 1472 c 0,36,37
 370 1472 370 1472 345 1468 c 128,-1,38
 320 1464 320 1464 296 1459 c 0,39,40
 269 1453 269 1453 246 1449 c 128,-1,41
 223 1445 223 1445 209 1445 c 0,42,43
 196 1445 196 1445 191.5 1453 c 128,-1,44
 187 1461 187 1461 187 1473 c 1,45,-1
 204 1615 l 2,46,47
 206 1628 206 1628 210.5 1632.5 c 128,-1,48
 215 1637 215 1637 229 1642 c 0,49,50
 247 1648 247 1648 273 1653 c 128,-1,51
 299 1658 299 1658 327.5 1661.5 c 128,-1,52
 356 1665 356 1665 385 1667.5 c 128,-1,53
 414 1670 414 1670 439 1670 c 0,54,55
 484 1670 484 1670 529.5 1663 c 128,-1,56
 575 1656 575 1656 612 1636 c 128,-1,57
 649 1616 649 1616 672 1579.5 c 128,-1,58
 695 1543 695 1543 695 1484 c 0,59,60
 695 1455 695 1455 688 1421 c 128,-1,61
 681 1387 681 1387 659 1355.5 c 128,-1,62
 637 1324 637 1324 596 1298 c 128,-1,63
 555 1272 555 1272 488 1258 c 1,64,65
 591 1258 591 1258 638 1210.5 c 128,-1,66
 685 1163 685 1163 685 1085 c 0,67,68
 685 1030 685 1030 662.5 985 c 128,-1,69
 640 940 640 940 599 908 c 128,-1,70
 558 876 558 876 499.5 858.5 c 128,-1,71
 441 841 441 841 369 841 c 0,72,73
 344 841 344 841 314.5 843.5 c 128,-1,74
 285 846 285 846 257 849.5 c 128,-1,75
 229 853 229 853 205.5 857.5 c 128,-1,76
 182 862 182 862 169 865 c 1,0,1
EndSplineSet
EndChar

StartChar: onequarter
Encoding: 188 188 92
Width: 1452
Flags: W
LayerCount: 2
Fore
SplineSet
242 65 m 0,0,1
 242 75 242 75 247 85 c 2,2,-1
 1149 1616 l 2,3,4
 1155 1626 1155 1626 1161 1632 c 128,-1,5
 1167 1638 1167 1638 1177 1639 c 1,6,-1
 1299 1573 l 2,7,8
 1319 1562 1319 1562 1319 1547 c 0,9,10
 1319 1537 1319 1537 1313 1527 c 2,11,-1
 413 -4 l 2,12,13
 406 -15 406 -15 400 -21 c 128,-1,14
 394 -27 394 -27 383 -27 c 1,15,-1
 262 39 l 2,16,17
 242 50 242 50 242 65 c 0,0,1
111 786 m 1,18,19
 86 789 86 789 86 813 c 1,20,-1
 102 956 l 2,21,22
 104 967 104 967 108 973 c 128,-1,23
 112 979 112 979 128 981 c 1,24,-1
 234 985 l 1,25,-1
 279 1392 l 1,26,-1
 154 1386 l 1,27,28
 140 1387 140 1387 134.5 1393 c 128,-1,29
 129 1399 129 1399 129 1412 c 0,30,31
 129 1418 129 1418 140.5 1441.5 c 128,-1,32
 152 1465 152 1465 166.5 1492.5 c 128,-1,33
 181 1520 181 1520 194.5 1544.5 c 128,-1,34
 208 1569 208 1569 212 1577 c 0,35,36
 217 1586 217 1586 224 1593 c 128,-1,37
 231 1600 231 1600 248 1601 c 2,38,-1
 499 1610 l 2,39,40
 510 1610 510 1610 514 1602.5 c 128,-1,41
 518 1595 518 1595 518 1583 c 1,42,-1
 452 991 l 1,43,-1
 556 995 l 1,44,45
 570 994 570 994 575 987.5 c 128,-1,46
 580 981 580 981 580 969 c 1,47,-1
 563 827 l 2,48,49
 561 814 561 814 556.5 808 c 128,-1,50
 552 802 552 802 538 801 c 2,51,-1
 111 786 l 1,18,19
769 150 m 0,52,53
 769 164 769 164 777 175 c 1,54,-1
 1126 774 l 2,55,56
 1134 788 1134 788 1143 794 c 128,-1,57
 1152 800 1152 800 1172 801 c 2,58,-1
 1325 806 l 1,59,60
 1345 805 1345 805 1345 780 c 1,61,-1
 1293 332 l 1,62,-1
 1381 335 l 1,63,64
 1395 334 1395 334 1400.5 327 c 128,-1,65
 1406 320 1406 320 1406 309 c 1,66,-1
 1391 179 l 2,67,68
 1388 153 1388 153 1365 152 c 2,69,-1
 1272 149 l 1,70,-1
 1258 20 l 2,71,72
 1256 9 1256 9 1251.5 2.5 c 128,-1,73
 1247 -4 1247 -4 1233 -5 c 2,74,-1
 1061 -11 l 2,75,76
 1051 -11 1051 -11 1045.5 -5 c 128,-1,77
 1040 1 1040 1 1040 9 c 1,78,-1
 1075 142 l 1,79,-1
 797 132 l 2,80,81
 789 132 789 132 779 135.5 c 128,-1,82
 769 139 769 139 769 150 c 0,52,53
1113 326 m 1,83,-1
 1141 561 l 1,84,-1
 1007 322 l 1,85,-1
 1113 326 l 1,83,-1
EndSplineSet
EndChar

StartChar: onehalf
Encoding: 189 189 93
Width: 1452
Flags: W
LayerCount: 2
Fore
SplineSet
242 65 m 0,0,1
 242 75 242 75 247 85 c 2,2,-1
 1149 1616 l 2,3,4
 1155 1626 1155 1626 1161 1632 c 128,-1,5
 1167 1638 1167 1638 1177 1639 c 1,6,-1
 1299 1573 l 2,7,8
 1319 1562 1319 1562 1319 1547 c 0,9,10
 1319 1537 1319 1537 1313 1527 c 2,11,-1
 413 -4 l 2,12,13
 406 -15 406 -15 400 -21 c 128,-1,14
 394 -27 394 -27 383 -27 c 1,15,-1
 262 39 l 2,16,17
 242 50 242 50 242 65 c 0,0,1
111 786 m 1,18,19
 86 789 86 789 86 813 c 1,20,-1
 102 956 l 2,21,22
 104 967 104 967 108 973 c 128,-1,23
 112 979 112 979 128 981 c 1,24,-1
 234 985 l 1,25,-1
 279 1392 l 1,26,-1
 154 1386 l 1,27,28
 140 1387 140 1387 134.5 1393 c 128,-1,29
 129 1399 129 1399 129 1412 c 0,30,31
 129 1418 129 1418 140.5 1441.5 c 128,-1,32
 152 1465 152 1465 166.5 1492.5 c 128,-1,33
 181 1520 181 1520 194.5 1544.5 c 128,-1,34
 208 1569 208 1569 212 1577 c 0,35,36
 217 1586 217 1586 224 1593 c 128,-1,37
 231 1600 231 1600 248 1601 c 2,38,-1
 499 1610 l 2,39,40
 510 1610 510 1610 514 1602.5 c 128,-1,41
 518 1595 518 1595 518 1583 c 1,42,-1
 452 991 l 1,43,-1
 556 995 l 1,44,45
 570 994 570 994 575 987.5 c 128,-1,46
 580 981 580 981 580 969 c 1,47,-1
 563 827 l 2,48,49
 561 814 561 814 556.5 808 c 128,-1,50
 552 802 552 802 538 801 c 2,51,-1
 111 786 l 1,18,19
866 11 m 0,52,53
 866 17 866 17 868 34 c 128,-1,54
 870 51 870 51 872 70 c 128,-1,55
 874 89 874 89 876.5 106 c 128,-1,56
 879 123 879 123 881 130 c 0,57,58
 886 159 886 159 904.5 190.5 c 128,-1,59
 923 222 923 222 949 254 c 128,-1,60
 975 286 975 286 1007 318 c 128,-1,61
 1039 350 1039 350 1072 380 c 0,62,63
 1101 407 1101 407 1127 432 c 128,-1,64
 1153 457 1153 457 1173 479.5 c 128,-1,65
 1193 502 1193 502 1205 521 c 128,-1,66
 1217 540 1217 540 1217 555 c 0,67,68
 1217 587 1217 587 1191 602.5 c 128,-1,69
 1165 618 1165 618 1127 618 c 0,70,71
 1104 618 1104 618 1078 614 c 128,-1,72
 1052 610 1052 610 1026 605 c 0,73,74
 1001 600 1001 600 979.5 596.5 c 128,-1,75
 958 593 958 593 944 593 c 0,76,77
 931 593 931 593 926.5 601 c 128,-1,78
 922 609 922 609 922 621 c 1,79,-1
 939 763 l 2,80,81
 941 776 941 776 945.5 781 c 128,-1,82
 950 786 950 786 964 790 c 0,83,84
 984 795 984 795 1010 800 c 128,-1,85
 1036 805 1036 805 1064.5 808.5 c 128,-1,86
 1093 812 1093 812 1121 814 c 128,-1,87
 1149 816 1149 816 1174 816 c 0,88,89
 1227 816 1227 816 1273.5 803 c 128,-1,90
 1320 790 1320 790 1354.5 761.5 c 128,-1,91
 1389 733 1389 733 1409 689 c 128,-1,92
 1429 645 1429 645 1429 583 c 0,93,94
 1429 544 1429 544 1417 511 c 128,-1,95
 1405 478 1405 478 1384.5 447 c 128,-1,96
 1364 416 1364 416 1336 386.5 c 128,-1,97
 1308 357 1308 357 1276 326 c 0,98,99
 1246 297 1246 297 1214.5 264 c 128,-1,100
 1183 231 1183 231 1151 192 c 1,101,-1
 1371 200 l 1,102,103
 1385 199 1385 199 1390 191 c 128,-1,104
 1395 183 1395 183 1395 171 c 1,105,-1
 1380 29 l 2,106,107
 1378 14 1378 14 1371 9.5 c 128,-1,108
 1364 5 1364 5 1353 4 c 2,109,-1
 892 -12 l 1,110,111
 866 -11 866 -11 866 11 c 0,52,53
EndSplineSet
EndChar

StartChar: threequarters
Encoding: 190 190 94
Width: 1452
Flags: W
LayerCount: 2
Fore
SplineSet
242 65 m 0,0,1
 242 75 242 75 247 85 c 2,2,-1
 1149 1616 l 2,3,4
 1155 1626 1155 1626 1161 1632 c 128,-1,5
 1167 1638 1167 1638 1177 1639 c 1,6,-1
 1299 1573 l 2,7,8
 1319 1562 1319 1562 1319 1547 c 0,9,10
 1319 1537 1319 1537 1313 1527 c 2,11,-1
 413 -4 l 2,12,13
 406 -15 406 -15 400 -21 c 128,-1,14
 394 -27 394 -27 383 -27 c 1,15,-1
 262 39 l 2,16,17
 242 50 242 50 242 65 c 0,0,1
111 786 m 1,18,19
 86 789 86 789 86 813 c 1,20,-1
 102 956 l 2,21,22
 104 967 104 967 108 973 c 128,-1,23
 112 979 112 979 128 981 c 1,24,-1
 234 985 l 1,25,-1
 279 1392 l 1,26,-1
 154 1386 l 1,27,28
 140 1387 140 1387 134.5 1393 c 128,-1,29
 129 1399 129 1399 129 1412 c 0,30,31
 129 1418 129 1418 140.5 1441.5 c 128,-1,32
 152 1465 152 1465 166.5 1492.5 c 128,-1,33
 181 1520 181 1520 194.5 1544.5 c 128,-1,34
 208 1569 208 1569 212 1577 c 0,35,36
 217 1586 217 1586 224 1593 c 128,-1,37
 231 1600 231 1600 248 1601 c 2,38,-1
 499 1610 l 2,39,40
 510 1610 510 1610 514 1602.5 c 128,-1,41
 518 1595 518 1595 518 1583 c 1,42,-1
 452 991 l 1,43,-1
 556 995 l 1,44,45
 570 994 570 994 575 987.5 c 128,-1,46
 580 981 580 981 580 969 c 1,47,-1
 563 827 l 2,48,49
 561 814 561 814 556.5 808 c 128,-1,50
 552 802 552 802 538 801 c 2,51,-1
 111 786 l 1,18,19
769 150 m 0,52,53
 769 164 769 164 777 175 c 1,54,-1
 1126 774 l 2,55,56
 1134 788 1134 788 1143 794 c 128,-1,57
 1152 800 1152 800 1172 801 c 2,58,-1
 1325 806 l 1,59,60
 1345 805 1345 805 1345 780 c 1,61,-1
 1293 332 l 1,62,-1
 1381 335 l 1,63,64
 1395 334 1395 334 1400.5 327 c 128,-1,65
 1406 320 1406 320 1406 309 c 1,66,-1
 1391 179 l 2,67,68
 1388 153 1388 153 1365 152 c 2,69,-1
 1272 149 l 1,70,-1
 1258 20 l 2,71,72
 1256 9 1256 9 1251.5 2.5 c 128,-1,73
 1247 -4 1247 -4 1233 -5 c 2,74,-1
 1061 -11 l 2,75,76
 1051 -11 1051 -11 1045.5 -5 c 128,-1,77
 1040 1 1040 1 1040 9 c 1,78,-1
 1075 142 l 1,79,-1
 797 132 l 2,80,81
 789 132 789 132 779 135.5 c 128,-1,82
 769 139 769 139 769 150 c 0,52,53
1113 326 m 1,83,-1
 1141 561 l 1,84,-1
 1007 322 l 1,85,-1
 1113 326 l 1,83,-1
EndSplineSet
EndChar

StartChar: ordfeminine
Encoding: 170 170 95
Width: 903
Flags: W
LayerCount: 2
Fore
SplineSet
408 805 m 0,0,1
 351 805 351 805 310.5 828 c 128,-1,2
 270 851 270 851 243.5 891 c 128,-1,3
 217 931 217 931 205 984.5 c 128,-1,4
 193 1038 193 1038 193 1100 c 0,5,6
 193 1154 193 1154 199 1212.5 c 128,-1,7
 205 1271 205 1271 218 1333 c 0,8,9
 231 1398 231 1398 252.5 1450.5 c 128,-1,10
 274 1503 274 1503 306 1539.5 c 128,-1,11
 338 1576 338 1576 380.5 1596 c 128,-1,12
 423 1616 423 1616 479 1616 c 0,13,14
 508 1616 508 1616 530.5 1606 c 128,-1,15
 553 1596 553 1596 570.5 1578 c 128,-1,16
 588 1560 588 1560 601.5 1535.5 c 128,-1,17
 615 1511 615 1511 626 1482 c 1,18,-1
 634 1576 l 2,19,20
 635 1590 635 1590 641 1594.5 c 128,-1,21
 647 1599 647 1599 659 1600 c 2,22,-1
 833 1606 l 2,23,24
 844 1606 844 1606 848 1599 c 128,-1,25
 852 1592 852 1592 852 1581 c 1,26,-1
 773 863 l 2,27,28
 771 850 771 850 766 843.5 c 128,-1,29
 761 837 761 837 747 836 c 2,30,-1
 575 829 l 1,31,32
 553 831 553 831 553 849 c 1,33,-1
 563 926 l 1,34,35
 533 867 533 867 497.5 836 c 128,-1,36
 462 805 462 805 408 805 c 0,0,1
495 968 m 0,37,38
 511 968 511 968 525 974 c 128,-1,39
 539 980 539 980 550.5 996.5 c 128,-1,40
 562 1013 562 1013 571 1041 c 128,-1,41
 580 1069 580 1069 588 1114 c 0,42,43
 596 1161 596 1161 601 1207.5 c 128,-1,44
 606 1254 606 1254 606 1304 c 0,45,46
 606 1324 606 1324 604.5 1349 c 128,-1,47
 603 1374 603 1374 596.5 1396.5 c 128,-1,48
 590 1419 590 1419 576 1434.5 c 128,-1,49
 562 1450 562 1450 537 1450 c 0,50,51
 510 1450 510 1450 491 1436.5 c 128,-1,52
 472 1423 472 1423 458.5 1401.5 c 128,-1,53
 445 1380 445 1380 437 1354 c 128,-1,54
 429 1328 429 1328 425 1303 c 0,55,56
 423 1294 423 1294 420 1271.5 c 128,-1,57
 417 1249 417 1249 414 1221.5 c 128,-1,58
 411 1194 411 1194 408.5 1165 c 128,-1,59
 406 1136 406 1136 406 1114 c 0,60,61
 406 1095 406 1095 409.5 1070 c 128,-1,62
 413 1045 413 1045 422.5 1022.5 c 128,-1,63
 432 1000 432 1000 449.5 984 c 128,-1,64
 467 968 467 968 495 968 c 0,37,38
EndSplineSet
EndChar

StartChar: ordmasculine
Encoding: 186 186 96
Width: 883
Flags: W
LayerCount: 2
Fore
SplineSet
474 805 m 0,0,1
 338 805 338 805 265.5 879.5 c 128,-1,2
 193 954 193 954 193 1100 c 0,3,4
 193 1154 193 1154 199.5 1212.5 c 128,-1,5
 206 1271 206 1271 218 1333 c 0,6,7
 228 1383 228 1383 249.5 1433.5 c 128,-1,8
 271 1484 271 1484 308.5 1524.5 c 128,-1,9
 346 1565 346 1565 403 1590.5 c 128,-1,10
 460 1616 460 1616 542 1616 c 0,11,12
 675 1616 675 1616 747.5 1539.5 c 128,-1,13
 820 1463 820 1463 820 1320 c 0,14,15
 820 1266 820 1266 813.5 1207.5 c 128,-1,16
 807 1149 807 1149 795 1088 c 256,17,18
 783 1027 783 1027 761.5 975 c 128,-1,19
 740 923 740 923 703.5 885.5 c 128,-1,20
 667 848 667 848 611 826.5 c 128,-1,21
 555 805 555 805 474 805 c 0,0,1
487 970 m 0,22,23
 513 970 513 970 529.5 980.5 c 128,-1,24
 546 991 546 991 557.5 1010.5 c 128,-1,25
 569 1030 569 1030 576 1057.5 c 128,-1,26
 583 1085 583 1085 589 1118 c 0,27,28
 592 1134 592 1134 595 1157 c 128,-1,29
 598 1180 598 1180 601 1206 c 128,-1,30
 604 1232 604 1232 605.5 1258 c 128,-1,31
 607 1284 607 1284 607 1306 c 0,32,33
 607 1324 607 1324 605 1349.5 c 128,-1,34
 603 1375 603 1375 595 1398 c 128,-1,35
 587 1421 587 1421 572 1437 c 128,-1,36
 557 1453 557 1453 532 1453 c 0,37,38
 504 1453 504 1453 486 1440 c 128,-1,39
 468 1427 468 1427 456 1406 c 128,-1,40
 444 1385 444 1385 437 1358.5 c 128,-1,41
 430 1332 430 1332 426 1306 c 0,42,43
 418 1260 418 1260 412.5 1213 c 128,-1,44
 407 1166 407 1166 407 1116 c 0,45,46
 407 1096 407 1096 409 1071 c 128,-1,47
 411 1046 411 1046 418.5 1023.5 c 128,-1,48
 426 1001 426 1001 442 985.5 c 128,-1,49
 458 970 458 970 487 970 c 0,22,23
EndSplineSet
EndChar

StartChar: degree
Encoding: 176 176 97
Width: 840
Flags: W
LayerCount: 2
Fore
SplineSet
465 918 m 0,0,1
 393 918 393 918 340 941.5 c 128,-1,2
 287 965 287 965 252.5 1007 c 128,-1,3
 218 1049 218 1049 201 1107.5 c 128,-1,4
 184 1166 184 1166 184 1236 c 0,5,6
 184 1319 184 1319 206 1389.5 c 128,-1,7
 228 1460 228 1460 270 1512 c 128,-1,8
 312 1564 312 1564 371.5 1593 c 128,-1,9
 431 1622 431 1622 506 1622 c 0,10,11
 578 1622 578 1622 630.5 1598.5 c 128,-1,12
 683 1575 683 1575 718 1533 c 128,-1,13
 753 1491 753 1491 770 1432.5 c 128,-1,14
 787 1374 787 1374 787 1304 c 0,15,16
 787 1219 787 1219 765 1148 c 128,-1,17
 743 1077 743 1077 701 1026 c 128,-1,18
 659 975 659 975 599.5 946.5 c 128,-1,19
 540 918 540 918 465 918 c 0,0,1
479 1084 m 0,20,21
 513 1084 513 1084 539 1099.5 c 128,-1,22
 565 1115 565 1115 581.5 1142.5 c 128,-1,23
 598 1170 598 1170 606.5 1207.5 c 128,-1,24
 615 1245 615 1245 615 1289 c 0,25,26
 615 1325 615 1325 609.5 1355.5 c 128,-1,27
 604 1386 604 1386 590 1408.5 c 128,-1,28
 576 1431 576 1431 552 1444 c 128,-1,29
 528 1457 528 1457 491 1457 c 0,30,31
 456 1457 456 1457 430.5 1441.5 c 128,-1,32
 405 1426 405 1426 388.5 1399 c 128,-1,33
 372 1372 372 1372 363.5 1334 c 128,-1,34
 355 1296 355 1296 355 1251 c 0,35,36
 355 1215 355 1215 360.5 1184.5 c 128,-1,37
 366 1154 366 1154 379.5 1131.5 c 128,-1,38
 393 1109 393 1109 417 1096.5 c 128,-1,39
 441 1084 441 1084 479 1084 c 0,20,21
EndSplineSet
EndChar

StartChar: less
Encoding: 60 60 98
Width: 964
Flags: W
LayerCount: 2
Fore
SplineSet
219 625 m 2,0,1
 213 632 213 632 213 641 c 2,2,3
 213 641 213 641 214 652 c 128,-1,4
 215 663 215 663 216.5 676.5 c 128,-1,5
 218 690 218 690 219.5 702 c 128,-1,6
 221 714 221 714 222 716 c 0,7,8
 224 722 224 722 227 726 c 128,-1,9
 230 730 230 730 234 734 c 2,10,-1
 654 1077 l 2,11,12
 660 1083 660 1083 665 1086.5 c 128,-1,13
 670 1090 670 1090 676 1090 c 256,14,15
 682 1090 682 1090 688 1084 c 2,16,-1
 811 954 l 1,17,18
 816 946 816 946 816 939 c 256,19,20
 816 932 816 932 810 926 c 2,21,-1
 483 668 l 1,22,-1
 745 351 l 2,23,24
 747 349 747 349 749.5 345.5 c 128,-1,25
 752 342 752 342 752 337 c 0,26,27
 752 331 752 331 749.5 327 c 128,-1,28
 747 323 747 323 741 318 c 2,29,-1
 599 214 l 2,30,31
 595 211 595 211 591.5 208.5 c 128,-1,32
 588 206 588 206 584 206 c 0,33,34
 578 206 578 206 573.5 210.5 c 128,-1,35
 569 215 569 215 563 221 c 2,36,-1
 219 625 l 2,0,1
EndSplineSet
EndChar

StartChar: greater
Encoding: 62 62 99
Width: 964
Flags: W
LayerCount: 2
Fore
SplineSet
203 342 m 1,0,1
 198 349 198 349 198 357 c 0,2,3
 198 364 198 364 204 370 c 2,4,-1
 531 628 l 1,5,-1
 269 945 l 2,6,7
 267 947 267 947 264.5 950.5 c 128,-1,8
 262 954 262 954 262 959 c 0,9,10
 262 965 262 965 264.5 969 c 128,-1,11
 267 973 267 973 273 978 c 2,12,-1
 415 1082 l 2,13,14
 419 1085 419 1085 422.5 1087.5 c 128,-1,15
 426 1090 426 1090 430 1090 c 0,16,17
 436 1090 436 1090 440.5 1085.5 c 128,-1,18
 445 1081 445 1081 451 1075 c 2,19,-1
 795 671 l 2,20,21
 801 663 801 663 801 655 c 2,22,23
 801 655 801 655 800 644 c 128,-1,24
 799 633 799 633 797.5 619.5 c 128,-1,25
 796 606 796 606 794.5 594 c 128,-1,26
 793 582 793 582 792 580 c 0,27,28
 790 574 790 574 787 570 c 128,-1,29
 784 566 784 566 780 562 c 2,30,-1
 360 219 l 2,31,32
 354 213 354 213 349 209.5 c 128,-1,33
 344 206 344 206 338 206 c 256,34,35
 332 206 332 206 326 212 c 2,36,-1
 203 342 l 1,0,1
EndSplineSet
EndChar

StartChar: plus
Encoding: 43 43 100
Width: 964
Flags: W
LayerCount: 2
Fore
SplineSet
392 645 m 1,0,-1
 184 634 l 1,1,2
 170 635 170 635 164.5 641 c 128,-1,3
 159 647 159 647 159 660 c 1,4,-1
 180 839 l 2,5,6
 182 850 182 850 185.5 857 c 128,-1,7
 189 864 189 864 206 865 c 2,8,-1
 418 876 l 1,9,-1
 443 1100 l 2,10,11
 445 1112 445 1112 450 1118 c 128,-1,12
 455 1124 455 1124 470 1125 c 2,13,-1
 646 1131 l 1,14,15
 673 1129 673 1129 673 1106 c 1,16,-1
 648 888 l 1,17,-1
 860 899 l 1,18,19
 885 898 885 898 885 874 c 1,20,-1
 862 694 l 2,21,22
 860 682 860 682 855.5 676 c 128,-1,23
 851 670 851 670 838 669 c 2,24,-1
 623 657 l 1,25,-1
 595 409 l 2,26,27
 593 398 593 398 588.5 391 c 128,-1,28
 584 384 584 384 569 383 c 2,29,-1
 386 377 l 1,30,31
 364 379 364 379 364 398 c 1,32,-1
 392 645 l 1,0,-1
EndSplineSet
EndChar

StartChar: plusminus
Encoding: 177 177 101
Width: 964
Flags: W
LayerCount: 2
Fore
SplineSet
399 464 m 1,0,1
 377 466 377 466 377 485 c 1,2,-1
 405 732 l 1,3,-1
 197 721 l 1,4,5
 183 722 183 722 177.5 728 c 128,-1,6
 172 734 172 734 172 747 c 1,7,-1
 193 926 l 2,8,9
 195 937 195 937 198.5 944 c 128,-1,10
 202 951 202 951 219 952 c 2,11,-1
 431 963 l 1,12,-1
 456 1187 l 2,13,14
 458 1199 458 1199 463 1205 c 128,-1,15
 468 1211 468 1211 483 1212 c 2,16,-1
 659 1218 l 1,17,18
 686 1216 686 1216 686 1193 c 1,19,-1
 661 975 l 1,20,-1
 873 986 l 1,21,22
 898 985 898 985 898 961 c 1,23,-1
 875 781 l 2,24,25
 873 769 873 769 868.5 763 c 128,-1,26
 864 757 864 757 851 756 c 2,27,-1
 636 744 l 1,28,-1
 608 496 l 2,29,30
 606 485 606 485 601.5 478 c 128,-1,31
 597 471 597 471 582 470 c 2,32,-1
 399 464 l 1,0,1
128 120 m 1,33,34
 114 121 114 121 109 127 c 128,-1,35
 104 133 104 133 104 146 c 1,36,-1
 124 325 l 2,37,38
 126 336 126 336 129.5 343 c 128,-1,39
 133 350 133 350 150 351 c 2,40,-1
 805 375 l 1,41,42
 828 374 828 374 828 350 c 1,43,-1
 807 170 l 2,44,45
 805 158 805 158 800 152 c 128,-1,46
 795 146 795 146 782 145 c 2,47,-1
 128 120 l 1,33,34
EndSplineSet
EndChar

StartChar: hyphen
Encoding: 45 45 102
Width: 964
Flags: W
LayerCount: 2
Fore
SplineSet
179 634 m 1,0,1
 165 635 165 635 160 641 c 128,-1,2
 155 647 155 647 155 660 c 1,3,-1
 175 839 l 2,4,5
 177 850 177 850 180.5 857 c 128,-1,6
 184 864 184 864 201 865 c 2,7,-1
 856 889 l 1,8,9
 879 888 879 888 879 864 c 1,10,-1
 858 684 l 2,11,12
 856 672 856 672 851 666 c 128,-1,13
 846 660 846 660 833 659 c 2,14,-1
 179 634 l 1,15,-1
 179 634 l 1,0,1
EndSplineSet
EndChar

StartChar: equal
Encoding: 61 61 103
Width: 964
Flags: W
LayerCount: 2
Fore
SplineSet
197 827 m 1,0,1
 183 828 183 828 178 834 c 128,-1,2
 173 840 173 840 173 853 c 1,3,-1
 193 1032 l 2,4,5
 195 1043 195 1043 198.5 1050 c 128,-1,6
 202 1057 202 1057 219 1058 c 2,7,-1
 874 1082 l 1,8,9
 897 1081 897 1081 897 1057 c 1,10,-1
 876 877 l 2,11,12
 874 865 874 865 869 859 c 128,-1,13
 864 853 864 853 851 852 c 2,14,-1
 197 827 l 1,0,1
146 373 m 1,15,16
 132 374 132 374 127 380 c 128,-1,17
 122 386 122 386 122 399 c 1,18,-1
 142 578 l 2,19,20
 144 589 144 589 147.5 596 c 128,-1,21
 151 603 151 603 168 604 c 2,22,-1
 823 628 l 1,23,24
 846 627 846 627 846 603 c 1,25,-1
 825 423 l 2,26,27
 823 411 823 411 818 405 c 128,-1,28
 813 399 813 399 800 398 c 2,29,-1
 146 373 l 1,15,16
EndSplineSet
EndChar

StartChar: multiply
Encoding: 215 215 104
Width: 964
Flags: W
LayerCount: 2
Fore
SplineSet
159 482 m 2,0,1
 154 488 154 488 154 497 c 0,2,3
 154 504 154 504 160 510 c 2,4,-1
 397 725 l 1,5,-1
 234 940 l 2,6,7
 232 943 232 943 230 946.5 c 128,-1,8
 228 950 228 950 228 955 c 0,9,10
 228 965 228 965 240 974 c 2,11,-1
 372 1079 l 2,12,13
 379 1085 379 1085 384 1085 c 0,14,15
 391 1085 391 1085 395.5 1080.5 c 128,-1,16
 400 1076 400 1076 405 1070 c 2,17,-1
 557 870 l 1,18,-1
 779 1072 l 2,19,20
 786 1078 786 1078 791 1081.5 c 128,-1,21
 796 1085 796 1085 801 1085 c 0,22,23
 807 1085 807 1085 813 1079 c 2,24,-1
 915 951 l 2,25,26
 922 941 922 941 922 936 c 0,27,28
 922 928 922 928 914 923 c 1,29,-1
 680 709 l 1,30,-1
 857 478 l 1,31,32
 863 472 863 472 863 463 c 0,33,34
 863 458 863 458 861 454.5 c 128,-1,35
 859 451 859 451 852 445 c 2,36,-1
 727 334 l 2,37,38
 722 330 722 330 718.5 327.5 c 128,-1,39
 715 325 715 325 710 325 c 0,40,41
 704 325 704 325 699.5 330 c 128,-1,42
 695 335 695 335 690 340 c 2,43,-1
 521 562 l 1,44,-1
 299 359 l 2,45,46
 294 354 294 354 289 350 c 128,-1,47
 284 346 284 346 277 346 c 0,48,49
 272 346 272 346 265 353 c 2,50,-1
 159 482 l 2,0,1
EndSplineSet
EndChar

StartChar: divide
Encoding: 247 247 105
Width: 964
Flags: W
LayerCount: 2
Fore
SplineSet
527 869 m 0,0,1
 500 869 500 869 477.5 879 c 128,-1,2
 455 889 455 889 438.5 906 c 128,-1,3
 422 923 422 923 413 946 c 128,-1,4
 404 969 404 969 404 995 c 0,5,6
 404 1026 404 1026 416.5 1053.5 c 128,-1,7
 429 1081 429 1081 450.5 1101.5 c 128,-1,8
 472 1122 472 1122 500 1134 c 128,-1,9
 528 1146 528 1146 559 1146 c 0,10,11
 586 1146 586 1146 608.5 1136 c 128,-1,12
 631 1126 631 1126 647.5 1109 c 128,-1,13
 664 1092 664 1092 673.5 1069.5 c 128,-1,14
 683 1047 683 1047 683 1021 c 0,15,16
 683 989 683 989 670 961.5 c 128,-1,17
 657 934 657 934 635.5 913.5 c 128,-1,18
 614 893 614 893 586 881 c 128,-1,19
 558 869 558 869 527 869 c 0,0,1
171 526 m 1,20,21
 157 527 157 527 152 533 c 128,-1,22
 147 539 147 539 147 552 c 1,23,-1
 167 731 l 2,24,25
 169 742 169 742 172.5 749 c 128,-1,26
 176 756 176 756 193 757 c 2,27,-1
 848 781 l 1,28,29
 871 780 871 780 871 756 c 1,30,-1
 850 576 l 2,31,32
 848 564 848 564 843 558 c 128,-1,33
 838 552 838 552 825 551 c 2,34,-1
 171 526 l 1,20,21
324 294 m 0,35,36
 324 325 324 325 336.5 352.5 c 128,-1,37
 349 380 349 380 370.5 400.5 c 128,-1,38
 392 421 392 421 420 433 c 128,-1,39
 448 445 448 445 479 445 c 0,40,41
 506 445 506 445 528.5 435 c 128,-1,42
 551 425 551 425 567.5 408 c 128,-1,43
 584 391 584 391 593.5 368.5 c 128,-1,44
 603 346 603 346 603 320 c 0,45,46
 603 288 603 288 590 260.5 c 128,-1,47
 577 233 577 233 555.5 212.5 c 128,-1,48
 534 192 534 192 506 180 c 128,-1,49
 478 168 478 168 447 168 c 0,50,51
 420 168 420 168 397.5 178 c 128,-1,52
 375 188 375 188 358.5 205 c 128,-1,53
 342 222 342 222 333 245 c 128,-1,54
 324 268 324 268 324 294 c 0,35,36
EndSplineSet
EndChar

StartChar: logicalnot
Encoding: 172 172 106
Width: 964
Flags: W
LayerCount: 2
Fore
SplineSet
179 634 m 1,0,1
 165 635 165 635 160 641 c 128,-1,2
 155 647 155 647 155 660 c 1,3,-1
 175 839 l 2,4,5
 177 850 177 850 180.5 856.5 c 128,-1,6
 184 863 184 863 201 865 c 1,7,-1
 854 889 l 1,8,9
 868 888 868 888 873.5 882 c 128,-1,10
 879 876 879 876 879 864 c 1,11,-1
 836 475 l 2,12,13
 834 464 834 464 829 457.5 c 128,-1,14
 824 451 824 451 810 450 c 2,15,-1
 626 444 l 1,16,17
 605 447 605 447 605 465 c 1,18,-1
 626 652 l 1,19,-1
 179 634 l 1,20,-1
 179 634 l 1,0,1
EndSplineSet
EndChar

StartChar: mu
Encoding: 181 181 107
AltUni2: 0003bc.ffffffff.0
Width: 1134
Flags: W
LayerCount: 2
Fore
SplineSet
312 -454 m 2,0,1
 310 -466 310 -466 305.5 -472.5 c 128,-1,2
 301 -479 301 -479 286 -480 c 2,3,-1
 84 -487 l 1,4,5
 62 -485 62 -485 62 -467 c 1,6,-1
 249 1178 l 2,7,8
 251 1189 251 1189 255.5 1195 c 128,-1,9
 260 1201 260 1201 274 1202 c 2,10,-1
 469 1209 l 1,11,12
 496 1207 496 1207 496 1183 c 1,13,-1
 404 352 l 1,14,15
 404 307 404 307 416 279.5 c 128,-1,16
 428 252 428 252 448.5 237 c 128,-1,17
 469 222 469 222 494.5 217 c 128,-1,18
 520 212 520 212 547 212 c 0,19,20
 602 212 602 212 666 237 c 1,21,-1
 771 1177 l 2,22,23
 773 1188 773 1188 778 1194.5 c 128,-1,24
 783 1201 783 1201 797 1202 c 2,25,-1
 998 1209 l 1,26,27
 1021 1207 1021 1207 1021 1188 c 1,28,-1
 916 265 l 2,29,30
 916 257 916 257 921 250.5 c 128,-1,31
 926 244 926 244 939 244 c 2,32,-1
 1047 250 l 1,33,34
 1078 250 1078 250 1078 222 c 1,35,-1
 1057 35 l 2,36,37
 1055 19 1055 19 1050.5 13.5 c 128,-1,38
 1046 8 1046 8 1034 7 c 0,39,40
 1012 6 1012 6 969.5 4 c 128,-1,41
 927 2 927 2 880 0.5 c 128,-1,42
 833 -1 833 -1 787.5 -2.5 c 128,-1,43
 742 -4 742 -4 714 -4 c 0,44,45
 679 -4 679 -4 663.5 14.5 c 128,-1,46
 648 33 648 33 647 65 c 1,47,48
 613 32 613 32 569 10.5 c 128,-1,49
 525 -11 525 -11 466 -11 c 0,50,51
 433 -11 433 -11 408.5 -4 c 128,-1,52
 384 3 384 3 365 16 c 1,53,-1
 312 -454 l 2,0,1
EndSplineSet
EndChar

StartChar: percent
Encoding: 37 37 108
Width: 1452
Flags: W
LayerCount: 2
Fore
SplineSet
211 65 m 0,0,1
 211 75 211 75 216 85 c 2,2,-1
 1158 1616 l 1,3,4
 1163 1627 1163 1627 1169 1633 c 128,-1,5
 1175 1639 1175 1639 1186 1639 c 1,6,-1
 1308 1573 l 2,7,8
 1328 1562 1328 1562 1328 1547 c 0,9,10
 1328 1537 1328 1537 1322 1527 c 2,11,-1
 381 -4 l 2,12,13
 375 -15 375 -15 369 -21 c 128,-1,14
 363 -27 363 -27 351 -27 c 1,15,-1
 230 39 l 2,16,17
 211 49 211 49 211 65 c 0,0,1
425 895 m 0,18,19
 353 895 353 895 300 920.5 c 128,-1,20
 247 946 247 946 212.5 990 c 128,-1,21
 178 1034 178 1034 161 1094.5 c 128,-1,22
 144 1155 144 1155 144 1225 c 0,23,24
 144 1308 144 1308 166 1380.5 c 128,-1,25
 188 1453 188 1453 230 1506.5 c 128,-1,26
 272 1560 272 1560 331.5 1591 c 128,-1,27
 391 1622 391 1622 466 1622 c 0,28,29
 538 1622 538 1622 590.5 1597 c 128,-1,30
 643 1572 643 1572 678 1528 c 128,-1,31
 713 1484 713 1484 730 1423.5 c 128,-1,32
 747 1363 747 1363 747 1293 c 0,33,34
 747 1208 747 1208 725 1135.5 c 128,-1,35
 703 1063 703 1063 661 1009.5 c 128,-1,36
 619 956 619 956 559.5 925.5 c 128,-1,37
 500 895 500 895 425 895 c 0,18,19
439 1062 m 0,38,39
 473 1062 473 1062 499 1079 c 128,-1,40
 525 1096 525 1096 541.5 1125 c 128,-1,41
 558 1154 558 1154 566.5 1193.5 c 128,-1,42
 575 1233 575 1233 575 1278 c 0,43,44
 575 1314 575 1314 569.5 1346 c 128,-1,45
 564 1378 564 1378 550 1403 c 128,-1,46
 536 1428 536 1428 512 1442.5 c 128,-1,47
 488 1457 488 1457 451 1457 c 0,48,49
 416 1457 416 1457 390.5 1439.5 c 128,-1,50
 365 1422 365 1422 348.5 1392.5 c 128,-1,51
 332 1363 332 1363 323.5 1323.5 c 128,-1,52
 315 1284 315 1284 315 1240 c 0,53,54
 315 1204 315 1204 320.5 1172 c 128,-1,55
 326 1140 326 1140 339.5 1115.5 c 128,-1,56
 353 1091 353 1091 377 1076.5 c 128,-1,57
 401 1062 401 1062 439 1062 c 0,38,39
782 314 m 0,58,59
 782 396 782 396 804 468.5 c 128,-1,60
 826 541 826 541 867.5 595 c 128,-1,61
 909 649 909 649 968.5 680.5 c 128,-1,62
 1028 712 1028 712 1103 712 c 0,63,64
 1175 712 1175 712 1228 686.5 c 128,-1,65
 1281 661 1281 661 1316 617 c 128,-1,66
 1351 573 1351 573 1368 512.5 c 128,-1,67
 1385 452 1385 452 1385 382 c 0,68,69
 1385 297 1385 297 1362.5 224.5 c 128,-1,70
 1340 152 1340 152 1298 98.5 c 128,-1,71
 1256 45 1256 45 1196 15 c 128,-1,72
 1136 -15 1136 -15 1061 -15 c 0,73,74
 990 -15 990 -15 937.5 10 c 128,-1,75
 885 35 885 35 850.5 79 c 128,-1,76
 816 123 816 123 799 183 c 128,-1,77
 782 243 782 243 782 314 c 0,58,59
951 329 m 0,78,79
 951 294 951 294 956.5 261.5 c 128,-1,80
 962 229 962 229 976.5 204 c 128,-1,81
 991 179 991 179 1015 164 c 128,-1,82
 1039 149 1039 149 1077 149 c 0,83,84
 1111 149 1111 149 1136 166.5 c 128,-1,85
 1161 184 1161 184 1178 213.5 c 128,-1,86
 1195 243 1195 243 1203.5 282.5 c 128,-1,87
 1212 322 1212 322 1212 366 c 0,88,89
 1212 402 1212 402 1206.5 434.5 c 128,-1,90
 1201 467 1201 467 1187.5 492 c 128,-1,91
 1174 517 1174 517 1150 531.5 c 128,-1,92
 1126 546 1126 546 1089 546 c 0,93,94
 1054 546 1054 546 1028.5 529 c 128,-1,95
 1003 512 1003 512 985.5 482.5 c 128,-1,96
 968 453 968 453 959.5 413.5 c 128,-1,97
 951 374 951 374 951 329 c 0,78,79
EndSplineSet
EndChar

StartChar: numbersign
Encoding: 35 35 109
Width: 1295
Flags: W
LayerCount: 2
Fore
SplineSet
315 401 m 1,0,-1
 130 395 l 1,1,2
 116 396 116 396 110.5 402 c 128,-1,3
 105 408 105 408 105 419 c 1,4,-1
 122 580 l 2,5,6
 123 591 123 591 127.5 597.5 c 128,-1,7
 132 604 132 604 149 605 c 2,8,-1
 354 612 l 1,9,-1
 420 970 l 1,10,-1
 194 962 l 1,11,12
 180 963 180 963 174.5 969 c 128,-1,13
 169 975 169 975 169 986 c 1,14,-1
 187 1146 l 2,15,16
 189 1157 189 1157 192.5 1164 c 128,-1,17
 196 1171 196 1171 213 1172 c 2,18,-1
 458 1180 l 1,19,-1
 534 1590 l 2,20,21
 536 1602 536 1602 541 1608 c 128,-1,22
 546 1614 546 1614 560 1615 c 2,23,-1
 715 1621 l 1,24,25
 740 1619 740 1619 740 1596 c 1,26,-1
 665 1188 l 1,27,-1
 869 1195 l 1,28,-1
 942 1590 l 2,29,30
 944 1602 944 1602 948.5 1607.5 c 128,-1,31
 953 1613 953 1613 968 1615 c 1,32,-1
 1123 1621 l 1,33,34
 1148 1619 1148 1619 1148 1596 c 1,35,-1
 1075 1202 l 1,36,-1
 1262 1209 l 1,37,38
 1285 1208 1285 1208 1285 1183 c 1,39,-1
 1266 1023 l 2,40,41
 1264 1011 1264 1011 1259.5 1005 c 128,-1,42
 1255 999 1255 999 1241 998 c 2,43,-1
 1036 991 l 1,44,-1
 970 635 l 1,45,-1
 1196 643 l 1,46,47
 1210 642 1210 642 1215.5 635.5 c 128,-1,48
 1221 629 1221 629 1221 616 c 1,49,-1
 1201 457 l 2,50,51
 1199 445 1199 445 1194.5 438.5 c 128,-1,52
 1190 432 1190 432 1176 431 c 2,53,-1
 931 422 l 1,54,-1
 859 29 l 2,55,56
 857 16 857 16 852.5 9.5 c 128,-1,57
 848 3 848 3 833 2 c 2,58,-1
 673 -4 l 1,59,60
 652 -2 652 -2 652 15 c 1,61,-1
 725 415 l 1,62,-1
 521 408 l 1,63,-1
 451 29 l 2,64,65
 449 16 449 16 444.5 9.5 c 128,-1,66
 440 3 440 3 425 2 c 2,67,-1
 265 -4 l 1,68,69
 244 -2 244 -2 244 15 c 1,70,-1
 315 401 l 1,0,-1
764 627 m 1,71,-1
 830 984 l 1,72,-1
 626 977 l 1,73,-1
 560 620 l 1,74,-1
 764 627 l 1,71,-1
EndSplineSet
EndChar

StartChar: asterisk
Encoding: 42 42 110
Width: 992
Flags: W
LayerCount: 2
Fore
SplineSet
314 977 m 256,0,1
 306 977 306 977 301 985 c 1,2,-1
 195 1102 l 1,3,4
 192 1108 192 1108 190 1113 c 128,-1,5
 188 1118 188 1118 188 1123 c 0,6,7
 188 1132 188 1132 195 1138 c 1,8,-1
 463 1278 l 1,9,-1
 213 1406 l 2,10,11
 202 1411 202 1411 202 1424 c 0,12,13
 202 1428 202 1428 205 1436 c 1,14,-1
 285 1571 l 1,15,16
 290 1577 290 1577 295.5 1581.5 c 128,-1,17
 301 1586 301 1586 308 1586 c 0,18,19
 314 1586 314 1586 319 1583 c 1,20,-1
 530 1375 l 1,21,-1
 575 1662 l 2,22,23
 577 1670 577 1670 582 1675 c 128,-1,24
 587 1680 587 1680 594 1680 c 0,25,26
 596 1680 596 1680 597 1679.5 c 128,-1,27
 598 1679 598 1679 600 1679 c 2,28,-1
 753 1642 l 2,29,30
 765 1639 765 1639 769.5 1632 c 128,-1,31
 774 1625 774 1625 774 1612 c 1,32,-1
 637 1336 l 1,33,-1
 917 1381 l 1,34,35
 926 1380 926 1380 932 1376 c 128,-1,36
 938 1372 938 1372 940 1361 c 1,37,-1
 954 1205 l 2,38,39
 954 1194 954 1194 949 1185.5 c 128,-1,40
 944 1177 944 1177 932 1177 c 1,41,-1
 649 1218 l 1,42,-1
 772 975 l 2,43,44
 773 972 773 972 773 967 c 256,45,46
 773 962 773 962 770.5 956.5 c 128,-1,47
 768 951 768 951 762 947 c 1,48,-1
 617 886 l 1,49,50
 609 884 609 884 603 884 c 0,51,52
 589 884 589 884 582 896 c 1,53,-1
 535 1190 l 1,54,-1
 328 983 l 2,55,56
 322 977 322 977 314 977 c 256,0,1
EndSplineSet
EndChar

StartChar: endash
Encoding: 8211 8211 111
Width: 1407
Flags: W
LayerCount: 2
Fore
SplineSet
196 654 m 1,0,1
 170 655 170 655 170 679 c 1,2,-1
 191 860 l 2,3,4
 193 871 193 871 197 877 c 128,-1,5
 201 883 201 883 217 884 c 2,6,-1
 1287 921 l 1,7,8
 1301 920 1301 920 1306.5 913.5 c 128,-1,9
 1312 907 1312 907 1312 896 c 1,10,-1
 1289 716 l 2,11,12
 1287 704 1287 704 1283 698 c 128,-1,13
 1279 692 1279 692 1265 691 c 2,14,-1
 196 654 l 1,15,-1
 196 654 l 1,0,1
EndSplineSet
EndChar

StartChar: emdash
Encoding: 8212 8212 112
Width: 2534
Flags: W
LayerCount: 2
Fore
SplineSet
196 654 m 1,0,1
 170 655 170 655 170 679 c 1,2,-1
 191 860 l 2,3,4
 193 871 193 871 197 877 c 128,-1,5
 201 883 201 883 217 884 c 2,6,-1
 2419 963 l 1,7,8
 2443 961 2443 961 2443 937 c 1,9,-1
 2421 758 l 2,10,11
 2419 744 2419 744 2414 738.5 c 128,-1,12
 2409 733 2409 733 2396 731 c 1,13,-1
 196 654 l 1,14,-1
 196 654 l 1,0,1
EndSplineSet
EndChar

StartChar: slash
Encoding: 47 47 113
Width: 519
Flags: W
LayerCount: 2
Fore
SplineSet
443 1715 m 2,0,1
 446 1728 446 1728 450.5 1734 c 128,-1,2
 455 1740 455 1740 470 1741 c 1,3,-1
 612 1709 l 1,4,5
 638 1705 638 1705 638 1684 c 1,6,-1
 106 -377 l 2,7,8
 103 -390 103 -390 98.5 -397 c 128,-1,9
 94 -404 94 -404 80 -404 c 1,10,-1
 -68 -371 l 2,11,12
 -78 -368 -78 -368 -83 -363.5 c 128,-1,13
 -88 -359 -88 -359 -88 -350 c 1,14,-1
 443 1715 l 2,0,1
EndSplineSet
EndChar

StartChar: backslash
Encoding: 92 92 114
Width: 519
Flags: W
LayerCount: 2
Fore
SplineSet
62 1684 m 1,0,1
 62 1695 62 1695 69 1700.5 c 128,-1,2
 76 1706 76 1706 89 1709 c 2,3,-1
 233 1741 l 1,4,5
 248 1740 248 1740 252 1734 c 128,-1,6
 256 1728 256 1728 258 1715 c 2,7,-1
 609 -350 l 1,8,9
 609 -359 609 -359 603 -363.5 c 128,-1,10
 597 -368 597 -368 587 -371 c 2,11,-1
 436 -404 l 1,12,13
 422 -404 422 -404 418 -397 c 128,-1,14
 414 -390 414 -390 412 -377 c 2,15,-1
 62 1684 l 1,0,1
EndSplineSet
EndChar

StartChar: bar
Encoding: 124 124 115
Width: 538
Flags: W
LayerCount: 2
Fore
SplineSet
317 1658 m 2,0,1
 319 1672 319 1672 323.5 1678 c 128,-1,2
 328 1684 328 1684 343 1685 c 2,3,-1
 472 1690 l 1,4,5
 498 1688 498 1688 498 1663 c 1,6,-1
 264 -436 l 2,7,8
 262 -448 262 -448 257 -454.5 c 128,-1,9
 252 -461 252 -461 237 -463 c 1,10,-1
 103 -468 l 1,11,12
 81 -467 81 -467 81 -448 c 1,13,-1
 317 1658 l 2,0,1
EndSplineSet
EndChar

StartChar: brokenbar
Encoding: 166 166 116
Width: 538
Flags: W
LayerCount: 2
Fore
SplineSet
240 764 m 1,0,1
 218 767 218 767 218 784 c 1,2,-1
 317 1658 l 2,3,4
 319 1672 319 1672 323.5 1678 c 128,-1,5
 328 1684 328 1684 343 1685 c 2,6,-1
 472 1690 l 1,7,8
 498 1688 498 1688 498 1663 c 1,9,-1
 400 795 l 2,10,11
 398 784 398 784 393.5 778 c 128,-1,12
 389 772 389 772 375 770 c 1,13,-1
 240 764 l 1,0,1
179 427 m 2,14,15
 181 439 181 439 186 445 c 128,-1,16
 191 451 191 451 206 452 c 2,17,-1
 335 458 l 1,18,19
 361 456 361 456 361 431 c 1,20,-1
 264 -436 l 2,21,22
 262 -448 262 -448 257 -454.5 c 128,-1,23
 252 -461 252 -461 237 -463 c 1,24,-1
 103 -468 l 1,25,26
 81 -467 81 -467 81 -448 c 1,27,-1
 179 427 l 2,14,15
EndSplineSet
EndChar

StartChar: paragraph
Encoding: 182 182 117
Width: 1170
Flags: W
LayerCount: 2
Fore
SplineSet
363 -103 m 1,0,1
 366 -92 366 -92 370.5 -85.5 c 128,-1,2
 375 -79 375 -79 389 -79 c 0,3,4
 462 -79 462 -79 510.5 -66 c 128,-1,5
 559 -53 559 -53 588 -28.5 c 128,-1,6
 617 -4 617 -4 631 32 c 128,-1,7
 645 68 645 68 650 114 c 2,8,-1
 701 582 l 1,9,10
 678 581 678 581 652 581 c 128,-1,11
 626 581 626 581 594 581 c 0,12,13
 510 581 510 581 444.5 605 c 128,-1,14
 379 629 379 629 333 673.5 c 128,-1,15
 287 718 287 718 263 782 c 128,-1,16
 239 846 239 846 239 927 c 0,17,18
 239 984 239 984 245.5 1047.5 c 128,-1,19
 252 1111 252 1111 265.5 1174 c 128,-1,20
 279 1237 279 1237 300.5 1297.5 c 128,-1,21
 322 1358 322 1358 352 1410 c 0,22,23
 384 1466 384 1466 425 1505.5 c 128,-1,24
 466 1545 466 1545 518 1569.5 c 128,-1,25
 570 1594 570 1594 634 1605 c 128,-1,26
 698 1616 698 1616 776 1616 c 0,27,28
 875 1616 875 1616 962 1604 c 128,-1,29
 1049 1592 1049 1592 1117 1575 c 0,30,31
 1134 1570 1134 1570 1138.5 1564.5 c 128,-1,32
 1143 1559 1143 1559 1143 1548 c 1,33,-1
 1124 1391 l 2,34,35
 1122 1378 1122 1378 1117 1371.5 c 128,-1,36
 1112 1365 1112 1365 1098 1363 c 1,37,-1
 1066 1361 l 2,38,39
 1052 1360 1052 1360 1047.5 1354 c 128,-1,40
 1043 1348 1043 1348 1041 1336 c 2,41,-1
 904 137 l 2,42,43
 889 2 889 2 846 -88 c 128,-1,44
 803 -178 803 -178 735 -231 c 128,-1,45
 667 -284 667 -284 573.5 -306 c 128,-1,46
 480 -328 480 -328 364 -328 c 0,47,48
 339 -328 339 -328 339 -304 c 1,49,-1
 363 -103 l 1,0,1
724 785 m 1,50,-1
 789 1376 l 1,51,52
 744 1376 744 1376 713.5 1373 c 128,-1,53
 683 1370 683 1370 660.5 1362 c 128,-1,54
 638 1354 638 1354 620 1340 c 128,-1,55
 602 1326 602 1326 584 1303 c 1,56,57
 566 1282 566 1282 552 1242.5 c 128,-1,58
 538 1203 538 1203 528 1157.5 c 128,-1,59
 518 1112 518 1112 512.5 1064.5 c 128,-1,60
 507 1017 507 1017 507 979 c 0,61,62
 507 938 507 938 519.5 902.5 c 128,-1,63
 532 867 532 867 555.5 841 c 128,-1,64
 579 815 579 815 613.5 800 c 128,-1,65
 648 785 648 785 693 785 c 2,66,-1
 724 785 l 1,50,-1
EndSplineSet
EndChar

StartChar: braceleft
Encoding: 123 123 118
Width: 762
Flags: W
LayerCount: 2
Fore
SplineSet
271 -65 m 0,0,1
 271 -46 271 -46 272.5 -19.5 c 128,-1,2
 274 7 274 7 277 38.5 c 128,-1,3
 280 70 280 70 283.5 104 c 128,-1,4
 287 138 287 138 291 173 c 0,5,6
 295 205 295 205 298 236 c 128,-1,7
 301 267 301 267 303.5 295 c 128,-1,8
 306 323 306 323 307.5 346 c 128,-1,9
 309 369 309 369 309 385 c 0,10,11
 309 464 309 464 282.5 507.5 c 128,-1,12
 256 551 256 551 191 551 c 0,13,14
 167 551 167 551 167 576 c 1,15,-1
 182 723 l 2,16,17
 184 734 184 734 189.5 740 c 128,-1,18
 195 746 195 746 209 748 c 1,19,20
 239 748 239 748 266 757 c 128,-1,21
 293 766 293 766 314.5 784 c 128,-1,22
 336 802 336 802 350 829 c 128,-1,23
 364 856 364 856 368 891 c 0,24,25
 376 964 376 964 386 1040 c 128,-1,26
 396 1116 396 1116 407 1190.5 c 128,-1,27
 418 1265 418 1265 431.5 1336 c 128,-1,28
 445 1407 445 1407 461 1470 c 0,29,30
 468 1497 468 1497 480 1528 c 128,-1,31
 492 1559 492 1559 513 1589.5 c 128,-1,32
 534 1620 534 1620 565.5 1647.5 c 128,-1,33
 597 1675 597 1675 642.5 1696.5 c 128,-1,34
 688 1718 688 1718 749 1730.5 c 128,-1,35
 810 1743 810 1743 890 1743 c 0,36,37
 905 1743 905 1743 912 1737.5 c 128,-1,38
 919 1732 919 1732 919 1713 c 1,39,-1
 898 1538 l 2,40,41
 896 1527 896 1527 891.5 1520 c 128,-1,42
 887 1513 887 1513 877 1513 c 0,43,44
 782 1513 782 1513 734 1472 c 128,-1,45
 686 1431 686 1431 674 1363 c 0,46,47
 663 1303 663 1303 652.5 1237 c 128,-1,48
 642 1171 642 1171 632 1106 c 128,-1,49
 622 1041 622 1041 614 981 c 128,-1,50
 606 921 606 921 601 873 c 0,51,52
 596 828 596 828 581.5 791 c 128,-1,53
 567 754 567 754 540 726.5 c 128,-1,54
 513 699 513 699 472 682 c 128,-1,55
 431 665 431 665 374 662 c 1,56,57
 423 649 423 649 455.5 629.5 c 128,-1,58
 488 610 488 610 507.5 580 c 128,-1,59
 527 550 527 550 535 506 c 128,-1,60
 543 462 543 462 543 399 c 0,61,62
 543 361 543 361 538.5 308 c 128,-1,63
 534 255 534 255 527 195 c 0,64,65
 521 142 521 142 517.5 88 c 128,-1,66
 514 34 514 34 514 -15 c 0,67,68
 514 -47 514 -47 518.5 -78.5 c 128,-1,69
 523 -110 523 -110 537 -135 c 128,-1,70
 551 -160 551 -160 575.5 -175.5 c 128,-1,71
 600 -191 600 -191 641 -191 c 0,72,73
 653 -191 653 -191 658 -198.5 c 128,-1,74
 663 -206 663 -206 663 -216 c 1,75,-1
 639 -401 l 2,76,77
 637 -413 637 -413 632.5 -420 c 128,-1,78
 628 -427 628 -427 613 -427 c 0,79,80
 526 -427 526 -427 462 -401 c 128,-1,81
 398 -375 398 -375 355.5 -327 c 128,-1,82
 313 -279 313 -279 292 -212.5 c 128,-1,83
 271 -146 271 -146 271 -65 c 0,0,1
EndSplineSet
EndChar

StartChar: braceright
Encoding: 125 125 119
Width: 762
Flags: W
LayerCount: 2
Fore
SplineSet
143 -47 m 0,0,1
 154 13 154 13 164.5 79 c 128,-1,2
 175 145 175 145 185 210 c 128,-1,3
 195 275 195 275 203 335 c 128,-1,4
 211 395 211 395 216 443 c 0,5,6
 221 488 221 488 235.5 525 c 128,-1,7
 250 562 250 562 277 589.5 c 128,-1,8
 304 617 304 617 345 634 c 128,-1,9
 386 651 386 651 443 654 c 1,10,11
 394 667 394 667 361.5 686.5 c 128,-1,12
 329 706 329 706 309.5 736 c 128,-1,13
 290 766 290 766 282 810 c 128,-1,14
 274 854 274 854 274 917 c 0,15,16
 274 955 274 955 278.5 1008 c 128,-1,17
 283 1061 283 1061 290 1121 c 0,18,19
 296 1174 296 1174 299.5 1228 c 128,-1,20
 303 1282 303 1282 303 1331 c 0,21,22
 303 1363 303 1363 298.5 1394.5 c 128,-1,23
 294 1426 294 1426 280 1451 c 128,-1,24
 266 1476 266 1476 241 1491.5 c 128,-1,25
 216 1507 216 1507 176 1507 c 0,26,27
 164 1507 164 1507 159 1514.5 c 128,-1,28
 154 1522 154 1522 154 1532 c 1,29,-1
 178 1717 l 2,30,31
 180 1729 180 1729 184.5 1736 c 128,-1,32
 189 1743 189 1743 204 1743 c 0,33,34
 291 1743 291 1743 355 1717 c 128,-1,35
 419 1691 419 1691 461.5 1643 c 128,-1,36
 504 1595 504 1595 525 1528.5 c 128,-1,37
 546 1462 546 1462 546 1381 c 0,38,39
 546 1362 546 1362 544.5 1335.5 c 128,-1,40
 543 1309 543 1309 540 1277.5 c 128,-1,41
 537 1246 537 1246 533.5 1211.5 c 128,-1,42
 530 1177 530 1177 526 1143 c 0,43,44
 522 1111 522 1111 519 1080 c 128,-1,45
 516 1049 516 1049 513.5 1021 c 128,-1,46
 511 993 511 993 509.5 970 c 128,-1,47
 508 947 508 947 508 931 c 0,48,49
 508 851 508 851 534.5 808 c 128,-1,50
 561 765 561 765 626 765 c 0,51,52
 650 765 650 765 650 740 c 1,53,-1
 635 593 l 2,54,55
 633 582 633 582 627.5 576 c 128,-1,56
 622 570 622 570 608 568 c 1,57,58
 578 568 578 568 551 559 c 128,-1,59
 524 550 524 550 502.5 532 c 128,-1,60
 481 514 481 514 467 487 c 128,-1,61
 453 460 453 460 449 425 c 0,62,63
 441 352 441 352 431 276 c 128,-1,64
 421 200 421 200 410 125.5 c 128,-1,65
 399 51 399 51 385.5 -20 c 128,-1,66
 372 -91 372 -91 356 -154 c 0,67,68
 349 -181 349 -181 337 -212 c 128,-1,69
 325 -243 325 -243 304 -273.5 c 128,-1,70
 283 -304 283 -304 251.5 -331.5 c 128,-1,71
 220 -359 220 -359 174.5 -380.5 c 128,-1,72
 129 -402 129 -402 68 -414.5 c 128,-1,73
 7 -427 7 -427 -73 -427 c 0,74,75
 -88 -427 -88 -427 -95 -421.5 c 128,-1,76
 -102 -416 -102 -416 -102 -397 c 1,77,-1
 -81 -222 l 2,78,79
 -79 -211 -79 -211 -74.5 -204 c 128,-1,80
 -70 -197 -70 -197 -60 -197 c 0,81,82
 35 -197 35 -197 83 -156 c 128,-1,83
 131 -115 131 -115 143 -47 c 0,0,1
EndSplineSet
EndChar

StartChar: parenleft
Encoding: 40 40 120
Width: 694
Flags: W
LayerCount: 2
Fore
SplineSet
183 -65 m 0,0,1
 183 4 183 4 188.5 101.5 c 128,-1,2
 194 199 194 199 204 312 c 128,-1,3
 214 425 214 425 227 548 c 128,-1,4
 240 671 240 671 255.5 793.5 c 128,-1,5
 271 916 271 916 287.5 1031 c 128,-1,6
 304 1146 304 1146 321 1243 c 0,7,8
 334 1315 334 1315 348.5 1380.5 c 128,-1,9
 363 1446 363 1446 385 1501.5 c 128,-1,10
 407 1557 407 1557 440 1601.5 c 128,-1,11
 473 1646 473 1646 522 1677.5 c 128,-1,12
 571 1709 571 1709 640 1726 c 128,-1,13
 709 1743 709 1743 803 1743 c 0,14,15
 819 1743 819 1743 826 1737.5 c 128,-1,16
 833 1732 833 1732 833 1713 c 1,17,-1
 811 1538 l 2,18,19
 808 1513 808 1513 789 1513 c 0,20,21
 742 1513 742 1513 705.5 1501.5 c 128,-1,22
 669 1490 669 1490 641 1460.5 c 128,-1,23
 613 1431 613 1431 593.5 1381.5 c 128,-1,24
 574 1332 574 1332 561 1256 c 0,25,26
 555 1222 555 1222 546 1165.5 c 128,-1,27
 537 1109 537 1109 526.5 1036 c 128,-1,28
 516 963 516 963 504.5 876 c 128,-1,29
 493 789 493 789 482 695.5 c 128,-1,30
 471 602 471 602 461 505.5 c 128,-1,31
 451 409 451 409 443.5 315 c 128,-1,32
 436 221 436 221 431.5 133 c 128,-1,33
 427 45 427 45 427 -30 c 0,34,35
 427 -119 427 -119 461 -155 c 128,-1,36
 495 -191 495 -191 554 -191 c 0,37,38
 567 -191 567 -191 571 -198.5 c 128,-1,39
 575 -206 575 -206 575 -216 c 1,40,-1
 552 -401 l 2,41,42
 550 -413 550 -413 545.5 -420 c 128,-1,43
 541 -427 541 -427 527 -427 c 0,44,45
 440 -427 440 -427 375.5 -401 c 128,-1,46
 311 -375 311 -375 268 -327 c 128,-1,47
 225 -279 225 -279 204 -212.5 c 128,-1,48
 183 -146 183 -146 183 -65 c 0,0,1
EndSplineSet
EndChar

StartChar: parenright
Encoding: 41 41 121
Width: 694
Flags: W
LayerCount: 2
Fore
SplineSet
178 60 m 0,0,1
 184 94 184 94 193 150.5 c 128,-1,2
 202 207 202 207 212.5 280 c 128,-1,3
 223 353 223 353 234.5 440 c 128,-1,4
 246 527 246 527 257 620.5 c 128,-1,5
 268 714 268 714 278 810.5 c 128,-1,6
 288 907 288 907 295.5 1001 c 128,-1,7
 303 1095 303 1095 307.5 1183 c 128,-1,8
 312 1271 312 1271 312 1346 c 0,9,10
 312 1391 312 1391 303 1421.5 c 128,-1,11
 294 1452 294 1452 277.5 1471 c 128,-1,12
 261 1490 261 1490 237.5 1498.5 c 128,-1,13
 214 1507 214 1507 185 1507 c 0,14,15
 172 1507 172 1507 168 1514.5 c 128,-1,16
 164 1522 164 1522 164 1532 c 1,17,-1
 187 1717 l 2,18,19
 189 1729 189 1729 193.5 1736 c 128,-1,20
 198 1743 198 1743 212 1743 c 0,21,22
 299 1743 299 1743 363.5 1717 c 128,-1,23
 428 1691 428 1691 471 1643 c 128,-1,24
 514 1595 514 1595 535 1528.5 c 128,-1,25
 556 1462 556 1462 556 1381 c 0,26,27
 556 1312 556 1312 550.5 1214.5 c 128,-1,28
 545 1117 545 1117 535 1004 c 128,-1,29
 525 891 525 891 512 767.5 c 128,-1,30
 499 644 499 644 483.5 522 c 128,-1,31
 468 400 468 400 451.5 285 c 128,-1,32
 435 170 435 170 418 73 c 0,33,34
 405 1 405 1 390.5 -64.5 c 128,-1,35
 376 -130 376 -130 354 -185.5 c 128,-1,36
 332 -241 332 -241 299 -285.5 c 128,-1,37
 266 -330 266 -330 217 -361.5 c 128,-1,38
 168 -393 168 -393 99 -410 c 128,-1,39
 30 -427 30 -427 -64 -427 c 0,40,41
 -80 -427 -80 -427 -87 -421.5 c 128,-1,42
 -94 -416 -94 -416 -94 -397 c 1,43,-1
 -72 -222 l 2,44,45
 -69 -197 -69 -197 -50 -197 c 0,46,47
 -3 -197 -3 -197 33.5 -185.5 c 128,-1,48
 70 -174 70 -174 97.5 -144.5 c 128,-1,49
 125 -115 125 -115 145 -65.5 c 128,-1,50
 165 -16 165 -16 178 60 c 0,0,1
EndSplineSet
EndChar

StartChar: bracketleft
Encoding: 91 91 122
Width: 681
Flags: W
LayerCount: 2
Fore
SplineSet
578 -198 m 1,0,1
 592 -199 592 -199 597.5 -205.5 c 128,-1,2
 603 -212 603 -212 603 -223 c 1,3,-1
 582 -405 l 2,4,5
 580 -418 580 -418 575 -424 c 128,-1,6
 570 -430 570 -430 556 -431 c 2,7,-1
 134 -446 l 2,8,9
 112 -446 112 -446 112 -426 c 1,10,-1
 351 1699 l 2,11,12
 353 1710 353 1710 357.5 1716 c 128,-1,13
 362 1722 362 1722 376 1723 c 2,14,-1
 799 1737 l 1,15,16
 825 1736 825 1736 825 1711 c 1,17,-1
 803 1531 l 2,18,19
 801 1518 801 1518 796 1512 c 128,-1,20
 791 1506 791 1506 777 1505 c 2,21,-1
 567 1498 l 1,22,-1
 377 -205 l 1,23,-1
 578 -198 l 1,0,1
EndSplineSet
EndChar

StartChar: bracketright
Encoding: 93 93 123
Width: 681
Flags: W
LayerCount: 2
Fore
SplineSet
164 -199 m 1,0,-1
 354 1504 l 1,1,-1
 153 1497 l 1,2,3
 139 1498 139 1498 133.5 1504.5 c 128,-1,4
 128 1511 128 1511 128 1522 c 1,5,-1
 149 1704 l 2,6,7
 151 1717 151 1717 156 1723 c 128,-1,8
 161 1729 161 1729 175 1730 c 2,9,-1
 597 1745 l 2,10,11
 619 1745 619 1745 619 1725 c 1,12,-1
 380 -400 l 2,13,14
 378 -411 378 -411 373.5 -417 c 128,-1,15
 369 -423 369 -423 355 -424 c 2,16,-1
 -68 -438 l 1,17,18
 -94 -437 -94 -437 -94 -412 c 1,19,-1
 -72 -232 l 2,20,21
 -70 -219 -70 -219 -65 -213 c 128,-1,22
 -60 -207 -60 -207 -46 -206 c 2,23,-1
 164 -199 l 1,0,-1
EndSplineSet
EndChar

StartChar: currency
Encoding: 164 164 124
Width: 964
Flags: W
LayerCount: 2
Fore
SplineSet
16 262 m 2,0,1
 11 267 11 267 7 272.5 c 128,-1,2
 3 278 3 278 3 285 c 0,3,4
 3 289 3 289 7 297 c 1,5,-1
 160 464 l 1,6,7
 141 510 141 510 132.5 562.5 c 128,-1,8
 124 615 124 615 124 673 c 0,9,10
 124 773 124 773 149.5 861 c 128,-1,11
 175 949 175 949 223 1017 c 1,12,-1
 114 1179 l 2,13,14
 111 1183 111 1183 107.5 1188.5 c 128,-1,15
 104 1194 104 1194 104 1200 c 256,16,17
 104 1206 104 1206 112 1213 c 1,18,-1
 240 1301 l 2,19,20
 247 1305 247 1305 252 1307.5 c 128,-1,21
 257 1310 257 1310 262 1310 c 0,22,23
 266 1310 266 1310 270 1309.5 c 128,-1,24
 274 1309 274 1309 277 1304 c 2,25,-1
 382 1148 l 1,26,27
 416 1162 416 1162 453 1170 c 128,-1,28
 490 1178 490 1178 532 1178 c 0,29,30
 595 1178 595 1178 645 1163 c 128,-1,31
 695 1148 695 1148 736 1119 c 1,32,-1
 870 1266 l 1,33,34
 880 1281 880 1281 890 1281 c 0,35,36
 894 1281 894 1281 897.5 1280.5 c 128,-1,37
 901 1280 901 1280 905 1277 c 2,38,-1
 1013 1177 l 1,39,40
 1026 1163 1026 1163 1026 1153 c 0,41,42
 1026 1151 1026 1151 1025.5 1147 c 128,-1,43
 1025 1143 1025 1143 1023 1141 c 2,44,-1
 857 959 l 1,45,-1
 854 961 l 1,46,47
 871 916 871 916 879.5 865.5 c 128,-1,48
 888 815 888 815 888 760 c 0,49,50
 888 671 888 671 869 593 c 128,-1,51
 850 515 850 515 814 452 c 1,52,-1
 951 252 l 2,53,54
 955 247 955 247 957.5 241.5 c 128,-1,55
 960 236 960 236 960 231 c 0,56,57
 960 227 960 227 959.5 223 c 128,-1,58
 959 219 959 219 954 216 c 2,59,-1
 826 127 l 2,60,61
 813 119 813 119 804 119 c 0,62,63
 800 119 800 119 796.5 119.5 c 128,-1,64
 793 120 793 120 790 124 c 2,65,-1
 667 303 l 1,66,67
 626 280 626 280 579.5 268 c 128,-1,68
 533 256 533 256 479 256 c 0,69,70
 420 256 420 256 371.5 269.5 c 128,-1,71
 323 283 323 283 284 308 c 1,72,-1
 160 171 l 2,73,74
 154 165 154 165 149.5 161.5 c 128,-1,75
 145 158 145 158 139 158 c 0,76,77
 135 158 135 158 125 162 c 1,78,-1
 16 262 l 2,0,1
498 458 m 0,79,80
 543 458 543 458 576 480.5 c 128,-1,81
 609 503 609 503 631 541.5 c 128,-1,82
 653 580 653 580 664 630.5 c 128,-1,83
 675 681 675 681 675 738 c 0,84,85
 675 785 675 785 667.5 828 c 128,-1,86
 660 871 660 871 642 903.5 c 128,-1,87
 624 936 624 936 592.5 955.5 c 128,-1,88
 561 975 561 975 513 975 c 0,89,90
 469 975 469 975 435.5 952.5 c 128,-1,91
 402 930 402 930 379.5 891 c 128,-1,92
 357 852 357 852 346 801 c 128,-1,93
 335 750 335 750 335 693 c 0,94,95
 335 646 335 646 342.5 603.5 c 128,-1,96
 350 561 350 561 368.5 529 c 128,-1,97
 387 497 387 497 418.5 477.5 c 128,-1,98
 450 458 450 458 498 458 c 0,79,80
EndSplineSet
EndChar

StartChar: dollar
Encoding: 36 36 125
Width: 964
Flags: W
LayerCount: 2
Fore
SplineSet
207 218 m 2,0,1
 209 229 209 229 214 234.5 c 128,-1,2
 219 240 219 240 233 242 c 0,3,4
 311 250 311 250 360.5 261 c 128,-1,5
 410 272 410 272 438.5 291.5 c 128,-1,6
 467 311 467 311 478 340.5 c 128,-1,7
 489 370 489 370 489 415 c 0,8,9
 489 487 489 487 468.5 571 c 128,-1,10
 448 655 448 655 419 746 c 0,11,12
 402 801 402 801 385 856.5 c 128,-1,13
 368 912 368 912 354.5 967.5 c 128,-1,14
 341 1023 341 1023 332.5 1076.5 c 128,-1,15
 324 1130 324 1130 324 1180 c 0,16,17
 324 1302 324 1302 368 1381.5 c 128,-1,18
 412 1461 412 1461 490 1506 c 1,19,-1
 519 1762 l 2,20,21
 521 1776 521 1776 526.5 1781.5 c 128,-1,22
 532 1787 532 1787 545 1788 c 2,23,-1
 697 1793 l 2,24,25
 723 1793 723 1793 723 1770 c 1,26,-1
 700 1569 l 1,27,28
 723 1571 723 1571 747.5 1572.5 c 128,-1,29
 772 1574 772 1574 798 1574 c 0,30,31
 813 1574 813 1574 819 1567.5 c 128,-1,32
 825 1561 825 1561 825 1549 c 1,33,-1
 798 1342 l 2,34,35
 796 1328 796 1328 791.5 1322 c 128,-1,36
 787 1316 787 1316 773 1315 c 0,37,38
 669 1308 669 1308 624 1280 c 128,-1,39
 579 1252 579 1252 579 1200 c 0,40,41
 579 1166 579 1166 586 1123.5 c 128,-1,42
 593 1081 593 1081 605 1032.5 c 128,-1,43
 617 984 617 984 632 931.5 c 128,-1,44
 647 879 647 879 663 825 c 0,45,46
 679 772 679 772 693.5 720 c 128,-1,47
 708 668 708 668 719 618 c 128,-1,48
 730 568 730 568 737 522 c 128,-1,49
 744 476 744 476 744 436 c 0,50,51
 744 362 744 362 730.5 303.5 c 128,-1,52
 717 245 717 245 692.5 199.5 c 128,-1,53
 668 154 668 154 634 119.5 c 128,-1,54
 600 85 600 85 559 61 c 1,55,-1
 530 -185 l 2,56,57
 528 -202 528 -202 522 -206.5 c 128,-1,58
 516 -211 516 -211 505 -211 c 2,59,-1
 351 -216 l 1,60,61
 327 -215 327 -215 326 -191 c 1,62,-1
 345 -6 l 1,63,64
 277 -15 277 -15 207 -15 c 0,65,66
 193 -15 193 -15 187.5 -9 c 128,-1,67
 182 -3 182 -3 182 9 c 1,68,-1
 207 218 l 2,0,1
EndSplineSet
EndChar

StartChar: cent
Encoding: 162 162 126
Width: 964
Flags: W
LayerCount: 2
Fore
SplineSet
442 -9 m 1,0,1
 380 -5 380 -5 333.5 16 c 128,-1,2
 287 37 287 37 253.5 69.5 c 128,-1,3
 220 102 220 102 198 144.5 c 128,-1,4
 176 187 176 187 163.5 234 c 128,-1,5
 151 281 151 281 146 331 c 128,-1,6
 141 381 141 381 141 429 c 0,7,8
 141 491 141 491 145.5 566.5 c 128,-1,9
 150 642 150 642 164 726 c 0,10,11
 181 822 181 822 208.5 905.5 c 128,-1,12
 236 989 236 989 280.5 1053.5 c 128,-1,13
 325 1118 325 1118 390.5 1159.5 c 128,-1,14
 456 1201 456 1201 549 1213 c 1,15,-1
 566 1362 l 2,16,17
 568 1376 568 1376 573.5 1381.5 c 128,-1,18
 579 1387 579 1387 592 1388 c 2,19,-1
 744 1393 l 2,20,21
 770 1393 770 1393 770 1370 c 1,22,-1
 751 1206 l 1,23,24
 774 1202 774 1202 794.5 1197 c 128,-1,25
 815 1192 815 1192 833 1187 c 1,26,27
 843 1183 843 1183 849 1174.5 c 128,-1,28
 855 1166 855 1166 855 1149 c 1,29,-1
 832 968 l 2,30,31
 830 955 830 955 821.5 951.5 c 128,-1,32
 813 948 813 948 802 948 c 0,33,34
 779 948 779 948 756 958 c 0,35,36
 742 964 742 964 723 971.5 c 128,-1,37
 704 979 704 979 683 985.5 c 128,-1,38
 662 992 662 992 640.5 996.5 c 128,-1,39
 619 1001 619 1001 600 1001 c 0,40,41
 565 1001 565 1001 539.5 989 c 128,-1,42
 514 977 514 977 493 948.5 c 128,-1,43
 472 920 472 920 455 871 c 128,-1,44
 438 822 438 822 421 749 c 0,45,46
 415 725 415 725 409.5 689 c 128,-1,47
 404 653 404 653 399.5 612.5 c 128,-1,48
 395 572 395 572 392 531.5 c 128,-1,49
 389 491 389 491 389 458 c 0,50,51
 389 402 389 402 395.5 356.5 c 128,-1,52
 402 311 402 311 417 279 c 128,-1,53
 432 247 432 247 456 229.5 c 128,-1,54
 480 212 480 212 516 212 c 0,55,56
 535 212 535 212 557.5 214 c 128,-1,57
 580 216 580 216 601.5 220 c 128,-1,58
 623 224 623 224 642 229 c 128,-1,59
 661 234 661 234 674 239 c 0,60,61
 692 247 692 247 709.5 253 c 128,-1,62
 727 259 727 259 741 259 c 256,63,64
 755 259 755 259 764.5 251 c 128,-1,65
 774 243 774 243 774 229 c 1,66,-1
 753 53 l 2,67,68
 751 37 751 37 746.5 33 c 128,-1,69
 742 29 742 29 731 24 c 1,70,71
 694 13 694 13 649 4 c 1,72,-1
 627 -185 l 2,73,74
 625 -202 625 -202 619 -206.5 c 128,-1,75
 613 -211 613 -211 602 -211 c 2,76,-1
 448 -216 l 1,77,78
 424 -215 424 -215 423 -191 c 1,79,-1
 442 -9 l 1,80,-1
 442 -9 l 1,0,1
EndSplineSet
EndChar

StartChar: sterling
Encoding: 163 163 127
Width: 964
Flags: W
LayerCount: 2
Fore
SplineSet
105 223 m 2,0,1
 107 234 107 234 111 240.5 c 128,-1,2
 115 247 115 247 131 248 c 2,3,-1
 194 251 l 1,4,-1
 237 631 l 1,5,-1
 168 628 l 1,6,7
 154 630 154 630 148.5 635.5 c 128,-1,8
 143 641 143 641 143 654 c 1,9,-1
 167 857 l 2,10,11
 169 868 169 868 172.5 874.5 c 128,-1,12
 176 881 176 881 193 882 c 2,13,-1
 265 884 l 1,14,-1
 285 1061 l 2,15,16
 297 1166 297 1166 318.5 1259.5 c 128,-1,17
 340 1353 340 1353 386.5 1423 c 128,-1,18
 433 1493 433 1493 511.5 1533.5 c 128,-1,19
 590 1574 590 1574 717 1574 c 0,20,21
 812 1574 812 1574 910 1562 c 1,22,23
 926 1559 926 1559 932.5 1555 c 128,-1,24
 939 1551 939 1551 939 1533 c 1,25,-1
 916 1338 l 2,26,27
 913 1312 913 1312 896 1312 c 0,28,29
 889 1312 889 1312 872.5 1314 c 128,-1,30
 856 1316 856 1316 832 1320 c 0,31,32
 806 1324 806 1324 779 1326.5 c 128,-1,33
 752 1329 752 1329 732 1329 c 0,34,35
 687 1329 687 1329 654.5 1320 c 128,-1,36
 622 1311 622 1311 599 1285 c 128,-1,37
 576 1259 576 1259 561.5 1211.5 c 128,-1,38
 547 1164 547 1164 539 1087 c 2,39,-1
 518 893 l 1,40,-1
 731 900 l 1,41,42
 754 899 754 899 754 874 c 1,43,-1
 729 672 l 2,44,45
 727 660 727 660 722.5 653.5 c 128,-1,46
 718 647 718 647 704 646 c 2,47,-1
 491 639 l 1,48,-1
 450 259 l 1,49,-1
 834 273 l 1,50,51
 857 272 857 272 857 247 c 1,52,-1
 834 45 l 2,53,54
 832 32 832 32 827.5 26 c 128,-1,55
 823 20 823 20 809 19 c 2,56,-1
 107 -4 l 1,57,58
 82 -3 82 -3 82 20 c 1,59,-1
 105 223 l 2,0,1
EndSplineSet
EndChar

StartChar: Euro
Encoding: 8364 8364 128
Width: 964
Flags: W
LayerCount: 2
Fore
SplineSet
208 365 m 0,0,1
 208 383 208 383 208 404 c 128,-1,2
 208 425 208 425 209 448 c 1,3,-1
 96 444 l 1,4,5
 82 445 82 445 77 451 c 128,-1,6
 72 457 72 457 72 470 c 1,7,-1
 92 649 l 2,8,9
 94 660 94 660 97.5 667 c 128,-1,10
 101 674 101 674 118 675 c 2,11,-1
 224 679 l 1,12,13
 227 708 227 708 230 738 c 128,-1,14
 233 768 233 768 238 800 c 1,15,-1
 137 796 l 1,16,17
 123 797 123 797 118 803 c 128,-1,18
 113 809 113 809 113 822 c 1,19,-1
 133 1001 l 2,20,21
 135 1012 135 1012 138.5 1019 c 128,-1,22
 142 1026 142 1026 159 1027 c 2,23,-1
 272 1031 l 1,24,-1
 282 1083 l 2,25,26
 302 1188 302 1188 329 1276.5 c 128,-1,27
 356 1365 356 1365 408 1430 c 128,-1,28
 460 1495 460 1495 547 1531.5 c 128,-1,29
 634 1568 634 1568 775 1568 c 0,30,31
 786 1568 786 1568 808 1567 c 128,-1,32
 830 1566 830 1566 854.5 1564.5 c 128,-1,33
 879 1563 879 1563 901.5 1561 c 128,-1,34
 924 1559 924 1559 936 1557 c 0,35,36
 950 1555 950 1555 957.5 1550.5 c 128,-1,37
 965 1546 965 1546 965 1529 c 1,38,-1
 942 1343 l 2,39,40
 940 1332 940 1332 936 1324.5 c 128,-1,41
 932 1317 932 1317 921 1317 c 0,42,43
 914 1317 914 1317 896 1319 c 128,-1,44
 878 1321 878 1321 853 1325 c 0,45,46
 827 1329 827 1329 800 1331.5 c 128,-1,47
 773 1334 773 1334 754 1334 c 0,48,49
 709 1334 709 1334 674 1324.5 c 128,-1,50
 639 1315 639 1315 612 1289 c 128,-1,51
 585 1263 585 1263 565.5 1217 c 128,-1,52
 546 1171 546 1171 533 1097 c 0,53,54
 531 1084 531 1084 528 1070 c 128,-1,55
 525 1056 525 1056 523 1040 c 1,56,-1
 814 1051 l 1,57,58
 837 1050 837 1050 837 1026 c 1,59,-1
 816 846 l 2,60,61
 814 834 814 834 809 828 c 128,-1,62
 804 822 804 822 791 821 c 2,63,-1
 494 809 l 1,64,65
 489 779 489 779 486 748.5 c 128,-1,66
 483 718 483 718 481 688 c 1,67,-1
 773 699 l 1,68,69
 796 698 796 698 796 674 c 1,70,-1
 775 494 l 2,71,72
 773 482 773 482 768 476 c 128,-1,73
 763 470 763 470 750 469 c 2,74,-1
 465 458 l 1,75,76
 463 435 463 435 463 414 c 128,-1,77
 463 393 463 393 463 376 c 0,78,79
 463 332 463 332 473.5 304 c 128,-1,80
 484 276 484 276 502 260 c 128,-1,81
 520 244 520 244 543 237.5 c 128,-1,82
 566 231 566 231 591 231 c 0,83,84
 602 231 602 231 618 232 c 128,-1,85
 634 233 634 233 652.5 235 c 128,-1,86
 671 237 671 237 691 239.5 c 128,-1,87
 711 242 711 242 730 245 c 0,88,89
 764 250 764 250 790.5 253 c 128,-1,90
 817 256 817 256 825 256 c 0,91,92
 837 256 837 256 841.5 248 c 128,-1,93
 846 240 846 240 846 231 c 1,94,-1
 823 45 l 2,95,96
 821 34 821 34 816 28.5 c 128,-1,97
 811 23 811 23 797 20 c 0,98,99
 770 15 770 15 736.5 9.5 c 128,-1,100
 703 4 703 4 667.5 -0.5 c 128,-1,101
 632 -5 632 -5 596.5 -8 c 128,-1,102
 561 -11 561 -11 530 -11 c 0,103,104
 450 -11 450 -11 390 16 c 128,-1,105
 330 43 330 43 289.5 92 c 128,-1,106
 249 141 249 141 228.5 210.5 c 128,-1,107
 208 280 208 280 208 365 c 0,0,1
EndSplineSet
EndChar

StartChar: yen
Encoding: 165 165 129
Width: 964
Flags: W
LayerCount: 2
Fore
SplineSet
143 235 m 1,0,1
 129 236 129 236 124 242 c 128,-1,2
 119 248 119 248 119 261 c 1,3,-1
 139 440 l 2,4,5
 141 451 141 451 144.5 458 c 128,-1,6
 148 465 148 465 165 466 c 2,7,-1
 362 473 l 1,8,-1
 373 571 l 1,9,-1
 180 564 l 1,10,11
 166 565 166 565 161 571 c 128,-1,12
 156 577 156 577 156 590 c 1,13,-1
 176 769 l 2,14,15
 178 780 178 780 181.5 787 c 128,-1,16
 185 794 185 794 202 795 c 2,17,-1
 357 800 l 1,18,-1
 182 1535 l 1,19,20
 182 1549 182 1549 209 1551 c 2,21,-1
 412 1559 l 1,22,23
 434 1558 434 1558 438 1539 c 2,24,-1
 552 968 l 1,25,-1
 757 1528 l 2,26,27
 761 1539 761 1539 766 1544.5 c 128,-1,28
 771 1550 771 1550 782 1551 c 2,29,-1
 988 1558 l 1,30,31
 1001 1557 1001 1557 1008 1550 c 128,-1,32
 1015 1543 1015 1543 1015 1535 c 1,33,-1
 692 813 l 1,34,-1
 857 819 l 1,35,36
 880 818 880 818 880 794 c 1,37,-1
 859 614 l 2,38,39
 857 602 857 602 852 596 c 128,-1,40
 847 590 847 590 834 589 c 2,41,-1
 628 581 l 1,42,-1
 617 482 l 1,43,-1
 820 490 l 1,44,45
 843 489 843 489 843 465 c 1,46,-1
 822 285 l 2,47,48
 820 273 820 273 815 267 c 128,-1,49
 810 261 810 261 797 260 c 2,50,-1
 590 252 l 1,51,-1
 565 28 l 2,52,53
 563 16 563 16 558 10 c 128,-1,54
 553 4 553 4 539 3 c 2,55,-1
 333 -4 l 2,56,57
 311 -4 311 -4 311 15 c 1,58,-1
 336 242 l 1,59,-1
 143 235 l 1,60,-1
 143 235 l 1,0,1
EndSplineSet
EndChar

StartChar: at
Encoding: 64 64 130
Width: 2128
Flags: W
LayerCount: 2
Fore
SplineSet
172 477 m 0,0,1
 172 640 172 640 209 789 c 128,-1,2
 246 938 246 938 313 1066.5 c 128,-1,3
 380 1195 380 1195 474.5 1299.5 c 128,-1,4
 569 1404 569 1404 684.5 1478 c 128,-1,5
 800 1552 800 1552 933 1592 c 128,-1,6
 1066 1632 1066 1632 1211 1632 c 0,7,8
 1323 1632 1323 1632 1426 1605 c 128,-1,9
 1529 1578 1529 1578 1618.5 1527 c 128,-1,10
 1708 1476 1708 1476 1781.5 1402.5 c 128,-1,11
 1855 1329 1855 1329 1907 1235.5 c 128,-1,12
 1959 1142 1959 1142 1987.5 1030.5 c 128,-1,13
 2016 919 2016 919 2016 793 c 0,14,15
 2016 630 2016 630 1982 507.5 c 128,-1,16
 1948 385 1948 385 1891 296.5 c 128,-1,17
 1834 208 1834 208 1759 150.5 c 128,-1,18
 1684 93 1684 93 1602 59.5 c 128,-1,19
 1520 26 1520 26 1436 12.5 c 128,-1,20
 1352 -1 1352 -1 1277 -1 c 1,21,22
 1256 0 1256 0 1256 19 c 1,23,-1
 1244 245 l 1,24,25
 1219 189 1219 189 1188 142.5 c 128,-1,26
 1157 96 1157 96 1118.5 61.5 c 128,-1,27
 1080 27 1080 27 1033 8 c 128,-1,28
 986 -11 986 -11 928 -11 c 0,29,30
 875 -11 875 -11 834 5.5 c 128,-1,31
 793 22 793 22 763 50.5 c 128,-1,32
 733 79 733 79 712.5 118 c 128,-1,33
 692 157 692 157 679.5 202.5 c 128,-1,34
 667 248 667 248 661.5 297.5 c 128,-1,35
 656 347 656 347 656 398 c 0,36,37
 656 434 656 434 658 480 c 128,-1,38
 660 526 660 526 664.5 577.5 c 128,-1,39
 669 629 669 629 676 683 c 128,-1,40
 683 737 683 737 694 790 c 1,41,42
 710 875 710 875 734 952.5 c 128,-1,43
 758 1030 758 1030 797 1089 c 128,-1,44
 836 1148 836 1148 893.5 1183 c 128,-1,45
 951 1218 951 1218 1034 1218 c 0,46,47
 1084 1218 1084 1218 1120 1205 c 128,-1,48
 1156 1192 1156 1192 1182 1169 c 128,-1,49
 1208 1146 1208 1146 1226 1114 c 128,-1,50
 1244 1082 1244 1082 1259 1044 c 1,51,-1
 1270 1178 l 2,52,53
 1271 1189 1271 1189 1275.5 1195 c 128,-1,54
 1280 1201 1280 1201 1295 1202 c 2,55,-1
 1492 1209 l 1,56,57
 1519 1207 1519 1207 1519 1183 c 1,58,-1
 1416 257 l 1,59,60
 1509 264 1509 264 1579 298.5 c 128,-1,61
 1649 333 1649 333 1695 398 c 128,-1,62
 1741 463 1741 463 1764 560.5 c 128,-1,63
 1787 658 1787 658 1787 791 c 0,64,65
 1787 934 1787 934 1740.5 1047.5 c 128,-1,66
 1694 1161 1694 1161 1612.5 1239.5 c 128,-1,67
 1531 1318 1531 1318 1419.5 1359.5 c 128,-1,68
 1308 1401 1308 1401 1179 1401 c 0,69,70
 1070 1401 1070 1401 969.5 1368.5 c 128,-1,71
 869 1336 869 1336 781.5 1277.5 c 128,-1,72
 694 1219 694 1219 622 1137 c 128,-1,73
 550 1055 550 1055 499 955.5 c 128,-1,74
 448 856 448 856 420 742 c 128,-1,75
 392 628 392 628 392 505 c 0,76,77
 392 346 392 346 437.5 217.5 c 128,-1,78
 483 89 483 89 572.5 -1.5 c 128,-1,79
 662 -92 662 -92 795 -141.5 c 128,-1,80
 928 -191 928 -191 1102 -191 c 0,81,82
 1167 -191 1167 -191 1237.5 -180.5 c 128,-1,83
 1308 -170 1308 -170 1369.5 -157 c 128,-1,84
 1431 -144 1431 -144 1476 -133.5 c 128,-1,85
 1521 -123 1521 -123 1534 -123 c 0,86,87
 1548 -123 1548 -123 1553 -130.5 c 128,-1,88
 1558 -138 1558 -138 1558 -149 c 2,89,-1
 1544 -326 l 2,90,91
 1543 -339 1543 -339 1538.5 -343.5 c 128,-1,92
 1534 -348 1534 -348 1520 -352 c 0,93,94
 1473 -366 1473 -366 1425.5 -378.5 c 128,-1,95
 1378 -391 1378 -391 1325.5 -400.5 c 128,-1,96
 1273 -410 1273 -410 1213 -415.5 c 128,-1,97
 1153 -421 1153 -421 1083 -421 c 0,98,99
 878 -421 878 -421 710 -357.5 c 128,-1,100
 542 -294 542 -294 422.5 -176.5 c 128,-1,101
 303 -59 303 -59 237.5 107 c 128,-1,102
 172 273 172 273 172 477 c 0,0,1
908 458 m 0,103,104
 908 427 908 427 911 386 c 128,-1,105
 914 345 914 345 927 308 c 128,-1,106
 940 271 940 271 965.5 245 c 128,-1,107
 991 219 991 219 1035 219 c 0,108,109
 1063 219 1063 219 1085 230 c 128,-1,110
 1107 241 1107 241 1125 268 c 128,-1,111
 1143 295 1143 295 1157.5 341 c 128,-1,112
 1172 387 1172 387 1184 458 c 0,113,114
 1196 528 1196 528 1205 599.5 c 128,-1,115
 1214 671 1214 671 1214 745 c 0,116,117
 1214 777 1214 777 1212 818 c 128,-1,118
 1210 859 1210 859 1198 896 c 128,-1,119
 1186 933 1186 933 1161 958 c 128,-1,120
 1136 983 1136 983 1090 983 c 0,121,122
 1063 983 1063 983 1041.5 971.5 c 128,-1,123
 1020 960 1020 960 1002 932.5 c 128,-1,124
 984 905 984 905 968.5 859 c 128,-1,125
 953 813 953 813 938 744 c 0,126,127
 935 730 935 730 930 696 c 128,-1,128
 925 662 925 662 920 620 c 128,-1,129
 915 578 915 578 911.5 534.5 c 128,-1,130
 908 491 908 491 908 458 c 0,103,104
EndSplineSet
EndChar

StartChar: copyright
Encoding: 169 169 131
Width: 1935
Flags: W
LayerCount: 2
Fore
SplineSet
211 750 m 0,0,1
 211 948 211 948 274.5 1117 c 128,-1,2
 338 1286 338 1286 453 1410.5 c 128,-1,3
 568 1535 568 1535 729 1605.5 c 128,-1,4
 890 1676 890 1676 1085 1676 c 0,5,6
 1196 1676 1196 1676 1294 1649 c 128,-1,7
 1392 1622 1392 1622 1473.5 1573 c 128,-1,8
 1555 1524 1555 1524 1620 1454.5 c 128,-1,9
 1685 1385 1685 1385 1729.5 1299.5 c 128,-1,10
 1774 1214 1774 1214 1798 1115 c 128,-1,11
 1822 1016 1822 1016 1822 908 c 0,12,13
 1822 710 1822 710 1758.5 541 c 128,-1,14
 1695 372 1695 372 1580 248.5 c 128,-1,15
 1465 125 1465 125 1303.5 55 c 128,-1,16
 1142 -15 1142 -15 947 -15 c 0,17,18
 780 -15 780 -15 644.5 43.5 c 128,-1,19
 509 102 509 102 412.5 204.5 c 128,-1,20
 316 307 316 307 263.5 447 c 128,-1,21
 211 587 211 587 211 750 c 0,0,1
411 769 m 0,22,23
 411 643 411 643 449 534 c 128,-1,24
 487 425 487 425 559 344 c 128,-1,25
 631 263 631 263 734 217 c 128,-1,26
 837 171 837 171 966 171 c 0,27,28
 1116 171 1116 171 1237.5 226 c 128,-1,29
 1359 281 1359 281 1444.5 377.5 c 128,-1,30
 1530 474 1530 474 1576.5 605 c 128,-1,31
 1623 736 1623 736 1623 888 c 0,32,33
 1623 1014 1623 1014 1584.5 1123.5 c 128,-1,34
 1546 1233 1546 1233 1474.5 1314 c 128,-1,35
 1403 1395 1403 1395 1300 1441.5 c 128,-1,36
 1197 1488 1197 1488 1068 1488 c 0,37,38
 918 1488 918 1488 796.5 1433 c 128,-1,39
 675 1378 675 1378 589.5 1281.5 c 128,-1,40
 504 1185 504 1185 457.5 1053.5 c 128,-1,41
 411 922 411 922 411 769 c 0,22,23
712 528 m 0,42,43
 712 541 712 541 713.5 587 c 128,-1,44
 715 633 715 633 720 702 c 128,-1,45
 725 771 725 771 735 859.5 c 128,-1,46
 745 948 745 948 762 1046 c 0,47,48
 775 1120 775 1120 797 1182.5 c 128,-1,49
 819 1245 819 1245 858.5 1290.5 c 128,-1,50
 898 1336 898 1336 961 1361.5 c 128,-1,51
 1024 1387 1024 1387 1119 1387 c 0,52,53
 1126 1387 1126 1387 1141.5 1386.5 c 128,-1,54
 1157 1386 1157 1386 1173.5 1385 c 128,-1,55
 1190 1384 1190 1384 1205 1382.5 c 128,-1,56
 1220 1381 1220 1381 1228 1380 c 0,57,58
 1238 1378 1238 1378 1244.5 1375 c 128,-1,59
 1251 1372 1251 1372 1251 1358 c 1,60,-1
 1233 1218 l 1,61,62
 1232 1201 1232 1201 1218 1201 c 0,63,64
 1214 1201 1214 1201 1203.5 1202 c 128,-1,65
 1193 1203 1193 1203 1179 1205 c 0,66,67
 1158 1208 1158 1208 1138.5 1210 c 128,-1,68
 1119 1212 1119 1212 1105 1212 c 0,69,70
 1075 1212 1075 1212 1051.5 1205 c 128,-1,71
 1028 1198 1028 1198 1009.5 1179.5 c 128,-1,72
 991 1161 991 1161 978 1128.5 c 128,-1,73
 965 1096 965 1096 956 1044 c 0,74,75
 948 998 948 998 939 933.5 c 128,-1,76
 930 869 930 869 923 801.5 c 128,-1,77
 916 734 916 734 911.5 670.5 c 128,-1,78
 907 607 907 607 907 564 c 0,79,80
 907 534 907 534 914.5 514 c 128,-1,81
 922 494 922 494 934 483 c 128,-1,82
 946 472 946 472 962 467.5 c 128,-1,83
 978 463 978 463 995 463 c 256,84,85
 1012 463 1012 463 1042 466.5 c 128,-1,86
 1072 470 1072 470 1100 474 c 0,87,88
 1120 477 1120 477 1134.5 478.5 c 128,-1,89
 1149 480 1149 480 1154 480 c 0,90,91
 1162 480 1162 480 1165.5 475 c 128,-1,92
 1169 470 1169 470 1169 463 c 2,93,-1
 1153 320 l 2,94,95
 1152 312 1152 312 1148.5 308.5 c 128,-1,96
 1145 305 1145 305 1134 303 c 0,97,98
 1116 299 1116 299 1092 295 c 128,-1,99
 1068 291 1068 291 1043 288 c 128,-1,100
 1018 285 1018 285 994.5 283 c 128,-1,101
 971 281 971 281 954 281 c 0,102,103
 895 281 895 281 849.5 299.5 c 128,-1,104
 804 318 804 318 773.5 350.5 c 128,-1,105
 743 383 743 383 727.5 428.5 c 128,-1,106
 712 474 712 474 712 528 c 0,42,43
EndSplineSet
EndChar

StartChar: registered
Encoding: 174 174 132
Width: 1935
Flags: W
LayerCount: 2
Fore
SplineSet
211 750 m 0,0,1
 211 948 211 948 274.5 1117 c 128,-1,2
 338 1286 338 1286 453 1410.5 c 128,-1,3
 568 1535 568 1535 729 1605.5 c 128,-1,4
 890 1676 890 1676 1085 1676 c 0,5,6
 1196 1676 1196 1676 1294 1649 c 128,-1,7
 1392 1622 1392 1622 1473.5 1573 c 128,-1,8
 1555 1524 1555 1524 1620 1454.5 c 128,-1,9
 1685 1385 1685 1385 1729.5 1299.5 c 128,-1,10
 1774 1214 1774 1214 1798 1115 c 128,-1,11
 1822 1016 1822 1016 1822 908 c 0,12,13
 1822 710 1822 710 1758.5 541 c 128,-1,14
 1695 372 1695 372 1580 248.5 c 128,-1,15
 1465 125 1465 125 1303.5 55 c 128,-1,16
 1142 -15 1142 -15 947 -15 c 0,17,18
 780 -15 780 -15 644.5 43.5 c 128,-1,19
 509 102 509 102 412.5 204.5 c 128,-1,20
 316 307 316 307 263.5 447 c 128,-1,21
 211 587 211 587 211 750 c 0,0,1
411 769 m 0,22,23
 411 643 411 643 449 534 c 128,-1,24
 487 425 487 425 559 344 c 128,-1,25
 631 263 631 263 734 217 c 128,-1,26
 837 171 837 171 966 171 c 0,27,28
 1116 171 1116 171 1237.5 226 c 128,-1,29
 1359 281 1359 281 1444.5 377.5 c 128,-1,30
 1530 474 1530 474 1576.5 605 c 128,-1,31
 1623 736 1623 736 1623 888 c 0,32,33
 1623 1014 1623 1014 1584.5 1123.5 c 128,-1,34
 1546 1233 1546 1233 1474.5 1314 c 128,-1,35
 1403 1395 1403 1395 1300 1441.5 c 128,-1,36
 1197 1488 1197 1488 1068 1488 c 0,37,38
 918 1488 918 1488 796.5 1433 c 128,-1,39
 675 1378 675 1378 589.5 1281.5 c 128,-1,40
 504 1185 504 1185 457.5 1053.5 c 128,-1,41
 411 922 411 922 411 769 c 0,22,23
812 1344 m 2,42,43
 814 1356 814 1356 818 1359.5 c 128,-1,44
 822 1363 822 1363 837 1368 c 1,45,46
 857 1371 857 1371 886 1375 c 128,-1,47
 915 1379 915 1379 946 1382 c 128,-1,48
 977 1385 977 1385 1008 1387.5 c 128,-1,49
 1039 1390 1039 1390 1063 1390 c 0,50,51
 1135 1390 1135 1390 1183 1368 c 128,-1,52
 1231 1346 1231 1346 1260 1308.5 c 128,-1,53
 1289 1271 1289 1271 1301 1220.5 c 128,-1,54
 1313 1170 1313 1170 1313 1112 c 0,55,56
 1313 991 1313 991 1263.5 906 c 128,-1,57
 1214 821 1214 821 1109 781 c 1,58,-1
 1305 328 l 1,59,60
 1305 310 1305 310 1286 309 c 2,61,-1
 1108 302 l 1,62,63
 1100 303 1100 303 1097.5 306.5 c 128,-1,64
 1095 310 1095 310 1093 315 c 2,65,-1
 938 706 l 1,66,-1
 894 327 l 2,67,68
 893 319 893 319 890 314.5 c 128,-1,69
 887 310 887 310 876 309 c 2,70,-1
 708 302 l 1,71,72
 694 304 694 304 694 315 c 1,73,-1
 812 1344 l 2,42,43
960 893 m 1,74,75
 1007 898 1007 898 1037.5 913 c 128,-1,76
 1068 928 1068 928 1085.5 954.5 c 128,-1,77
 1103 981 1103 981 1110 1020.5 c 128,-1,78
 1117 1060 1117 1060 1117 1114 c 0,79,80
 1117 1157 1117 1157 1101.5 1180 c 128,-1,81
 1086 1203 1086 1203 1039 1203 c 0,82,83
 1028 1203 1028 1203 1019 1202.5 c 128,-1,84
 1010 1202 1010 1202 996 1200 c 1,85,-1
 960 893 l 1,74,75
EndSplineSet
EndChar

StartChar: asciicircum
Encoding: 94 94 133
Width: 964
Flags: W
LayerCount: 2
Fore
SplineSet
215 665 m 0,0,1
 212 665 212 665 208 666 c 128,-1,2
 204 667 204 667 200 670 c 2,3,-1
 71 792 l 2,4,5
 65 798 65 798 65 805 c 0,6,7
 65 811 65 811 68.5 815.5 c 128,-1,8
 72 820 72 820 78 826 c 2,9,-1
 477 1302 l 2,10,11
 484 1311 484 1311 495 1315 c 0,12,13
 497 1316 497 1316 510.5 1316.5 c 128,-1,14
 524 1317 524 1317 539.5 1317.5 c 128,-1,15
 555 1318 555 1318 568 1318.5 c 128,-1,16
 581 1319 581 1319 581 1319 c 2,17,18
 589 1319 589 1319 597 1313 c 1,19,-1
 967 821 l 1,20,21
 973 816 973 816 977.5 811.5 c 128,-1,22
 982 807 982 807 982 801 c 0,23,24
 982 797 982 797 979.5 793 c 128,-1,25
 977 789 977 789 974 785 c 1,26,-1
 837 666 l 1,27,28
 831 659 831 659 826.5 657 c 128,-1,29
 822 655 822 655 817 655 c 0,30,31
 808 655 808 655 803 662 c 2,32,-1
 524 1046 l 1,33,-1
 228 671 l 2,34,35
 222 665 222 665 215 665 c 0,0,1
EndSplineSet
EndChar

StartChar: underscore
Encoding: 95 95 134
Width: 1132
Flags: W
LayerCount: 2
Fore
SplineSet
1109 -28 m 1,0,1
 1132 -29 1132 -29 1132 -55 c 1,2,-1
 1111 -233 l 2,3,4
 1109 -247 1109 -247 1104 -253 c 128,-1,5
 1099 -259 1099 -259 1085 -260 c 2,6,-1
 -110 -303 l 1,7,8
 -124 -301 -124 -301 -129.5 -295.5 c 128,-1,9
 -135 -290 -135 -290 -135 -277 c 1,10,-1
 -114 -97 l 2,11,12
 -112 -86 -112 -86 -108.5 -79.5 c 128,-1,13
 -105 -73 -105 -73 -88 -72 c 2,14,-1
 1109 -28 l 1,0,1
EndSplineSet
EndChar

StartChar: section
Encoding: 167 167 135
Width: 1058
Flags: W
LayerCount: 2
Fore
SplineSet
174 -110 m 0,0,1
 200 -110 200 -110 230 -119 c 0,2,3
 249 -124 249 -124 267 -128 c 128,-1,4
 285 -132 285 -132 301 -132 c 0,5,6
 332 -132 332 -132 352.5 -121.5 c 128,-1,7
 373 -111 373 -111 386 -94 c 128,-1,8
 399 -77 399 -77 404.5 -55 c 128,-1,9
 410 -33 410 -33 410 -10 c 0,10,11
 410 23 410 23 399.5 58 c 128,-1,12
 389 93 389 93 371.5 129 c 128,-1,13
 354 165 354 165 331.5 202.5 c 128,-1,14
 309 240 309 240 285 279 c 0,15,16
 258 321 258 321 232 365 c 128,-1,17
 206 409 206 409 185.5 454 c 128,-1,18
 165 499 165 499 152 544.5 c 128,-1,19
 139 590 139 590 139 637 c 0,20,21
 139 720 139 720 166 786.5 c 128,-1,22
 193 853 193 853 241 899.5 c 128,-1,23
 289 946 289 946 355.5 971.5 c 128,-1,24
 422 997 422 997 501 997 c 1,25,26
 467 1075 467 1075 443.5 1152 c 128,-1,27
 420 1229 420 1229 420 1302 c 0,28,29
 420 1367 420 1367 440.5 1423 c 128,-1,30
 461 1479 461 1479 503 1520.5 c 128,-1,31
 545 1562 545 1562 610 1585.5 c 128,-1,32
 675 1609 675 1609 764 1609 c 0,33,34
 839 1609 839 1609 875 1602 c 128,-1,35
 911 1595 911 1595 911 1574 c 1,36,-1
 894 1375 l 2,37,38
 893 1363 893 1363 889 1354.5 c 128,-1,39
 885 1346 885 1346 875 1346 c 0,40,41
 864 1346 864 1346 852.5 1346 c 128,-1,42
 841 1346 841 1346 827 1348 c 0,43,44
 794 1351 794 1351 771 1351 c 0,45,46
 754 1351 754 1351 739.5 1348.5 c 128,-1,47
 725 1346 725 1346 714.5 1339 c 128,-1,48
 704 1332 704 1332 697.5 1319 c 128,-1,49
 691 1306 691 1306 691 1286 c 0,50,51
 691 1253 691 1253 700 1212 c 128,-1,52
 709 1171 709 1171 724 1125 c 128,-1,53
 739 1079 739 1079 759 1029 c 128,-1,54
 779 979 779 979 801 928 c 0,55,56
 825 871 825 871 848.5 814 c 128,-1,57
 872 757 872 757 890.5 705.5 c 128,-1,58
 909 654 909 654 920.5 609 c 128,-1,59
 932 564 932 564 932 530 c 0,60,61
 932 444 932 444 910 379.5 c 128,-1,62
 888 315 888 315 849 270 c 128,-1,63
 810 225 810 225 756.5 199 c 128,-1,64
 703 173 703 173 640 164 c 1,65,66
 661 120 661 120 673.5 77 c 128,-1,67
 686 34 686 34 686 -8 c 0,68,69
 686 -94 686 -94 661 -162 c 128,-1,70
 636 -230 636 -230 587.5 -277 c 128,-1,71
 539 -324 539 -324 469 -349 c 128,-1,72
 399 -374 399 -374 309 -374 c 0,73,74
 291 -374 291 -374 261.5 -372.5 c 128,-1,75
 232 -371 232 -371 203.5 -366.5 c 128,-1,76
 175 -362 175 -362 154.5 -353.5 c 128,-1,77
 134 -345 134 -345 134 -331 c 1,78,-1
 158 -135 l 2,79,80
 159 -125 159 -125 162.5 -117.5 c 128,-1,81
 166 -110 166 -110 174 -110 c 0,0,1
524 362 m 1,82,83
 534 360 534 360 543.5 359 c 128,-1,84
 553 358 553 358 561 358 c 0,85,86
 584 358 584 358 606.5 367.5 c 128,-1,87
 629 377 629 377 646.5 396.5 c 128,-1,88
 664 416 664 416 675 445 c 128,-1,89
 686 474 686 474 686 513 c 0,90,91
 686 570 686 570 662 637 c 128,-1,92
 638 704 638 704 604 778 c 1,93,94
 581 780 581 780 555.5 781.5 c 128,-1,95
 530 783 530 783 511 783 c 0,96,97
 459 783 459 783 423.5 753 c 128,-1,98
 388 723 388 723 388 669 c 0,99,100
 388 634 388 634 399.5 597 c 128,-1,101
 411 560 411 560 430 521.5 c 128,-1,102
 449 483 449 483 473.5 443 c 128,-1,103
 498 403 498 403 524 362 c 1,82,83
EndSplineSet
EndChar

StartChar: acute
Encoding: 180 180 136
Width: 877
Flags: W
LayerCount: 2
Fore
SplineSet
269 1226 m 1,0,1
 247 1228 247 1228 247 1246 c 1,2,-1
 382 1658 l 2,3,4
 387 1672 387 1672 394 1678 c 128,-1,5
 401 1684 401 1684 415 1685 c 2,6,-1
 604 1692 l 1,7,8
 630 1690 630 1690 630 1665 c 1,9,-1
 438 1253 l 2,10,11
 428 1233 428 1233 403 1231 c 1,12,-1
 269 1226 l 1,13,-1
 269 1226 l 1,0,1
EndSplineSet
EndChar

StartChar: grave
Encoding: 96 96 137
Width: 877
Flags: W
LayerCount: 2
Fore
SplineSet
471 1219 m 1,0,1
 459 1219 459 1219 451 1223.5 c 128,-1,2
 443 1228 443 1228 438 1241 c 2,3,-1
 265 1649 l 1,4,5
 265 1659 265 1659 270.5 1666 c 128,-1,6
 276 1673 276 1673 288 1674 c 2,7,-1
 477 1681 l 1,8,9
 491 1680 491 1680 498.5 1672.5 c 128,-1,10
 506 1665 506 1665 509 1653 c 2,11,-1
 612 1252 l 1,12,13
 612 1240 612 1240 608 1232 c 128,-1,14
 604 1224 604 1224 588 1223 c 2,15,-1
 471 1219 l 1,16,-1
 471 1219 l 1,0,1
EndSplineSet
EndChar

StartChar: tilde
Encoding: 732 732 138
Width: 877
Flags: W
LayerCount: 2
Fore
SplineSet
131 1307 m 0,0,1
 123 1307 123 1307 118 1312.5 c 128,-1,2
 113 1318 113 1318 112 1326 c 2,3,-1
 106 1401 l 2,4,5
 106 1412 106 1412 109.5 1419.5 c 128,-1,6
 113 1427 113 1427 128 1442 c 0,7,8
 141 1455 141 1455 161.5 1474 c 128,-1,9
 182 1493 182 1493 209.5 1510 c 128,-1,10
 237 1527 237 1527 271 1539.5 c 128,-1,11
 305 1552 305 1552 345 1552 c 0,12,13
 379 1552 379 1552 407 1542 c 128,-1,14
 435 1532 435 1532 462 1520 c 0,15,16
 488 1508 488 1508 515 1498 c 128,-1,17
 542 1488 542 1488 574 1488 c 0,18,19
 594 1488 594 1488 617 1494.5 c 128,-1,20
 640 1501 640 1501 663 1511 c 0,21,22
 688 1522 688 1522 708.5 1529.5 c 128,-1,23
 729 1537 729 1537 742 1537 c 0,24,25
 762 1537 762 1537 764 1518 c 2,26,-1
 770 1443 l 2,27,28
 770 1432 770 1432 765.5 1424 c 128,-1,29
 761 1416 761 1416 746 1402 c 0,30,31
 732 1388 732 1388 711.5 1369.5 c 128,-1,32
 691 1351 691 1351 664 1334 c 128,-1,33
 637 1317 637 1317 603 1305.5 c 128,-1,34
 569 1294 569 1294 529 1294 c 0,35,36
 495 1294 495 1294 466.5 1304 c 128,-1,37
 438 1314 438 1314 411 1326 c 256,38,39
 384 1338 384 1338 358 1347 c 128,-1,40
 332 1356 332 1356 301 1356 c 0,41,42
 278 1356 278 1356 253 1348.5 c 128,-1,43
 228 1341 228 1341 205 1331 c 256,44,45
 182 1321 182 1321 163 1314 c 128,-1,46
 144 1307 144 1307 131 1307 c 0,0,1
EndSplineSet
EndChar

StartChar: asciitilde
Encoding: 126 126 139
Width: 1031
Flags: W
LayerCount: 2
Fore
SplineSet
168 701 m 0,0,1
 143 701 143 701 142 717 c 1,2,-1
 127 835 l 1,3,4
 129 847 129 847 132 855 c 128,-1,5
 135 863 135 863 150 877 c 0,6,7
 163 889 163 889 186.5 908 c 128,-1,8
 210 927 210 927 241 945 c 128,-1,9
 272 963 272 963 309.5 975.5 c 128,-1,10
 347 988 347 988 387 988 c 0,11,12
 430 988 430 988 481 984 c 128,-1,13
 532 980 532 980 586 975 c 0,14,15
 637 970 637 970 686 966 c 128,-1,16
 735 962 735 962 774 962 c 0,17,18
 793 962 793 962 820 969.5 c 128,-1,19
 847 977 847 977 873 988 c 0,20,21
 901 999 901 999 922 1007 c 128,-1,22
 943 1015 943 1015 949 1015 c 0,23,24
 972 1015 972 1015 974 997 c 2,25,-1
 989 880 l 1,26,27
 988 868 988 868 984.5 859.5 c 128,-1,28
 981 851 981 851 967 837 c 0,29,30
 953 824 953 824 929.5 805 c 128,-1,31
 906 786 906 786 875 768.5 c 128,-1,32
 844 751 844 751 807.5 738.5 c 128,-1,33
 771 726 771 726 731 726 c 0,34,35
 687 726 687 726 635 730.5 c 128,-1,36
 583 735 583 735 529 741 c 0,37,38
 478 747 478 747 430 750.5 c 128,-1,39
 382 754 382 754 343 754 c 0,40,41
 323 754 323 754 294 745.5 c 128,-1,42
 265 737 265 737 238 726 c 0,43,44
 212 715 212 715 193 708 c 128,-1,45
 174 701 174 701 168 701 c 0,0,1
EndSplineSet
EndChar

